<?xml version="1.0" encoding="UTF-8"?>
<svg version="1.1" xmlns="http://www.w3.org/2000/svg" width="512" height="512">
<path d="M0 0 C4 5 4 5 4 39 C64.72 39 125.44 39 188 39 C188 27.78 188 16.56 188 5 C192.94296578 -1.17870722 192.94296578 -1.17870722 199 -2 C203.64429152 -0.60671254 206.63076173 0.72683887 209 5 C209.25644141 7.69199145 209.35046752 10.14305409 209.29296875 12.828125 C209.28872391 13.57713074 209.28447906 14.32613647 209.28010559 15.09783936 C209.26335746 17.48226375 209.22571397 19.86583253 209.1875 22.25 C209.17244809 23.86977943 209.15876057 25.48957215 209.14648438 27.109375 C209.1134668 31.07324466 209.06171246 35.03647743 209 39 C209.54520294 38.99555878 210.09040588 38.99111755 210.65213013 38.98654175 C216.39615216 38.94182928 222.14012371 38.91193782 227.88427734 38.89013672 C230.01971448 38.88016255 232.15513827 38.86657839 234.29052734 38.84912109 C258.31790163 38.65780242 277.250764 40.12616108 296.0234375 56.796875 C309.7247753 70.80819782 312.16164987 90.08351559 312.13371277 108.70661926 C312.13597833 109.83320047 312.13824388 110.95978167 312.14057809 112.1205017 C312.14687112 115.86786138 312.14609177 119.61518447 312.14526367 123.36254883 C312.14825807 126.06063469 312.15163332 128.75871777 312.15544128 131.45680237 C312.16371575 138.00859943 312.16649465 144.56038748 312.16705366 151.11218933 C312.16753027 156.44170893 312.16959224 161.77122558 312.17275429 167.10074425 C312.18155151 182.23799467 312.18617503 197.37523803 312.18542381 212.51249103 C312.18536388 213.73426085 312.18536388 213.73426085 312.18530273 214.98071289 C312.18526185 215.7962297 312.18522097 216.61174652 312.18517885 217.45197596 C312.18477247 230.66587758 312.19434243 243.87975069 312.2084411 257.09364406 C312.22283049 270.68811111 312.2297099 284.28256428 312.22884732 297.87703913 C312.22851628 305.49867915 312.23122286 313.12028926 312.24202538 320.74192238 C312.25116409 327.23079094 312.25327803 333.71961603 312.24651595 340.20848826 C312.2432679 343.51354387 312.2442348 346.81849962 312.2518692 350.12355042 C312.30167025 373.18524265 311.95115163 394.08535295 295.890625 412.40625 C280.45742426 427.52871515 261.56583165 430.16059976 240.90180969 430.13371277 C238.96926473 430.1371111 238.96926473 430.1371111 236.99767846 430.14057809 C233.44632733 430.14665736 229.89499988 430.1465671 226.34364474 430.14538372 C222.50368494 430.14517872 218.66373255 430.15070785 214.82377625 430.15544128 C207.30963644 430.1637272 199.79550448 430.1664952 192.28136048 430.16705366 C186.16950294 430.16752982 180.05764797 430.16958953 173.94579124 430.17275429 C156.59419739 430.18155538 139.2426097 430.18617454 121.8910136 430.18542381 C120.48957002 430.18536388 120.48957002 430.18536388 119.05981445 430.18530273 C117.65664756 430.18524141 117.65664756 430.18524141 116.22513386 430.18517885 C101.07188786 430.18477258 85.91866673 430.19433892 70.76542792 430.2084411 C55.18329615 430.22282729 39.60117648 430.22971005 24.0190379 430.22884732 C15.28008453 430.22851612 6.54115722 430.2312295 -2.19779015 430.24202538 C-9.63929344 430.25115995 -17.08075884 430.25328146 -24.52226534 430.24651595 C-28.3134935 430.24326557 -32.10464909 430.24314001 -35.89587021 430.2518692 C-40.01959806 430.2612657 -44.14316006 430.2549196 -48.26689148 430.24723816 C-49.44591732 430.25238172 -50.62494316 430.25752529 -51.83969706 430.26282471 C-70.79775878 430.18528981 -87.76596638 426.72463986 -102.40625 413.890625 C-116.70127793 399.30186361 -120.16304373 381.05679839 -120.13371277 361.37567139 C-120.13597833 360.24586106 -120.13824388 359.11605072 -120.14057809 357.95200372 C-120.14687938 354.18771848 -120.14609122 350.4234696 -120.14526367 346.65917969 C-120.14771588 343.95138921 -120.15163265 341.24360124 -120.15544128 338.53581238 C-120.16372106 331.95647264 -120.16649491 325.37714187 -120.16705366 318.79779735 C-120.16753008 313.44584728 -120.16959107 308.09390014 -120.17275429 302.74195099 C-120.18155342 287.54345489 -120.1861748 272.34496584 -120.18542381 257.14646718 C-120.18538386 256.32840156 -120.1853439 255.51033595 -120.18530273 254.66748047 C-120.18526185 253.84840754 -120.18522097 253.02933461 -120.18517885 252.18544129 C-120.18477255 238.91651067 -120.19434004 225.64760845 -120.2084411 212.37868604 C-120.22283044 198.73001006 -120.22970989 185.08134791 -120.22884732 171.43266416 C-120.22851625 163.77971016 -120.23122409 156.12678594 -120.24202538 148.47383881 C-120.25116409 141.95749771 -120.25327808 135.4411999 -120.24651595 128.92485514 C-120.24326771 125.60561541 -120.24423519 122.28652577 -120.2518692 118.96728325 C-120.30416843 94.64346203 -119.98494726 73.37555687 -101.921875 54.87109375 C-100.01359603 53.13185524 -98.06689931 51.54600734 -96 50 C-95.4225 49.55269531 -94.845 49.10539062 -94.25 48.64453125 C-81.74284221 39.88412978 -66.70563093 38.82262126 -51.9609375 38.90234375 C-50.95406891 38.9037587 -49.94720032 38.90517365 -48.90982056 38.90663147 C-45.73151527 38.91217569 -42.55328356 38.92471741 -39.375 38.9375 C-37.20442811 38.94252222 -35.0338551 38.94708386 -32.86328125 38.95117188 C-27.57549624 38.96212677 -22.28775338 38.97880824 -17 39 C-17.0314209 37.49433472 -17.0314209 37.49433472 -17.06347656 35.95825195 C-17.13606694 32.22174434 -17.18186811 28.48529863 -17.21972656 24.74829102 C-17.23979892 23.13327542 -17.2670633 21.51833211 -17.30175781 19.90356445 C-17.35047215 17.57745499 -17.37301154 15.25230907 -17.390625 12.92578125 C-17.41127014 12.20787918 -17.43191528 11.48997711 -17.45318604 10.75032043 C-17.4547853 7.14907137 -17.10215266 5.16055452 -15.15136719 2.09448242 C-10.34597141 -2.58385284 -6.00496078 -2.55766848 0 0 Z M-89.78515625 73.984375 C-101.10296754 88.33324632 -98 101.79521316 -98 121 C30.04 121 158.08 121 290 121 C291.33116034 93.16669763 291.33116034 93.16669763 279.1484375 71.0234375 C272.11889727 64.44199546 264.04520509 60.8831946 254.41603756 60.86577892 C253.2723033 60.86132108 252.12856905 60.85686324 250.95017618 60.85227031 C249.06456164 60.85254685 249.06456164 60.85254685 247.14085388 60.85282898 C245.79230568 60.84952905 244.44375847 60.8458032 243.09521252 60.8416875 C239.38576895 60.83167397 235.67634157 60.82795174 231.9668864 60.82529819 C227.96738363 60.82139318 223.96789365 60.81181493 219.96839905 60.80308533 C210.3073439 60.78332579 200.64628772 60.77325505 190.98521742 60.76435754 C186.43451643 60.75997353 181.8838166 60.75460699 177.33311653 60.74936867 C162.20332678 60.7323564 147.07353774 60.71786275 131.94373989 60.71061993 C128.01775041 60.70871006 124.09176094 60.70678973 120.16577148 60.70483398 C119.18999726 60.70435024 118.21422304 60.7038665 117.2088799 60.7033681 C101.40587196 60.69506976 85.60293977 60.66973614 69.7999649 60.63725331 C53.57167554 60.6041685 37.34342465 60.58616985 21.1151014 60.58297569 C12.00503058 60.58081184 2.8950702 60.57208155 -6.21496773 60.54651451 C-13.97442497 60.52478804 -21.73374495 60.51676664 -29.49322916 60.52648129 C-33.45007268 60.53102046 -37.40663311 60.52916239 -41.36343765 60.50971985 C-44.99146047 60.49204737 -48.61899455 60.49311845 -52.24702286 60.50861714 C-54.16936152 60.51210301 -56.09170555 60.49599734 -58.01397234 60.47901267 C-70.82257325 60.57359986 -81.1049102 64.33543628 -89.78515625 73.984375 Z M-98 143 C-98.061875 181.40375 -98.12375 219.8075 -98.1875 259.375 C-98.21481201 271.50040527 -98.24212402 283.62581055 -98.27026367 296.11865234 C-98.28029707 306.98921076 -98.28029707 306.98921076 -98.28633118 317.85977173 C-98.28912574 322.70104091 -98.30036675 327.54221137 -98.31672668 332.38345337 C-98.33732952 338.56226945 -98.34346868 344.74094231 -98.33921683 350.91978955 C-98.3401057 353.18522164 -98.3460394 355.45065882 -98.35764539 357.71606135 C-98.37262161 360.7821906 -98.36895037 363.84776731 -98.36076355 366.91390991 C-98.37387054 368.23555617 -98.37387054 368.23555617 -98.38724232 369.58390236 C-98.3079033 380.67960829 -94.73986975 389.87262849 -87.1484375 397.9765625 C-79.71880304 404.93259477 -71.46287721 408.11856774 -61.32143116 408.13142776 C-59.61236834 408.13718948 -59.61236834 408.13718948 -57.868779 408.1430676 C-56.62171526 408.14220112 -55.37465152 408.14133463 -54.08979797 408.14044189 C-52.74792384 408.14302668 -51.40605047 408.14604016 -50.06417817 408.1494453 C-46.37786411 408.15750521 -42.69156954 408.15930431 -39.00524771 408.16004276 C-35.02896009 408.16189508 -31.05268254 408.16944332 -27.07640076 408.17617798 C-18.38208919 408.18975473 -9.68778225 408.19578501 -0.99346185 408.20018864 C4.4364715 408.20295221 9.86640307 408.20718978 15.29633522 408.21169281 C30.33352261 408.22388469 45.37070858 408.23418412 60.40790081 408.2375679 C61.37015085 408.23778747 62.3324009 408.23800703 63.32381003 408.23823325 C64.28834798 408.23845153 65.25288593 408.23866981 66.24665231 408.2388947 C68.20113734 408.23933817 70.15562238 408.23978473 72.11010742 408.24023438 C73.07959723 408.2404558 74.04908703 408.24067723 75.04795531 408.24090537 C90.75456252 408.24485277 106.46112331 408.26230538 122.16771259 408.2855939 C138.29771803 408.30931696 154.42770018 408.32177019 170.55772334 408.32293582 C179.61239291 408.32385205 188.667002 408.32959127 197.72165489 408.34775543 C205.43242687 408.3631693 213.14311969 408.36826929 220.85390415 408.36001733 C224.78627985 408.35611536 228.71849619 408.35701817 232.6508522 408.37107468 C236.25527598 408.38384085 239.85942109 408.38259249 243.46384463 408.37048396 C245.37592826 408.36761129 247.28801682 408.37944216 249.20006198 408.39190602 C261.3841816 408.32223362 270.97365465 405.58199149 279.9765625 397.1484375 C288.2067382 388.35790941 290.15824015 379.19597986 290.12025452 367.5151825 C290.12111053 366.5576709 290.12196655 365.6001593 290.12284851 364.6136322 C290.12450453 361.39303734 290.11897868 358.17249441 290.11352539 354.9519043 C290.11321909 352.6084153 290.11335249 350.26492622 290.11389065 347.92143726 C290.11411661 341.63981926 290.10831637 335.35822027 290.10128021 329.07660675 C290.09558968 323.18441202 290.09531733 317.29222194 290.09460449 311.40002441 C290.08935499 294.16251375 290.07539387 276.92500664 290.0625 259.6875 C290.041875 221.180625 290.02125 182.67375 290 143 C161.96 143 33.92 143 -98 143 Z " fill="#000000" transform="translate(160,42)"/>
</svg>
