<?xml version="1.0" encoding="UTF-8"?>
<svg version="1.1" xmlns="http://www.w3.org/2000/svg" width="512" height="512">
<path d="M0 0 C1.20049406 -0.00872064 1.20049406 -0.00872064 2.42524052 -0.01761746 C5.12400532 -0.03228879 7.82187076 -0.01829931 10.52062988 -0.00457001 C12.46814186 -0.00917611 14.41565036 -0.01552706 16.36315155 -0.02347898 C21.72802851 -0.04023539 27.09262224 -0.03189731 32.45750046 -0.01953411 C38.23808498 -0.0105117 44.01861961 -0.02443935 49.79919434 -0.0354538 C61.12856818 -0.05327369 72.45783623 -0.04938359 83.78721428 -0.03780323 C92.99190008 -0.02878282 102.19655617 -0.02753887 111.40124512 -0.0318985 C113.3636556 -0.0328179 113.3636556 -0.0328179 115.36571074 -0.03375587 C118.02314568 -0.03503472 120.68058062 -0.03633158 123.33801556 -0.03764623 C147.56630949 -0.04913871 171.79454987 -0.03722043 196.02283466 -0.01627585 C218.1503859 0.00270724 240.27784507 0.00100876 262.40539551 -0.01811981 C287.25373009 -0.0395285 312.102013 -0.04796347 336.95035553 -0.03567076 C339.59821064 -0.03439651 342.24606577 -0.03313903 344.8939209 -0.0318985 C346.84829677 -0.03097285 346.84829677 -0.03097285 348.84215498 -0.03002849 C358.03959861 -0.02656961 367.23700966 -0.03241553 376.43444824 -0.04181671 C387.63759776 -0.05301593 398.84063513 -0.05004045 410.04377174 -0.02869374 C415.76371054 -0.01815534 421.4834621 -0.01410892 427.20339966 -0.02729034 C432.43410968 -0.03916237 437.66445797 -0.03273775 442.89513493 -0.01138014 C444.7927823 -0.00689197 446.69045991 -0.00922955 448.58808804 -0.01888329 C451.15755532 -0.03095757 453.72576562 -0.01866467 456.29516602 0 C457.41356542 -0.014047 457.41356542 -0.014047 458.55455875 -0.02837777 C461.87224772 0.0201566 463.84498033 0.29553813 466.60689878 2.19241381 C468.49159556 5.01936652 468.64867836 6.59810852 468.65094757 9.98194122 C468.66137856 11.10212521 468.67180955 12.22230919 468.68255663 13.37643814 C468.67363374 14.60716175 468.66471086 15.83788536 468.65551758 17.10590363 C468.66487752 19.06690191 468.66487752 19.06690191 468.67442656 21.06751633 C468.69115668 24.69939928 468.68285712 28.33086293 468.67048168 31.96274757 C468.66144844 35.87829332 468.67539231 39.79376588 468.68640137 43.70929718 C468.70420971 51.38104008 468.70033635 59.05262664 468.6887508 66.72437572 C468.67972583 72.95805077 468.67848842 79.19168193 468.68284607 85.42536163 C468.683459 86.31178038 468.68407193 87.19819912 468.68470344 88.11147904 C468.68598231 89.91209 468.68727916 91.71270094 468.6885938 93.51331186 C468.70000638 110.40694217 468.68687529 127.30048573 468.66539234 144.19410181 C468.64752074 158.69697243 468.65062465 173.199715 468.66906738 187.70258331 C468.69046215 204.53479243 468.69890768 221.36692546 468.68661833 238.19914627 C468.6853441 239.99322 468.68408662 241.78729374 468.68284607 243.58136749 C468.68192042 244.90552622 468.68192042 244.90552622 468.68097606 246.25643563 C468.67751897 252.48431232 468.68335922 258.71214084 468.69276428 264.94001007 C468.70397018 272.52731659 468.70097402 280.11445754 468.67964131 287.70174503 C468.66911178 291.5746707 468.66504115 295.44732007 468.67823792 299.32024384 C468.69231207 303.51401276 468.67553453 307.707081 468.65551758 311.9008255 C468.66890191 313.74691092 468.66890191 313.74691092 468.68255663 315.63029099 C468.66691015 317.31056696 468.66691015 317.31056696 468.65094757 319.0247879 C468.65029816 319.99318478 468.64964875 320.96158165 468.64897966 321.95932388 C468.00038336 325.25024206 466.74385287 326.44527068 464.14758301 328.50336456 C461.54704666 329.01117325 461.54704666 329.01117325 458.54144287 329.0223465 C456.82932869 329.04321571 456.82932869 329.04321571 455.08262634 329.06450653 C453.83465775 329.05947617 452.58668915 329.0544458 451.30090332 329.049263 C449.98358719 329.05960068 448.66627106 329.06993835 447.30903625 329.08058929 C443.69980059 329.1084635 440.09090746 329.11185369 436.48157978 329.11086941 C432.70852793 329.11399733 428.93563063 329.13961296 425.16265869 329.16284943 C418.01939336 329.20342237 410.87621934 329.22375312 403.73285651 329.23682332 C395.59982567 329.25268903 387.46695033 329.29110279 379.33400965 329.33141661 C362.60524547 329.41383321 345.87651403 329.46791424 329.14758301 329.50336456 C328.50378963 332.83465486 327.86359539 336.16662745 327.22399902 339.49872589 C327.0434623 340.43267433 326.86292557 341.36662277 326.67691803 342.32887268 C322.42522875 364.52176295 322.77659477 386.69862401 322.69128418 409.20771027 C322.67540592 413.16434103 322.6452266 417.12066146 322.6065197 421.07713127 C322.59491706 422.5717789 322.58893976 424.06648174 322.58883858 425.56117439 C322.58864629 427.63964955 322.57037727 429.71726036 322.54821777 431.79560089 C322.54314713 432.97374863 322.53807648 434.15189636 322.53285217 435.36574554 C322.10750016 438.82979792 321.22281589 440.72343718 319.14758301 443.50336456 C316.87209962 444.64110626 315.6290606 444.63052576 313.10202217 444.63479233 C312.25055835 444.63863347 311.39909453 444.64247462 310.52182877 444.64643216 C309.58099155 444.64556568 308.64015433 444.6446992 307.67080688 444.64380646 C306.17789684 444.64826314 306.17789684 444.64826314 304.654827 444.65280986 C301.29840006 444.66152599 297.94200867 444.66300756 294.58557129 444.66449738 C292.18785526 444.66912345 289.79013996 444.67414782 287.39242554 444.67954254 C280.86355883 444.69268796 274.33469955 444.69915196 267.80582285 444.7035532 C263.73093822 444.70631393 259.65605597 444.71055096 255.58117294 444.71505737 C244.30399029 444.72725101 233.02680954 444.73755029 221.74962044 444.74093246 C221.02759978 444.74115203 220.30557913 444.7413716 219.56167906 444.74159782 C218.47602515 444.74192523 218.47602515 444.74192523 217.36843884 444.74225926 C215.90175382 444.74270273 214.43506881 444.7431493 212.96838379 444.74359894 C211.87708915 444.74393108 211.87708915 444.74393108 210.76374815 444.74426994 C198.97160477 444.74821908 187.17952314 444.76567621 175.38740362 444.78895846 C163.28714573 444.81265671 151.18691886 444.82513361 139.08663738 444.82630038 C132.29011668 444.82721798 125.49367645 444.83299153 118.69717789 444.85112 C112.3065468 444.86810555 105.91602786 444.86978503 99.52537918 444.86098099 C97.17594494 444.86020746 94.82650267 444.86459463 92.47708893 444.87443924 C89.27731656 444.88706387 86.07809418 444.8813336 82.87832642 444.87085724 C81.94195064 444.87891364 81.00557486 444.88697005 80.04082406 444.89527059 C73.80317151 444.84728862 73.80317151 444.84728862 70.60191154 443.16789627 C67.57660535 439.70532371 68.01550859 435.97149826 68.00231934 431.59198761 C67.99896072 430.89227341 67.99560211 430.1925592 67.99214172 429.47164154 C67.98262815 427.15277078 67.98068743 424.8339724 67.97961426 422.51508331 C67.97639847 420.89381125 67.97303416 419.27253947 67.9695282 417.65126801 C67.96353347 414.24413126 67.9616883 410.83701988 67.96228027 407.42987823 C67.96238112 403.10084114 67.94881151 398.77197095 67.93150806 394.44297314 C67.92028166 391.08740776 67.91836441 387.73188112 67.91889 384.3762989 C67.91772266 382.78298945 67.91337238 381.18967858 67.90555763 379.59638786 C67.84751482 366.5232547 68.6901199 353.94630801 72.64758301 341.37836456 C72.86027832 340.66422394 73.07297363 339.95008331 73.29211426 339.21430206 C74.32853895 335.8061816 75.50462062 332.65816496 77.14758301 329.50336456 C76.09157898 329.49971893 75.03557495 329.4960733 73.9475708 329.4923172 C64.00051847 329.4553918 54.05377643 329.39764614 44.1069603 329.31946182 C38.99304664 329.27993588 33.87930651 329.24777253 28.76525879 329.23236847 C23.83079709 329.21723556 18.89681224 329.18285006 13.96256256 329.13505554 C12.07913607 329.12020695 10.19564151 329.11232156 8.31215668 329.11148071 C5.67572562 329.10911973 3.04062176 329.08211133 0.40441895 329.049263 C-0.37601273 329.05429337 -1.1564444 329.05932373 -1.96052551 329.06450653 C-5.28534603 329.00032242 -7.37482816 328.87019736 -10.05270338 326.81333923 C-12.26079623 323.97920023 -12.35339328 322.58617129 -12.35578156 319.0247879 C-12.36621254 317.90460392 -12.37664353 316.78441994 -12.38739061 315.63029099 C-12.37846773 314.39956738 -12.36954484 313.16884377 -12.36035156 311.9008255 C-12.36659153 310.59349331 -12.37283149 309.28616112 -12.37926054 307.9392128 C-12.39599067 304.30732985 -12.3876911 300.6758662 -12.37531567 297.04398155 C-12.36628242 293.12843581 -12.38022629 289.21296325 -12.39123535 285.29743195 C-12.40904369 277.62568905 -12.40517033 269.95410248 -12.39358479 262.2823534 C-12.38455982 256.04867836 -12.3833224 249.81504719 -12.38768005 243.58136749 C-12.38829299 242.69494875 -12.38890592 241.80853 -12.38953742 240.89525008 C-12.3908163 239.09463913 -12.39211315 237.29402819 -12.39342779 235.49341726 C-12.40484037 218.59978696 -12.39170927 201.7062434 -12.37022632 184.81262732 C-12.35235472 170.30975669 -12.35545864 155.80701412 -12.37390137 141.30414581 C-12.39529613 124.4719367 -12.40374167 107.63980367 -12.39145231 90.80758286 C-12.39017808 89.01350913 -12.3889206 87.21943539 -12.38768005 85.42536163 C-12.38706295 84.54258915 -12.38644585 83.65981666 -12.38581005 82.75029349 C-12.38235296 76.52241681 -12.38819321 70.29458828 -12.39759827 64.06671906 C-12.40880416 56.47941253 -12.40580801 48.89227159 -12.38447529 41.30498409 C-12.37394576 37.43205843 -12.36987513 33.55940906 -12.3830719 29.68648529 C-12.39714605 25.49271637 -12.38036852 21.29964813 -12.36035156 17.10590363 C-12.36927445 15.87518002 -12.37819734 14.64445641 -12.38739061 13.37643814 C-12.37695962 12.25625416 -12.36652864 11.13607018 -12.35578156 9.98194122 C-12.35513215 9.01354435 -12.35448274 8.04514748 -12.35381365 7.04740524 C-11.00514052 0.20436138 -6.03731024 -0.07582808 0 0 Z M4.14758301 16.50336456 C4.14758301 113.85336456 4.14758301 211.20336456 4.14758301 311.50336456 C31.86758301 311.50336456 59.58758301 311.50336456 88.14758301 311.50336456 C92.10758301 306.88336456 96.06758301 302.26336456 100.14758301 297.50336456 C119.19148704 280.42951957 142.92761855 269.37602429 168.72619629 269.34564972 C169.67340042 269.340569 170.62060455 269.33548828 171.59651184 269.3302536 C173.64752412 269.31958016 175.69854783 269.3109482 177.74957657 269.30413437 C181.00469169 269.29229321 184.25967724 269.27282556 187.51473999 269.25101471 C196.76796098 269.18958428 206.02116831 269.13545906 215.27453613 269.10199738 C220.94203828 269.08095536 226.60930288 269.0455753 232.27666855 269.00123978 C234.42702295 268.98715443 236.57741937 268.97837436 238.72781754 268.97518539 C261.82600232 268.94484745 261.82600232 268.94484745 281.30383301 257.53461456 C290.04472743 248.53279792 293.06832521 236.16943423 296.84289551 224.49164581 C297.27648364 223.16233354 297.71052608 221.83316938 298.14498901 220.50414276 C299.05696677 217.71169319 299.96609696 214.91834031 300.8729248 212.12421417 C302.28177722 207.78434921 303.69926243 203.44733458 305.11828613 199.11078644 C308.75606119 187.98951997 312.38666146 176.86597535 315.98666382 165.73241425 C316.98308507 162.65634264 317.98707296 159.58278865 318.99371338 156.51004791 C319.62482286 154.57321396 320.24407471 152.63286642 320.86291504 150.69208527 C324.49396799 139.62687956 329.12712425 131.23194808 339.39367676 125.17914581 C348.12415924 121.09345204 357.91981254 121.14944296 367.02258301 124.06586456 C376.29136537 127.99931258 380.74012395 133.6593769 385.01867676 142.63617706 C388.3413819 151.07515828 387.62974838 158.55267819 385.03405762 167.04950714 C384.70111269 168.15868988 384.70111269 168.15868988 384.36144161 169.29028034 C379.72936716 184.60949616 374.69341814 199.80586047 369.7220459 215.01728058 C368.38678095 219.10654464 367.06195078 223.19895727 365.74645996 227.29462433 C358.66833827 249.31792569 351.40412625 270.77177331 341.05358887 291.49481964 C336.07321033 301.07879241 336.07321033 301.07879241 334.14758301 311.50336456 C373.08758301 311.50336456 412.02758301 311.50336456 452.14758301 311.50336456 C452.14758301 214.15336456 452.14758301 116.80336456 452.14758301 16.50336456 C304.30758301 16.50336456 156.46758301 16.50336456 4.14758301 16.50336456 Z M341.17443848 144.51459503 C338.38120665 148.63345122 337.04759336 152.92157034 335.53039551 157.63617706 C335.19650314 158.6451152 334.86261078 159.65405334 334.51860046 160.69356537 C333.42655232 164.00195541 332.34956616 167.31504308 331.27258301 170.62836456 C330.517233 172.92529694 329.76095709 175.22192503 329.00378418 177.51825714 C325.34662401 188.62918281 321.73844531 199.75608011 318.12805176 210.88227081 C317.81416504 211.84884613 317.50027832 212.81542145 317.17687988 213.81128693 C315.70799254 218.33621173 314.24360443 222.86245743 312.79064941 227.39252472 C310.31927445 235.07308177 307.78659287 242.72608274 305.01477051 250.30414581 C304.5634375 251.53947052 304.11210449 252.77479523 303.64709473 254.04755402 C297.75332575 267.63047487 286.85458677 275.927488 273.46008301 281.49555206 C262.49698935 284.83102159 251.71168105 284.78546731 240.3549614 284.77775955 C237.17361903 284.77678369 233.99260487 284.78986234 230.81130981 284.80673981 C221.77287323 284.85268218 212.73447242 284.87758485 203.69592285 284.88422394 C198.14579747 284.88928082 192.59601696 284.91373858 187.04600906 284.94955063 C184.95001943 284.9592507 182.85398177 284.96173507 180.75797653 284.95637894 C153.00038121 284.8887831 130.43417545 291.55098287 110.14758301 311.50336456 C109.37543457 312.26262238 108.60328613 313.02188019 107.80773926 313.80414581 C78.32105834 344.60134588 85.14758301 388.65530915 85.14758301 428.50336456 C157.74758301 428.50336456 230.34758301 428.50336456 305.14758301 428.50336456 C305.64258301 398.30836456 305.64258301 398.30836456 306.14758301 367.50336456 C309.96556102 334.41422177 315.98554917 304.9816596 330.66962147 275.33420849 C336.20729821 264.07442446 340.46375273 252.69769185 344.29211426 240.76508331 C344.91482963 238.86005257 345.53877508 236.95542354 346.16386414 235.05117035 C347.78380149 230.1049803 349.38681262 225.15347328 350.98608398 220.20056915 C352.60911703 215.18531772 354.24949197 210.1757458 355.88781738 205.16547394 C359.07894071 195.39306518 362.26175543 185.6181328 365.39920425 175.82834244 C366.14545498 173.50997569 366.90172354 171.19504253 367.65890503 168.88022614 C368.12253073 167.44327923 368.58581601 166.00622244 369.04870605 164.56903839 C369.45356735 163.32463486 369.85842865 162.08023132 370.27555847 160.79811859 C371.87729321 154.74631414 371.23447223 150.71894645 368.52258301 145.19086456 C365.14705025 141.37118276 361.95432344 138.99019742 356.94055176 138.12055206 C350.29350557 137.78083931 345.88325721 139.71488596 341.17443848 144.51459503 Z " fill="#000000" transform="translate(27.8524169921875,33.49663543701172)"/>
<path d="M0 0 C14.46191058 10.19141772 24.19679973 24.34709048 28.33911133 41.62475586 C31.44143809 59.53855827 28.69705746 77.68103016 18.73828125 92.9296875 C8.19778179 107.88248906 -6.12973654 118.4124468 -24.26171875 121.9296875 C-25.37546875 122.1565625 -26.48921875 122.3834375 -27.63671875 122.6171875 C-47.69731119 124.34654892 -65.63936631 119.89341671 -81.26171875 106.9296875 C-94.46111499 95.63734688 -102.3394421 80.15250963 -104.26171875 62.9296875 C-105.55352063 42.23601504 -99.43280247 25.2643408 -86.28515625 9.5703125 C-64.1113942 -13.9722003 -26.76424342 -16.87704659 0 0 Z M-72.94921875 21.3671875 C-82.71152582 32.18487912 -87.67180629 44.24022673 -87.47265625 58.9375 C-86.51273501 72.55416058 -80.30115116 84.74134884 -70.26171875 93.9296875 C-59.00754065 102.56701264 -46.42664601 106.93364497 -32.26171875 105.9296875 C-17.53419226 103.51938355 -6.29918481 96.7002974 3.05078125 85.0546875 C11.49910746 73.10222599 12.83313445 61.13294655 11.73828125 46.9296875 C9.28324462 34.12141066 1.9505926 22.8327133 -8.609375 15.2421875 C-30.60329237 1.29992609 -53.97025005 4.15370426 -72.94921875 21.3671875 Z " fill="#000000" transform="translate(258.26171875,168.0703125)"/>
</svg>
