<?xml version="1.0" encoding="UTF-8"?>
<svg version="1.1" xmlns="http://www.w3.org/2000/svg" width="512" height="512">
<path d="M0 0 C6.77575529 4.7964246 12.27873099 10.28667214 17.69921875 16.53515625 C20.88919813 19.95260444 24.45234783 22.75729598 28.11328125 25.65234375 C31.19344029 28.15731747 34.09910789 30.79265692 37 33.5 C41.67957436 37.85964893 46.51421715 41.95245584 51.52734375 45.9296875 C54 48 54 48 55.90332031 50.59399414 C60.65305648 54.28436389 65.16867571 53.65171879 71.01953125 53.56640625 C72.19206955 53.57204086 73.36460785 53.57767548 74.57267761 53.58348083 C78.31969104 53.59994126 82.06552744 53.5843868 85.8125 53.5625 C89.54865296 53.54588203 93.28402198 53.53685554 97.02018738 53.55223083 C99.34303544 53.5614753 101.66604933 53.55246644 103.98872375 53.52259827 C111.8174822 53.54893129 117.18962745 54.66094531 123.2421875 59.96484375 C123.78101563 60.61582031 124.31984375 61.26679688 124.875 61.9375 C125.70644531 62.91009766 125.70644531 62.91009766 126.5546875 63.90234375 C131.5102692 71.09463394 130 75.3848956 130 85 C151.12 85 172.24 85 194 85 C194 80.38 194 75.76 194 71 C196.27879604 64.25856172 200.1440835 60.0348028 206 56 C209.60759974 54.30060085 212.32891027 53.77391148 216.30249023 53.88745117 C217.3380455 53.90954147 218.37360077 53.93163177 219.4405365 53.95439148 C221.10772484 53.99823723 221.10772484 53.99823723 222.80859375 54.04296875 C225.18942203 54.06653557 227.57028702 54.08660381 229.95117188 54.10351562 C233.68538531 54.13603808 237.41446454 54.18681326 241.1472168 54.2980957 C257.45378495 55.25266154 257.45378495 55.25266154 271.61561584 48.48921204 C273.79140389 46.29006271 275.77244437 43.99960423 277.68292236 41.56785583 C279.6962347 39.17119872 282.08933354 37.33798461 284.5625 35.4375 C289.38380509 31.57902951 293.91402247 27.47487887 298.41040039 23.24780273 C300.94516954 20.86988118 303.49735794 18.56732217 306.1953125 16.375 C308.51631113 14.40958612 310.23025532 12.63855296 312.0625 10.25 C321.96162879 -1.28444743 337.42377703 -8.89126806 352.51171875 -10.22143555 C366.40128816 -10.83924739 377.89288332 -10.27529419 388.93359375 -0.97265625 C397.15306286 6.87390689 402.00203419 15.75260033 402.50793457 27.25328064 C402.53141312 29.56058225 402.53346606 31.86817075 402.51757812 34.17553711 C402.52809204 36.08024025 402.52809204 36.08024025 402.53881836 38.02342224 C402.55689301 41.4740386 402.55005043 44.92417103 402.53730202 48.37479472 C402.52708894 52.00732661 402.53659073 55.6398204 402.54284668 59.27235413 C402.55010008 65.37069035 402.5405974 71.46883206 402.52148438 77.56713867 C402.4997297 84.5887964 402.50676583 91.60998917 402.52879 98.63163561 C402.54702196 104.68978438 402.54946421 110.74779428 402.53903532 116.80596167 C402.53284167 120.41125025 402.53184919 124.01632131 402.54518127 127.62159538 C402.55902798 131.64636012 402.53976391 135.67034086 402.51757812 139.69506836 C402.52567505 140.86894104 402.53377197 142.04281372 402.54211426 143.2522583 C402.40213689 157.04321587 397.2626144 171.05417264 387.8125 181.31640625 C376.57611096 191.75365555 363.3114236 198.27818452 347.94360352 198.31884766 C346.62533821 198.33391609 346.62533821 198.33391609 345.28044128 198.34928894 C342.39660248 198.38000023 339.51285601 198.39712243 336.62890625 198.4140625 C334.62108065 198.43278385 332.61326284 198.45235798 330.60545349 198.4727478 C325.33660482 198.52397279 320.06773068 198.56365004 314.79876709 198.60089111 C309.41591132 198.64099122 304.03316067 198.69205613 298.65039062 198.7421875 C288.10033436 198.83883271 277.55021862 198.92327392 267 199 C259.8551173 215.61207756 252.76695744 232.24461373 245.8125 248.9375 C243.25940487 255.0632319 240.70095324 261.1866334 238.12994385 267.30487061 C237.3465589 269.17339159 236.56612084 271.04314976 235.7880249 272.91387939 C234.57782693 275.82183323 233.35816907 278.72566394 232.13671875 281.62890625 C231.76666214 282.52399399 231.39660553 283.41908173 231.01533508 284.34129333 C230.66440292 285.17040726 230.31347076 285.99952118 229.9519043 286.85375977 C229.64665329 287.58377701 229.34140228 288.31379425 229.02690125 289.06593323 C227.9211088 291.14858376 226.80096358 292.48567119 225 294 C221.92911534 294.67864854 219.08596443 294.57271052 216 294 C213.375 292.0625 213.375 292.0625 212 289 C211.85976 282.43742662 213.9824621 276.77105152 216.5859375 270.859375 C216.95502228 269.99456009 217.32410706 269.12974518 217.70437622 268.23872375 C218.91690008 265.40427507 220.14587292 262.57728336 221.375 259.75 C222.2258431 257.76932835 223.07543286 255.78811787 223.92382812 253.80639648 C225.69944636 249.66106639 227.48052888 245.5181424 229.26464844 241.37646484 C232.00186775 235.0101027 234.69780954 228.62681314 237.3828125 222.23828125 C237.81500092 221.21042511 238.24718933 220.18256897 238.69247437 219.12356567 C240.37457792 215.12196126 242.05592755 211.12004082 243.73651123 207.11779785 C244.89530654 204.36025782 246.05672194 201.60383526 247.21875 198.84765625 C247.55858917 198.03710281 247.89842834 197.22654938 248.24856567 196.39143372 C253.09957622 184.90042378 253.09957622 184.90042378 256 182 C258.79776909 181.79268888 261.49866898 181.70951978 264.29833984 181.71289062 C265.15717773 181.70605759 266.01601563 181.69922455 266.90087891 181.69218445 C268.7713292 181.67856947 270.64181702 181.66953356 272.51231003 181.66447449 C275.48153365 181.65619255 278.45044861 181.63568798 281.41958618 181.61193848 C287.73801152 181.56362269 294.05646833 181.53081333 300.375 181.5 C307.6644189 181.46423481 314.9536904 181.42199879 322.24296951 181.36405945 C325.15193986 181.34415371 328.06079424 181.33570007 330.96981812 181.32775879 C347.15493528 181.23644125 361.70988035 180.60585004 374.1796875 169.01953125 C384.1015398 158.01181099 385.15164296 145.09157728 385.14526367 130.95336914 C385.14862228 129.87425766 385.1519809 128.79514618 385.15544128 127.68333435 C385.1649014 124.13392978 385.16689175 120.58457262 385.16796875 117.03515625 C385.17118419 114.55708294 385.17454848 112.07900981 385.17805481 109.60093689 C385.18403331 104.41372233 385.18589597 99.2265244 385.18530273 94.03930664 C385.18520106 87.40404205 385.19886506 80.76888432 385.21607494 74.13364506 C385.2272103 69.01801568 385.22922149 63.90241203 385.22869301 58.78677177 C385.22987035 56.34084135 385.23427828 53.89491021 385.24202538 51.44899178 C385.2518584 48.02459402 385.24893428 44.60042712 385.24291992 41.17602539 C385.24853943 40.17366852 385.25415894 39.17131165 385.25994873 38.13858032 C385.21868451 28.85967787 384.49085654 20.44547756 377.58203125 13.59375 C372.68698609 9.2649697 367.53691363 7.11610859 361 7 C342.75213794 8.31912256 331.27886747 16.49914484 318.93774414 29.09741211 C314.80155543 33.2913067 310.44247926 37.02269527 305.82421875 40.68359375 C302.53612071 43.38047084 299.42220902 46.22627023 296.3125 49.125 C295.48045044 49.90000854 295.48045044 49.90000854 294.6315918 50.69067383 C293.56552012 51.68400442 292.49951777 52.67740941 291.43359375 53.67089844 C289.02098634 55.90765504 286.57996256 58.1037855 284.0632782 60.22286987 C282.63456849 61.45343736 281.24291815 62.72786276 279.88362122 64.03469849 C273.17903672 70.09785977 268.26969348 71.13456401 259.38671875 70.9296875 C258.21414017 70.93582062 257.04156158 70.94195374 255.83345032 70.94827271 C252.11700671 70.96112043 248.40364738 70.92034534 244.6875 70.875 C240.95423707 70.86152686 237.22127081 70.85923963 233.48799133 70.86599731 C231.17300176 70.86677591 228.85795822 70.8540369 226.5431366 70.82614136 C225.49467056 70.82018951 224.44620453 70.81423767 223.3659668 70.80810547 C222.4479277 70.7972995 221.52988861 70.78649353 220.58403015 70.77536011 C217.69820096 71.02623658 215.58634767 71.70747294 213 73 C211.60064987 75.79870027 211.74734595 77.90498792 212 81 C213.85342775 83.55949546 214.93756393 83.97918798 218 85 C219.78246603 85.10782465 221.56861683 85.15876819 223.35424805 85.17700195 C224.44936203 85.18983719 225.54447601 85.20267242 226.67277527 85.21589661 C228.44930229 85.22697701 228.44930229 85.22697701 230.26171875 85.23828125 C232.09135918 85.25038887 232.09135918 85.25038887 233.95796204 85.26274109 C236.54284239 85.2765823 239.12774103 85.28730428 241.71264648 85.29516602 C245.65448958 85.31235604 249.59548913 85.35624132 253.53710938 85.40039062 C256.049473 85.41051963 258.56184376 85.41903508 261.07421875 85.42578125 C262.83556404 85.45204338 262.83556404 85.45204338 264.63249207 85.47883606 C275.23270228 85.45091965 281.19161186 81.93516329 289.3125 75.5625 C295.30629575 70.95694422 301.42023542 66.60036147 307.6875 62.375 C313.23385363 58.62968453 318.67228095 54.81973803 323.9375 50.6875 C340.81841261 37.5650603 340.81841261 37.5650603 346.5 37.25 C350 38 350 38 352.5 39.5 C354.18959029 42.31598381 354.5184812 44.63506136 354.62890625 47.90234375 C352.85077944 53.83311454 345.59333428 57.632671 340.75 61.0625 C339.56180664 61.91231445 339.56180664 61.91231445 338.34960938 62.77929688 C332.38947538 67.03518287 326.40345992 71.25493028 320.4128418 75.46777344 C315.09951329 79.2084948 309.8256218 83.00153801 304.5625 86.8125 C302.35672078 88.40695723 300.1506426 90.00099926 297.94433594 91.59472656 C296.23528927 92.82994412 294.52768509 94.067157 292.8203125 95.3046875 C291.95148438 95.92601562 291.08265625 96.54734375 290.1875 97.1875 C289.47980469 97.69667969 288.77210938 98.20585937 288.04296875 98.73046875 C282.5127884 102.1670053 277.76473428 102.28912443 271.41716003 102.26742554 C269.96139044 102.27422221 269.96139044 102.27422221 268.47621137 102.28115618 C265.22131594 102.29382531 261.9665873 102.29217817 258.71166992 102.29052734 C256.37911259 102.29651102 254.04655725 102.3033162 251.71400452 102.31088257 C245.37511206 102.32856623 239.03627358 102.33323896 232.69735885 102.33451414 C227.40659238 102.33641252 222.1158385 102.34376937 216.82507688 102.35085833 C205.05571567 102.36650227 193.28637787 102.37219544 181.51700719 102.37084763 C180.81103105 102.37076772 180.10505491 102.3706878 179.37768555 102.37060547 C178.67084522 102.37052371 177.9640049 102.37044195 177.23574517 102.37035771 C165.78272615 102.36954496 154.32983869 102.38868028 142.87685772 102.4168822 C131.11096231 102.44562551 119.34513102 102.45942169 107.57919961 102.45769465 C100.97595445 102.45718459 94.37285816 102.46289236 87.76964378 102.48405075 C81.55864822 102.50340864 75.34794391 102.50357408 69.1369381 102.48901749 C66.85852127 102.48692526 64.58008633 102.49165482 62.30170059 102.5037384 C59.18872152 102.51917775 56.07674835 102.50989065 52.96379089 102.49447632 C52.06445853 102.50476344 51.16512617 102.51505057 50.23854131 102.52564943 C42.55012322 102.44165428 37.04230914 99.74407629 30.9140625 95.22265625 C30.22046631 94.71597412 29.52687012 94.20929199 28.81225586 93.68725586 C28.09046143 93.15108643 27.36866699 92.61491699 26.625 92.0625 C25.03524816 90.89831199 23.44540172 89.73425314 21.85546875 88.5703125 C21.05028809 87.97766602 20.24510742 87.38501953 19.41552734 86.77441406 C15.60440982 83.97481813 11.77160736 81.20548544 7.9375 78.4375 C7.19830322 77.90302246 6.45910645 77.36854492 5.69750977 76.81787109 C1.23297818 73.59459722 -3.24960752 70.39847253 -7.75146484 67.22753906 C-9.190866 66.2134959 -10.62873492 65.19727372 -12.06494141 64.17871094 C-15.16314812 61.98301573 -18.26750911 59.80975338 -21.4375 57.71875 C-29.42628443 52.30967721 -29.42628443 52.30967721 -30.875 48.375 C-31.02417795 44.34719527 -30.22173142 42.33259713 -28 39 C-24.71412919 37.3570646 -21.54139903 37.39351256 -18 38 C-14.72598858 39.54883664 -11.90801325 41.60381025 -9 43.75 C-8.17258301 44.33837646 -7.34516602 44.92675293 -6.49267578 45.53295898 C-3.97748043 47.33245422 -1.48523574 49.1594005 1 51 C1.71317383 51.52803223 2.42634766 52.05606445 3.16113281 52.60009766 C5.80758059 54.56873464 8.44609193 56.54725802 11.07348633 58.54125977 C17.92075096 63.73552986 24.93826278 68.67763015 31.98681641 73.59375 C33.94710726 74.96305334 35.90178842 76.34003724 37.85546875 77.71875 C39.02843611 78.54196558 40.20160141 79.36489922 41.375 80.1875 C42.39335937 80.90292969 43.41171875 81.61835938 44.4609375 82.35546875 C48.22682687 84.79460633 51.01214236 85.12806826 55.40185547 85.14526367 C56.50665253 85.15164352 57.61144958 85.15802338 58.74972534 85.16459656 C60.54036911 85.16626579 60.54036911 85.16626579 62.3671875 85.16796875 C64.20750046 85.17296135 64.20750046 85.17296135 66.08499146 85.17805481 C68.68247095 85.1831216 71.27995697 85.18546321 73.87744141 85.18530273 C77.8519972 85.18748736 81.82627466 85.20564092 85.80078125 85.22460938 C88.32291572 85.2275437 90.8450515 85.22952823 93.3671875 85.23046875 C95.15175858 85.24124702 95.15175858 85.24124702 96.97238159 85.25224304 C98.08348297 85.24916641 99.19458435 85.24608978 100.33935547 85.24291992 C101.31403778 85.24434494 102.28872009 85.24576996 103.29293823 85.24723816 C106.22820979 84.97915741 108.37106259 84.32097067 111 83 C112.39935013 80.20129973 112.25265405 78.09501208 112 75 C110.14657225 72.44050454 109.06243607 72.02081202 106 71 C104.29368 70.92869164 102.58462656 70.91595301 100.87695312 70.9375 C99.83156372 70.946604 98.78617432 70.95570801 97.70910645 70.96508789 C96.57791382 70.97660889 95.44672119 70.98812988 94.28125 71 C91.88020826 71.00115908 89.4791642 70.99977448 87.078125 70.99609375 C83.2965957 70.99168751 79.51753845 70.99976109 75.73632812 71.05126953 C52.00795004 71.34709577 52.00795004 71.34709577 45.15625 65.78125 C42.85742188 63.3125 42.85742188 63.3125 41 61 C39.91403426 59.99047654 38.8122733 58.99734742 37.6875 58.03125 C36.800625 57.1959375 35.91375 56.360625 35 55.5 C31.35814312 52.10360852 27.64668075 48.85334455 23.75 45.75 C18.90595566 41.84804847 14.34683144 37.69443214 9.8125 33.4375 C9.11576172 32.78362305 8.41902344 32.12974609 7.70117188 31.45605469 C4.27999747 28.22312672 0.96333862 24.94142529 -2.25 21.5 C-11.09282519 12.55978686 -23.16858257 7.93303852 -35.55078125 7 C-42.30851978 7 -47.72788105 8.68644813 -53 13 C-61.0262664 21.09315195 -61.15012261 29.97670373 -61.14526367 40.77197266 C-61.14862228 41.84597321 -61.1519809 42.91997375 -61.15544128 44.02651978 C-61.16492896 47.57237917 -61.16689353 51.1181912 -61.16796875 54.6640625 C-61.17118362 57.13780741 -61.17454787 59.61155212 -61.17805481 62.08529663 C-61.18404117 67.27187541 -61.18589529 72.45843754 -61.18530273 77.64501953 C-61.18520132 84.26883622 -61.19883447 90.89254522 -61.21607494 97.51633644 C-61.22723342 102.62780236 -61.22922073 107.7392426 -61.22869301 112.85071945 C-61.22986806 115.29137924 -61.23426298 117.7320398 -61.24202538 120.17268753 C-61.25189986 123.59908671 -61.24891754 127.02525673 -61.24291992 130.45166016 C-61.25134918 131.94372986 -61.25134918 131.94372986 -61.25994873 133.46594238 C-61.19815966 147.46350302 -58.7861633 159.66832316 -49.01953125 170.1796875 C-38.65329176 179.52333857 -26.41266378 181.16137236 -13.0012207 181.12597656 C-12.14001617 181.1278447 -11.27881165 181.12971283 -10.39151001 181.13163757 C-8.53585926 181.13561746 -6.68020369 181.13771418 -4.82454872 181.13809967 C0.14893524 181.14243244 5.12229219 181.17351443 10.09570312 181.19921875 C16.40962725 181.22963168 22.72334915 181.25231103 29.03735352 181.25048828 C34.15613042 181.24970202 39.27430399 181.27301622 44.39292336 181.3123703 C46.33973288 181.32283373 48.28661199 181.32435182 50.23343468 181.31671906 C52.95275938 181.30711319 55.67024577 181.32824372 58.3894043 181.35644531 C59.59191078 181.34115028 59.59191078 181.34115028 60.81871033 181.32554626 C64.84629757 181.40046329 66.74712471 181.7982799 69.93447876 184.34085083 C72.30836381 187.39698714 73.6879837 190.26191633 75.13671875 193.8515625 C75.41373123 194.52683487 75.69074371 195.20210724 75.97615051 195.89784241 C76.89142531 198.13573776 77.78918595 200.38024911 78.6875 202.625 C79.33322729 204.2112673 79.98039503 205.79694889 80.62890625 207.38208008 C81.66039932 209.90434518 82.69070152 212.42704759 83.71640015 214.95167542 C87.51462312 224.29896038 91.4216229 233.60005096 95.32974243 242.90179443 C97.88642918 248.98778499 100.43838686 255.07569928 102.9765625 261.16943359 C104.32418837 264.40105019 105.69609925 267.62079856 107.0859375 270.83447266 C107.57821838 271.98844292 107.57821838 271.98844292 108.08044434 273.16572571 C108.69302999 274.6017019 109.31361185 276.03430629 109.94396973 277.46257019 C111.63784264 281.46656365 112.44226459 284.656946 112 289 C110.5625 291.875 110.5625 291.875 108 294 C104.86833267 294.71252614 102.08870998 294.92443785 99 294 C95.23467343 290.01374989 93.36538637 285.68656658 91.33984375 280.6875 C90.99715454 279.86132675 90.65446533 279.0351535 90.3013916 278.1839447 C89.17275298 275.45893297 88.05530253 272.72947232 86.9375 270 C86.15143551 268.09799019 85.3643916 266.19638488 84.57641602 264.29516602 C83.33979451 261.31137238 82.10370969 258.3273708 80.87046814 255.34217834 C76.53635723 244.85442491 72.12841263 234.39819452 67.70925903 223.94604492 C66.44867082 220.96392632 65.1898667 217.9810598 63.93139648 214.99804688 C63.16137448 213.17444585 62.39127758 211.35087644 61.62109375 209.52734375 C61.26776978 208.68977036 60.9144458 207.85219696 60.55041504 206.98924255 C58.85970188 202.95624671 58.85970188 202.95624671 57 199 C55.89912048 198.99635437 54.79824097 198.99270874 53.66400146 198.98895264 C43.24853504 198.95188263 32.83336099 198.89397953 22.41811752 198.81609726 C17.06454051 198.77672295 11.71112552 198.74448534 6.35742188 198.72900391 C1.1830354 198.71377099 -3.99090535 198.67920845 -9.16509247 198.63169098 C-11.13122414 198.61694533 -13.09741948 198.60896293 -15.06360626 198.60811615 C-25.687222 198.59894609 -35.12409623 198.45138535 -45 194 C-46.09957031 193.50757813 -47.19914062 193.01515625 -48.33203125 192.5078125 C-63.02671512 184.31581551 -71.30161973 172.91865881 -77.04483032 157.12713623 C-78.58592628 151.61517609 -78.29484593 145.9414871 -78.29052734 140.26269531 C-78.29724457 138.99187103 -78.30396179 137.72104675 -78.31088257 136.41171265 C-78.3284774 132.94040543 -78.33323524 129.46919696 -78.33451414 125.99784946 C-78.33594024 123.82394205 -78.34021855 121.65005938 -78.34550858 119.47615814 C-78.36398879 111.87731852 -78.3721819 104.27854885 -78.37060547 96.6796875 C-78.36940529 89.6206337 -78.39048824 82.56188624 -78.4220928 75.5029099 C-78.44833484 69.42280252 -78.45896943 63.34279469 -78.45769465 57.26263118 C-78.45718725 53.63995622 -78.4627462 50.01755364 -78.48405075 46.39493561 C-78.50720249 42.34804203 -78.4978641 38.30182488 -78.48583984 34.25488281 C-78.49707886 33.07113068 -78.50831787 31.88737854 -78.51989746 30.66775513 C-78.43144813 18.90463127 -75.18120593 9.57001572 -67 1 C-48.57095056 -16.5929489 -20.27420712 -12.3683682 0 0 Z " fill="#000000" transform="translate(94,202)"/>
<path d="M0 0 C1.41801008 1.16557312 2.76593942 2.32843942 4.0625 3.625 C4.64644161 10.74908759 4.64644161 10.74908759 2.4375 14.0625 C-0.59556674 16.05793864 -2.28221819 16.47426673 -5.9375 16.625 C-9.07567914 15.5359429 -11.94272288 13.98747716 -14.875 12.4375 C-35.14731944 2.31110725 -56.04802035 0.08199863 -77.75 6.8125 C-98.98802655 14.50678504 -114.76616233 29.49906172 -124.4453125 49.78515625 C-133.09228298 70.67768672 -132.95422044 92.80953042 -124.3125 113.66796875 C-115.50310361 132.61317633 -100.55005382 147.23245907 -81.234375 155.234375 C-59.67283943 163.03322829 -37.63748996 161.80813712 -16.87890625 152.2109375 C2.2833333 142.27102406 16.08850612 125.96686356 23.0625 105.625 C25.75430875 96.48974062 26.37959795 88.10622885 26.0625 78.625 C25.98583069 76.27125219 25.92278039 73.91701141 25.875 71.5625 C25.84019531 70.54027344 25.80539062 69.51804687 25.76953125 68.46484375 C26.11367496 65.12894404 27.0869982 63.3084298 29.0625 60.625 C32.20121188 59.05564406 34.60105822 59.27298897 38.0625 59.625 C42.044472 62.6547613 43.36694327 64.77308948 44.0625 69.625 C45.90453965 98.57851417 39.47675838 123.64571412 20.4609375 146.00390625 C3.48223557 164.55880689 -19.27186333 176.87980711 -44.6484375 178.0078125 C-72.36247302 178.69981948 -96.94777537 172.27533026 -117.58984375 152.87719727 C-119.05085053 151.47126434 -120.49722203 150.05213859 -121.9375 148.625 C-122.75476563 147.820625 -123.57203125 147.01625 -124.4140625 146.1875 C-141.72791061 128.10018101 -149.34975715 102.9073419 -149.0859375 78.29296875 C-148.18788657 56.10165756 -140.11252868 34.0623762 -124.9375 17.625 C-124.05449219 16.65046875 -123.17148438 15.6759375 -122.26171875 14.671875 C-92.59794007 -17.06786796 -36.20497602 -26.79941285 0 0 Z " fill="#000000" transform="translate(307.9375,30.375)"/>
<path d="M0 0 C0.66 -0.0103125 1.32 -0.020625 2 -0.03125 C4.95613104 0.75397231 6.09984561 2.12505125 8 4.5 C8.45410156 7.52441406 8.45410156 7.52441406 8.390625 11.015625 C8.37128906 12.89121094 8.37128906 12.89121094 8.3515625 14.8046875 C8.31804687 16.10664063 8.28453125 17.40859375 8.25 18.75 C8.23195313 20.06742187 8.21390625 21.38484375 8.1953125 22.7421875 C8.14816271 25.99552308 8.08236044 29.24739625 8 32.5 C8.87981537 32.49111755 9.75963074 32.48223511 10.66610718 32.4730835 C18.99227569 32.3926504 27.31831211 32.33189037 35.64478111 32.29275131 C39.92465277 32.27195241 44.20420109 32.2437773 48.48388672 32.19824219 C52.62066411 32.15450733 56.75713218 32.13080513 60.89412308 32.12049103 C62.46566252 32.11314888 64.03718667 32.09881234 65.60859299 32.07707977 C76.79414583 31.92865618 86.86035458 32.58676617 95.36230278 40.73539734 C100.28335776 46.03778572 102.81250371 51.95549707 104.44238281 58.90917969 C104.64435902 59.72150433 104.84633522 60.53382896 105.05443192 61.3707695 C105.72045816 64.0766073 106.36235543 66.78734115 107 69.5 C107.22638657 70.45129288 107.45277313 71.40258575 107.6860199 72.38270569 C109.47116379 79.89711013 111.20021926 87.42396478 112.921875 94.953125 C113.47265659 97.35304895 114.02362447 99.75293015 114.57476807 102.152771 C115.71962045 107.14094917 116.8623179 112.12961449 118.00341797 117.11865234 C119.46422213 123.50471671 120.93039863 129.8895337 122.39814377 136.27400589 C123.53263493 141.21147032 124.66437033 146.14956322 125.7952652 151.08785248 C126.33506129 153.44352085 126.87569638 155.79899713 127.41719818 158.15427399 C128.17122597 161.43587594 128.92154869 164.71830368 129.67089844 168.00097656 C129.8932164 168.96519028 130.11553436 169.92940399 130.34458923 170.9228363 C133.41611763 184.42998322 133.41611763 184.42998322 131.6875 188.875 C130 191.5 130 191.5 128 192.5 C120.6987155 193.08881327 120.6987155 193.08881327 117.96600342 190.78593445 C115.80169785 188.26942781 115.2052631 186.70751964 114.47363281 183.49926758 C114.22901306 182.45945236 113.98439331 181.41963715 113.73236084 180.34831238 C113.47521301 179.18793961 113.21806519 178.02756683 112.953125 176.83203125 C112.51882172 174.95581841 112.51882172 174.95581841 112.07574463 173.04170227 C111.41089271 170.16716888 110.75622068 167.29053408 110.1081543 164.41217041 C108.89445613 159.02195398 107.65899232 153.6367957 106.42382812 148.25146484 C104.51282651 139.90809692 102.60891379 131.56313727 100.7109375 123.21679688 C100.46838478 122.15030348 100.22583206 121.08381008 99.97592926 119.9849987 C98.72876408 114.49921682 97.48365379 109.01297643 96.24121094 103.52612305 C95.01894627 98.12941049 93.79124726 92.73395851 92.56006622 87.33927345 C92.09715122 85.30607224 91.63627177 83.27240639 91.17754364 81.23825645 C90.53982942 78.41114296 89.89519898 75.58568775 89.24902344 72.76049805 C89.06509033 71.93714966 88.88115723 71.11380127 88.69165039 70.26550293 C86.69208139 60.97403256 86.69208139 60.97403256 81.75 53.125 C76.21520025 49.85443651 70.61012483 49.20626799 64.29223633 49.24462891 C63.55636795 49.24100845 62.82049957 49.237388 62.06233215 49.23365784 C60.47732081 49.22680593 58.89228609 49.22425044 57.30726051 49.22560501 C54.79767169 49.22657579 52.28850464 49.21356595 49.77897644 49.19662476 C42.64866295 49.15050017 35.51839723 49.12572639 28.38793945 49.11914062 C24.01601717 49.11413041 19.64454255 49.0899162 15.27277184 49.05381393 C13.60982638 49.0440143 11.94681941 49.0416849 10.28385353 49.04698563 C7.96193977 49.05404503 5.641367 49.03680276 3.31958008 49.01416016 C2.63430237 49.02233261 1.94902466 49.03050507 1.24298096 49.03892517 C-2.02097125 48.98225601 -3.76533974 48.67206519 -6.42512512 46.72177124 C-8.11183811 44.34222322 -8.50433774 43.30680958 -8.51757812 40.4375 C-8.53018677 39.64988281 -8.54279541 38.86226563 -8.55578613 38.05078125 C-8.54768921 37.20902344 -8.53959229 36.36726563 -8.53125 35.5 C-8.5350769 34.62730469 -8.53890381 33.75460937 -8.54284668 32.85546875 C-8.5455649 31.01300908 -8.53820994 29.17051076 -8.52148438 27.328125 C-8.50007248 24.50954066 -8.52128801 21.69350515 -8.546875 18.875 C-8.54423171 17.08332771 -8.53910669 15.29165701 -8.53125 13.5 C-8.53934692 12.65824219 -8.54744385 11.81648438 -8.55578613 10.94921875 C-8.46235399 5.11284382 -8.46235399 5.11284382 -6.09179688 1.97070312 C-3.8272647 0.37855305 -2.7390083 -0.042797 0 0 Z " fill="#000000" transform="translate(104,303.5)"/>
<path d="M0 0 C0.66 -0.0103125 1.32 -0.020625 2 -0.03125 C5.05368756 0.77988576 6.09111769 1.96980288 8 4.5 C8.60114553 7.49736221 8.56057764 10.45109277 8.53125 13.5 C8.5350769 14.37269531 8.53890381 15.24539063 8.54284668 16.14453125 C8.5455649 17.98699092 8.53820994 19.82948924 8.52148438 21.671875 C8.50007248 24.49045934 8.52128801 27.30649485 8.546875 30.125 C8.54423171 31.91667229 8.53910669 33.70834299 8.53125 35.5 C8.53934692 36.34175781 8.54744385 37.18351562 8.55578613 38.05078125 C8.53687317 39.23220703 8.53687317 39.23220703 8.51757812 40.4375 C8.51439575 41.12714844 8.51121338 41.81679688 8.50793457 42.52734375 C7.73252861 45.53877375 6.49533247 46.66981506 4 48.5 C0.69429016 48.99879456 0.69429016 48.99879456 -3.2878418 48.99829102 C-4.01524063 49.00380981 -4.74263947 49.00932861 -5.49208069 49.01501465 C-7.06893403 49.0243269 -8.64586259 49.02444614 -10.22272301 49.01642036 C-12.72526291 49.00377464 -15.22670212 49.01509605 -17.72920227 49.03245544 C-22.14645867 49.05917425 -26.56344546 49.06475109 -30.98077393 49.06335449 C-38.03268017 49.06112826 -45.08425012 49.07546149 -52.13602638 49.11894035 C-54.58937638 49.12871758 -57.0421908 49.12009009 -59.49552917 49.11024475 C-70.70229242 48.79587035 -70.70229242 48.79587035 -81 52.5 C-90.17768239 62.30773788 -91.29389687 81.18319295 -94.14631844 93.90916443 C-94.98748454 97.65986838 -95.83432744 101.40925053 -96.682724 105.1583252 C-99.0916275 115.80717015 -101.49172442 126.45798598 -103.88500977 137.11035156 C-105.3545473 143.65085349 -106.83230487 150.18945534 -108.31439018 156.72712708 C-108.87588486 159.21114889 -109.43443949 161.69583721 -109.98997688 164.18119812 C-110.76497814 167.6478284 -111.54950871 171.11217452 -112.33618164 174.57617188 C-112.56223083 175.59858978 -112.78828003 176.62100769 -113.0211792 177.67440796 C-114.15809977 182.63464816 -115.3088456 187.10901354 -118 191.5 C-121.20010301 193.1000515 -124.52710317 192.99514569 -128 192.5 C-130.65684508 190.66064571 -131.70161459 189.4181703 -132.69638062 186.35714722 C-133.10301829 182.53056779 -132.29804491 179.17135105 -131.42041016 175.47314453 C-131.23994141 174.67674561 -131.05947266 173.88034668 -130.87353516 173.05981445 C-130.27168511 170.41517178 -129.65541983 167.77410851 -129.0390625 165.1328125 C-128.60991123 163.26060748 -128.18165476 161.38819715 -127.75424194 159.51559448 C-126.61916119 154.55378622 -125.47186045 149.59488055 -124.32202148 144.63647461 C-123.19046655 139.74760243 -122.07024738 134.85613827 -120.94921875 129.96484375 C-119.1816215 122.25724067 -117.40307798 114.55224238 -115.61816406 106.84863281 C-114.08888707 100.24771118 -112.57594435 93.64350815 -111.08950996 87.03280067 C-110.28325156 83.44816881 -109.47126019 79.86484583 -108.65894699 76.28158188 C-108.28298211 74.61542605 -107.90986086 72.94862547 -107.53987503 71.28113174 C-101.5429624 44.26532264 -101.5429624 44.26532264 -90 36.6875 C-84.41413495 33.27779488 -79.21976099 32.2501061 -72.70947266 32.27294922 C-71.6547728 32.27251114 -71.6547728 32.27251114 -70.57876587 32.27206421 C-68.27373558 32.27344838 -65.96903574 32.28896603 -63.6640625 32.3046875 C-62.05838192 32.30842088 -60.45269906 32.31126632 -58.84701538 32.31326294 C-54.63512811 32.32087379 -50.42338029 32.34050021 -46.21154785 32.3626709 C-41.90797817 32.3831844 -37.6043858 32.3922764 -33.30078125 32.40234375 C-24.86712374 32.42374866 -16.43357925 32.45785361 -8 32.5 C-8.0314209 31.25911621 -8.0314209 31.25911621 -8.06347656 29.99316406 C-8.14661619 26.2455663 -8.19865531 22.49816251 -8.25 18.75 C-8.28351563 17.44804687 -8.31703125 16.14609375 -8.3515625 14.8046875 C-8.37089844 12.92910156 -8.37089844 12.92910156 -8.390625 11.015625 C-8.4220459 9.28747559 -8.4220459 9.28747559 -8.45410156 7.52441406 C-7.72635896 2.67749179 -4.9699792 -0.07765593 0 0 Z " fill="#000000" transform="translate(408,303.5)"/>
<path d="M0 0 C10.23906578 7.73254248 18.72711365 17.59665562 20.6875 30.6875 C22.11678455 48.13329299 19.50517553 61.04058775 8.03125 74.65234375 C0.02533375 83.28136197 -10.26078398 88.35475631 -21.96875 89.00390625 C-38.65548452 89.56319388 -50.64291019 85.89777041 -63.0625 74.375 C-73.05541038 63.81645319 -75.82689781 52.26922077 -75.73217773 38.15722656 C-75.32139743 24.03483761 -69.475381 12.95884274 -59.25 3.28125 C-42.59283172 -10.42061423 -18.05009418 -11.9794347 0 0 Z M-52.3125 20.6875 C-58.26934175 29.45976447 -59.12110965 37.15279681 -58.3125 47.6875 C-56.12872185 56.93424063 -51.15351899 63.11888233 -43.1875 68.0625 C-35.32708088 72.64162267 -26.26387226 73.09301976 -17.41796875 71.00390625 C-7.53444214 67.34502774 -1.9168373 61.05068257 2.6875 51.6875 C5.46216577 43.5484804 4.55686703 33.54186893 0.9375 25.86328125 C-3.398493 18.31594344 -9.86752726 12.8846498 -18.203125 10.04296875 C-31.49468706 7.8030944 -43.27510706 10.40495515 -52.3125 20.6875 Z " fill="#000000" transform="translate(459.3125,87.3125)"/>
<path d="M0 0 C10.23906578 7.73254248 18.72711365 17.59665562 20.6875 30.6875 C22.11678455 48.13329299 19.50517553 61.04058775 8.03125 74.65234375 C0.02533375 83.28136197 -10.26078398 88.35475631 -21.96875 89.00390625 C-38.65548452 89.56319388 -50.64291019 85.89777041 -63.0625 74.375 C-73.05541038 63.81645319 -75.82689781 52.26922077 -75.73217773 38.15722656 C-75.32139743 24.03483761 -69.475381 12.95884274 -59.25 3.28125 C-42.59283172 -10.42061423 -18.05009418 -11.9794347 0 0 Z M-52.3125 20.6875 C-58.26934175 29.45976447 -59.12110965 37.15279681 -58.3125 47.6875 C-56.12872185 56.93424063 -51.15351899 63.11888233 -43.1875 68.0625 C-35.32708088 72.64162267 -26.26387226 73.09301976 -17.41796875 71.00390625 C-7.53444214 67.34502774 -1.9168373 61.05068257 2.6875 51.6875 C5.46216577 43.5484804 4.55686703 33.54186893 0.9375 25.86328125 C-3.398493 18.31594344 -9.86752726 12.8846498 -18.203125 10.04296875 C-31.49468706 7.8030944 -43.27510706 10.40495515 -52.3125 20.6875 Z " fill="#000000" transform="translate(107.3125,87.3125)"/>
<path d="M0 0 C2.5 1.5 2.5 1.5 4 4 C4.60767035 7.31456556 4.84582354 8.86646367 4 12 C2.7221117 13.83998966 2.7221117 13.83998966 1.02680969 15.6877594 C0.38940165 16.3843825 -0.2480064 17.08100559 -0.90472984 17.79873848 C-4.58872729 21.66909467 -8.3335255 25.47222887 -12.11645508 29.24584961 C-13.0018396 30.13298645 -13.88722412 31.02012329 -14.79943848 31.93414307 C-17.20423997 34.34256615 -19.61123644 36.74875071 -22.01944184 39.15376735 C-24.54642389 41.67820066 -27.0709461 44.20509207 -29.59587097 46.73158264 C-33.82798851 50.96551257 -38.06219517 55.19734463 -42.29760742 59.42797852 C-47.19552944 64.32043857 -52.08981025 69.21651908 -56.98225671 74.11445421 C-61.19117147 78.32790152 -65.40202485 82.53940396 -69.61451644 86.74927527 C-72.12727099 89.26047055 -74.6393442 91.77233739 -77.14966774 94.28596306 C-79.94043053 97.08014152 -82.73525386 99.87023596 -85.53051758 102.65991211 C-86.36324692 103.49466568 -87.19597626 104.32941925 -88.05393982 105.18946838 C-88.81226105 105.94496979 -89.57058228 106.70047119 -90.35188293 107.47886658 C-91.01201291 108.13861953 -91.67214289 108.79837248 -92.3522768 109.47811794 C-95.23848021 112.14389408 -97.89040202 112.52415117 -101.80479431 112.46965027 C-104.53570729 111.88538884 -105.70515762 110.87395614 -107.74829102 108.9855957 C-108.44246124 108.34780182 -109.13663147 107.71000793 -109.85183716 107.05288696 C-113.41038578 103.65216801 -116.92666014 100.21590836 -120.40234375 96.73046875 C-121.16551407 95.96825516 -121.92868439 95.20604156 -122.71498108 94.42073059 C-124.31194789 92.82443932 -125.90767253 91.22690447 -127.50219727 89.62817383 C-129.95149736 87.17347177 -132.40614904 84.72421104 -134.86132812 82.27539062 C-136.4169878 80.71907093 -137.97233766 79.16244148 -139.52734375 77.60546875 C-140.2626683 76.87216843 -140.99799286 76.1388681 -141.75559998 75.38334656 C-142.43042923 74.70536514 -143.10525848 74.02738373 -143.80053711 73.32885742 C-144.3959581 72.73264084 -144.99137909 72.13642426 -145.60484314 71.5221405 C-148.29455476 68.58761815 -148.34796917 65.89845851 -148.26953125 61.9765625 C-148 60 -148 60 -146.5 57.5 C-143.66801648 55.80080989 -141.41474176 55.23993537 -138.10253906 55.44628906 C-129.24008861 57.78024606 -120.36809118 70.52512794 -114 76.9375 C-112.7359115 78.20661373 -111.47159044 79.47549589 -110.20703125 80.74414062 C-107.13533276 83.8267632 -104.06679992 86.91250428 -101 90 C-97.81386616 88.59332164 -95.68018813 86.92608986 -93.22958374 84.46336365 C-92.12762413 83.36336029 -92.12762413 83.36336029 -91.00340271 82.24113464 C-90.20741165 81.43638199 -89.41142059 80.63162933 -88.59130859 79.80249023 C-87.74537643 78.95524384 -86.89944427 78.10799744 -86.02787781 77.2350769 C-83.71250856 74.9143314 -81.4016072 72.58924234 -79.09245634 70.26231265 C-76.67494453 67.82856143 -74.25135625 65.40087811 -71.82827759 62.97267151 C-67.24061672 58.37363714 -62.65765526 53.76995246 -58.07672179 49.16421801 C-49.86708759 40.9102186 -41.65182561 32.66182955 -33.43136275 24.41861492 C-31.01952491 21.99974049 -28.60899728 19.57958592 -26.20124435 17.15664482 C-23.51955906 14.45837309 -20.83500178 11.76298883 -18.14990234 9.06811523 C-17.34986282 8.26133835 -16.5498233 7.45456146 -15.72554016 6.62333679 C-14.99654007 5.89282104 -14.26753998 5.1623053 -13.51644897 4.40965271 C-12.88191992 3.77160422 -12.24739086 3.13355574 -11.59363365 2.47617245 C-8.20817324 -0.65975743 -4.39944455 -0.59992426 0 0 Z " fill="#000000" transform="translate(356,32)"/>
</svg>
