<?xml version="1.0" encoding="UTF-8"?>
<svg version="1.1" xmlns="http://www.w3.org/2000/svg" width="1024" height="1024">
<path d="M0 0 C36.78041038 33.95750798 54.71239372 81.21240723 57 130.6875 C58.51394169 169.6908629 51.90550838 207.45756254 34.9362793 242.64477539 C33.21190621 246.19435636 33.21190621 246.19435636 33.7421875 249.95703125 C34.30292969 251.21580078 34.30292969 251.21580078 34.875 252.5 C40.07085609 264.89838764 38.63901359 278.51884347 33.75 290.875 C29.82457793 299.63873299 25.27199157 305.93471468 17.7578125 311.9609375 C13.27600537 318.91271833 16.36301163 329.73057946 17.5 337.5 C19.8046783 353.56007809 19.8046783 353.56007809 17.55859375 356.70703125 C-3.22718697 374.27733208 -31.1958547 384.39481831 -58.42578125 384.77734375 C-67.36446386 384.56109565 -67.36446386 384.56109565 -74.9375 388.5625 C-75.51242187 389.18898438 -76.08734375 389.81546875 -76.6796875 390.4609375 C-93.4908179 406.59283031 -127.67146435 420.6875 -151 420.6875 C-151.13664062 421.98494141 -151.27328125 423.28238281 -151.4140625 424.61914062 C-151.94186183 429.36238983 -152.63053097 434.06782439 -153.375 438.78125 C-153.50438965 439.61281616 -153.6337793 440.44438232 -153.76708984 441.30114746 C-154.31384545 444.81466233 -154.86512946 448.32746283 -155.41601562 451.84033203 C-155.82059519 454.42456006 -156.2228417 457.00914424 -156.625 459.59375 C-156.74794434 460.37214233 -156.87088867 461.15053467 -156.99755859 461.95251465 C-160.3346699 481.81369501 -160.3346699 481.81369501 -154.8515625 500.69140625 C-147.36005061 510.71617505 -132.9728511 512.37903566 -121.53457642 514.93725586 C-116.8164103 515.996665 -112.10951287 517.10384939 -107.40234375 518.2109375 C-106.4851506 518.42631165 -105.56795746 518.64168579 -104.62297058 518.86358643 C-63.98412837 528.46385387 -25.56924966 545.88563544 -2.60546875 582.32421875 C6.73077965 597.69289874 14.18438352 613.69079439 20 630.6875 C20.3295166 631.63786133 20.6590332 632.58822266 20.99853516 633.56738281 C40.14689956 689.30002066 40.14689956 689.30002066 39 711.6875 C37.02 711.6875 35.04 711.6875 33 711.6875 C31.47267438 705.19703249 29.98335135 698.70330789 28.640625 692.171875 C18.1785625 641.30525211 2.37377371 582.66291546 -43 551.6875 C-61.17421112 539.86103829 -97.2505104 520.6094707 -119 524.6875 C-120.7638743 526.06316027 -120.7638743 526.06316027 -122.5625 527.8125 C-140.67020094 544.8206821 -173.08307903 545.44354329 -196.3828125 544.96875 C-222.47061385 544.06213657 -252.71480259 538.28216512 -273 520.6875 C-273.99203531 519.48970922 -274.97307065 518.2826282 -275.9375 517.0625 C-278.68030658 514.4098916 -278.68030658 514.4098916 -281.47143555 514.78320312 C-282.433479 514.96818359 -283.39552246 515.15316406 -284.38671875 515.34375 C-285.45897705 515.54919434 -286.53123535 515.75463867 -287.63598633 515.96630859 C-336.47937383 526.43755953 -384.71468184 546.40347924 -413 589.6875 C-434.39425431 622.9237877 -445.39674538 661.32015394 -451.44018555 700.06494141 C-451.63136963 701.28874512 -451.82255371 702.51254883 -452.01953125 703.7734375 C-452.26860229 705.4138501 -452.26860229 705.4138501 -452.52270508 707.08740234 C-453 709.6875 -453 709.6875 -454 711.6875 C-456.31 711.6875 -458.62 711.6875 -461 711.6875 C-456.0611286 659.2332796 -437.89069354 603.105672 -402 563.6875 C-401.34902344 562.965625 -400.69804687 562.24375 -400.02734375 561.5 C-379.01375491 539.3710402 -349.62396607 525.80749595 -321 516.6875 C-320.31083496 516.46255859 -319.62166992 516.23761719 -318.91162109 516.00585938 C-308.25593878 512.55052668 -297.41523471 510.13682898 -286.43920898 507.91772461 C-277.64272388 506.07173871 -269.9711316 504.00255116 -264.24609375 496.6484375 C-257.21937335 485.59071449 -257.71585849 469.82914089 -256.9296875 457.1953125 C-256.84373322 455.88335907 -256.75777893 454.57140564 -256.66921997 453.21969604 C-256.44420236 449.78424944 -256.22557226 446.34842729 -256.00842285 442.91247559 C-255.78432877 439.38540279 -255.55398502 435.85873827 -255.32421875 432.33203125 C-254.87680935 425.45090079 -254.43616897 418.56935188 -254 411.6875 C-254.59231415 411.56669067 -255.1846283 411.44588135 -255.79489136 411.32141113 C-260.03794812 410.42365332 -263.99768874 409.50278877 -267.9453125 407.65625 C-268.78731201 407.2629248 -269.62931152 406.86959961 -270.49682617 406.46435547 C-271.36412354 406.04299316 -272.2314209 405.62163086 -273.125 405.1875 C-274.03934814 404.74680176 -274.95369629 404.30610352 -275.89575195 403.85205078 C-287.95675743 397.90129285 -298.76094113 390.39242378 -309 381.6875 C-309.80695313 381.02621094 -310.61390625 380.36492187 -311.4453125 379.68359375 C-340.52723462 354.93205189 -355.58548953 314.00010701 -358.7734375 276.78125 C-358.88558594 275.24984375 -358.88558594 275.24984375 -359 273.6875 C-359.60585938 273.75710938 -360.21171875 273.82671875 -360.8359375 273.8984375 C-368.3844504 274.38618756 -373.1670536 272.45123201 -379 267.6875 C-390.1657855 256.83459115 -393.83093127 241.96184953 -394.3125 226.8125 C-394.03915607 213.76032729 -390.91551451 201.52901119 -381.625 192.125 C-380.91601562 191.48433594 -380.20703125 190.84367188 -379.4765625 190.18359375 C-375.6101664 183.6475432 -380.19739107 173.24210751 -381.875 166.375 C-391.24507096 126.3743743 -391.87954548 86.7464169 -370 50.6875 C-337.45670491 -1.64024868 -276.82657248 -28.14189622 -219.21435547 -41.66064453 C-204.57912409 -45.00277933 -189.88796674 -47.42226458 -175 -49.3125 C-174.12263184 -49.43109375 -173.24526367 -49.5496875 -172.34130859 -49.671875 C-107.93315701 -58.17359919 -48.71092699 -43.99546025 0 0 Z M-63 76.6875 C-64.04807846 77.82975363 -65.06246936 79.00295345 -66.0625 80.1875 C-69.26917439 83.91435361 -72.6592396 87.37201133 -76.1640625 90.81640625 C-78.18518279 92.81935555 -78.18518279 92.81935555 -80.5 95.75 C-101.42899152 120.34156503 -136.02496363 136.00134454 -167.69482422 139.51757812 C-185.93555623 140.86216079 -208.54985994 142.49607387 -224 130.6875 C-226.5625 127.875 -226.5625 127.875 -228 125.6875 C-228.93005859 126.08582031 -228.93005859 126.08582031 -229.87890625 126.4921875 C-236.92138114 129.30097661 -243.42727374 130.45082267 -250.91015625 131.1953125 C-254.09680279 131.39292357 -254.09680279 131.39292357 -256 133.6875 C-257.99609375 134.03466797 -257.99609375 134.03466797 -260.4375 134.1796875 C-261.32775879 134.24236816 -262.21801758 134.30504883 -263.13525391 134.36962891 C-264.08062012 134.43327637 -265.02598633 134.49692383 -266 134.5625 C-278.30817936 135.59386549 -285.76097351 138.22961741 -295.45703125 146.078125 C-298.27917512 147.86418226 -299.72819701 148.03993838 -303 147.6875 C-303.5378402 143.84578431 -304.03985868 140.23214445 -301.79296875 136.89453125 C-296.29276696 131.88380878 -289.15637095 129.34909417 -282 127.6875 C-282.66 126.3675 -283.32 125.0475 -284 123.6875 C-287.42552779 124.9906198 -290.68286754 126.51114331 -293.95947266 128.14990234 C-309.08831675 135.60070857 -324.20401679 137.75989648 -341 137.6875 C-341.03758423 138.6304895 -341.03758423 138.6304895 -341.07592773 139.5925293 C-342.00735682 162.68394479 -342.00735682 162.68394479 -343 173.6875 C-341.42085985 174.22091184 -339.83645613 174.73875763 -338.25 175.25 C-337.36828125 175.54003906 -336.4865625 175.83007812 -335.578125 176.12890625 C-331.0280827 177.11474875 -328.28313811 175.38748887 -324.22900391 173.31298828 C-300.34481741 161.22936377 -269.47919149 160.33212649 -244.015625 167.53125 C-238.00042257 169.64568479 -233.14869248 172.82266889 -229 177.6875 C-228.30268383 179.37163389 -227.64515894 181.07269705 -227.0246582 182.78662109 C-225.49638538 185.92721724 -224.73136707 187.36097587 -221.51010132 188.7991333 C-218.30106709 189.4254665 -215.17960908 189.74742889 -211.91796875 189.9765625 C-210.74865311 190.09558929 -209.57933746 190.21461609 -208.37458801 190.33724976 C-204.64823012 190.70639823 -200.91981229 191.01014641 -197.1875 191.3125 C-194.65649186 191.5516988 -192.12588082 191.79514 -189.59570312 192.04296875 C-183.40089634 192.64040126 -177.20313341 193.18429886 -171 193.6875 C-170.66013565 193.20158386 -170.3202713 192.71566772 -169.97010803 192.21502686 C-169.29859962 191.26312469 -169.29859962 191.26312469 -168.61352539 190.29199219 C-167.94904137 189.34655548 -167.94904137 189.34655548 -167.27113342 188.38201904 C-163.08583075 182.80268727 -156.15450283 180.6391379 -149.5859375 179.19140625 C-122.48354316 175.38289986 -88.93579065 183.43492044 -66.9765625 199.9609375 C-64.50138405 202.1230499 -62.36855749 204.41932334 -60.3515625 207.01171875 C-59.90554688 207.56472656 -59.45953125 208.11773438 -59 208.6875 C-58.516521 209.32437744 -58.03304199 209.96125488 -57.53491211 210.61743164 C-53.78033735 213.68350497 -49.74989306 214.38499123 -45.08984375 215.484375 C-44.12599258 215.7228717 -43.16214142 215.96136841 -42.16908264 216.20709229 C-40.13573239 216.70762637 -38.10071721 217.20143858 -36.06420898 217.68896484 C-32.94225469 218.43636172 -29.82541369 219.20257902 -26.70898438 219.97265625 C-24.73203907 220.45682573 -22.75483378 220.93993516 -20.77734375 221.421875 C-19.84292953 221.64993835 -18.90851532 221.87800171 -17.94578552 222.11297607 C-17.0780098 222.32029358 -16.21023407 222.52761108 -15.31616211 222.74121094 C-14.55323349 222.92455994 -13.79030487 223.10790894 -13.0042572 223.29681396 C-10.84956684 223.78316353 -10.84956684 223.78316353 -8 223.6875 C-6.94546521 219.44277594 -6.0037026 215.47762146 -8.2109375 211.51171875 C-9.41979124 210.05945328 -10.65975502 208.63278279 -11.921875 207.2265625 C-13.8963134 204.81418476 -15.31498914 202.38840759 -16.74609375 199.62744141 C-20.15119409 193.06273291 -23.90396542 188.52738888 -29.49780273 183.72216797 C-50.90178466 165.16911933 -61.62322434 132.19523014 -64 104.6875 C-64.50040213 95.16822237 -63.45349738 86.0703447 -62 76.6875 C-62.33 76.6875 -62.66 76.6875 -63 76.6875 Z M-57 85.6875 C-63.10537201 111.0024571 -51.92189269 140.15620699 -39.23535156 161.71386719 C-33.78315149 170.90318596 -33.78315149 170.90318596 -26 177.6875 C-27.28140839 174.14360492 -28.93480075 171.00911622 -30.86816406 167.77954102 C-45.76266546 142.71655452 -54.34762195 114.74656231 -56 85.6875 C-56.33 85.6875 -56.66 85.6875 -57 85.6875 Z M16 95.6875 C16.33 101.6275 16.66 107.5675 17 113.6875 C17.66 113.6875 18.32 113.6875 19 113.6875 C18.67 107.7475 18.34 101.8075 18 95.6875 C17.34 95.6875 16.68 95.6875 16 95.6875 Z M26 98.6875 C26 105.6175 26 112.5475 26 119.6875 C26.66 119.6875 27.32 119.6875 28 119.6875 C28 113.0875 28 106.4875 28 99.6875 C27.34 99.3575 26.68 99.0275 26 98.6875 Z M37 106.6875 C36.94592433 109.27111518 36.906293 111.85359255 36.875 114.4375 C36.85824219 115.16710937 36.84148437 115.89671875 36.82421875 116.6484375 C36.78627078 120.82271398 37.08485273 122.85720546 39 126.6875 C38.67 120.0875 38.34 113.4875 38 106.6875 C37.67 106.6875 37.34 106.6875 37 106.6875 Z M-330 184.6875 C-335.54422845 192.54182364 -336.87819106 201.24550088 -335.4375 210.625 C-332.80205414 221.73278523 -326.98074579 231.71970292 -317.3125 237.875 C-303.67652601 245.54140217 -288.29313093 248.97896288 -272.875 245.5 C-256.78640863 240.96004639 -245.31097883 231.03979276 -237 216.6875 C-232.29811617 207.01376771 -228.78754854 197.17091262 -231.61328125 186.3359375 C-233.99438684 180.9024014 -237.80630914 177.44383672 -243 174.6875 C-268.75470062 164.84473896 -308.34577007 165.1728703 -330 184.6875 Z M-163 192.6875 C-169.67022489 202.78118469 -170.20464397 215.06881995 -168.5703125 226.76171875 C-165.36611162 241.57620309 -158.01012261 253.7187229 -145.1875 262 C-129.87242738 270.58789119 -112.23330482 271.78333106 -95.34765625 267.65234375 C-82.28828042 263.88843963 -72.39446273 257.74269318 -65.1796875 245.921875 C-60.9301296 237.87304348 -58.93503451 228.43983438 -60.3671875 219.359375 C-63.8656932 208.38875218 -73.91469147 202.4975244 -83.484375 197.3515625 C-99.92201009 189.33693918 -118.56235968 184.51467317 -136.8125 184.3125 C-137.67214355 184.29848145 -138.53178711 184.28446289 -139.41748047 184.27001953 C-148.35113083 184.33700903 -156.75183747 185.99304015 -163 192.6875 Z M-373.25 193.875 C-380.81880392 198.63034954 -384.2223385 207.41098152 -386.55932617 215.66235352 C-389.66118481 229.91715538 -386.50321549 245.38898095 -378.70703125 257.52734375 C-374.95758058 262.27207194 -369.87361063 266.05594149 -364 267.6875 C-362.68 267.6875 -361.36 267.6875 -360 267.6875 C-360 252.8375 -360 237.9875 -360 222.6875 C-365.27327791 219.49184405 -365.27327791 219.49184405 -368.625 219.6875 C-371.9134504 221.07211069 -373.17196193 222.64076988 -375 225.6875 C-375.6930353 229.67245298 -375.01675602 231.94163636 -373 235.3125 C-371 238.6875 -371 238.6875 -371 242.6875 C-373.3125 242.9375 -373.3125 242.9375 -376 242.6875 C-380.03598424 238.95047756 -380.80136025 233.5083644 -381.375 228.25 C-380.89738442 223.71265197 -379.75955647 220.34226973 -377 216.6875 C-371.04104479 212.67432609 -365.9460727 213.74420618 -359 214.6875 C-359 208.7475 -359 202.8075 -359 196.6875 C-365.90419614 192.90321181 -365.90419614 192.90321181 -373.25 193.875 Z M-343 180.6875 C-344.52350874 187.10800112 -345.49130469 193.39415302 -346.14453125 199.96484375 C-346.42683594 200.86332031 -346.70914063 201.76179688 -347 202.6875 C-349.51171875 203.81640625 -349.51171875 203.81640625 -352 204.6875 C-365.31101661 242.13623566 -351.73809547 301.18385454 -335.5625 335.875 C-319.1261326 369.76510687 -288.60093972 393.04804803 -253.56835938 405.55566406 C-204.73529009 421.98203804 -148.74257674 421.8015157 -102.08935547 398.74316406 C-68.6320456 381.70346704 -46.35422518 353.4259885 -33.8359375 318.43359375 C-32.77479288 315.02702202 -32 312.26711409 -32 308.6875 C-30.02 309.0175 -28.04 309.3475 -26 309.6875 C-25.67 311.0075 -25.34 312.3275 -25 313.6875 C-13.22728162 316.93514645 -4.27961489 317.99244419 6.83984375 312.2109375 C18.93754856 304.94235765 26.84633428 293.8321255 30.4375 280.125 C32.24038379 269.36779338 31.42060332 259.84458597 26.125 250.3125 C22.51169465 245.84900515 18.5870387 244.11319914 12.9921875 243.44921875 C5.36160886 243.18172614 -0.79174133 245.41498345 -7 249.8125 C-9.80371927 253.84284645 -10.37450415 257.87958411 -11 262.6875 C-12.65 262.6875 -14.3 262.6875 -16 262.6875 C-16.45984707 256.04317909 -14.74112127 250.29616481 -12.9375 243.9375 C-12.35559493 241.88236919 -11.78101237 239.82514661 -11.21484375 237.765625 C-10.95823975 236.86231445 -10.70163574 235.95900391 -10.43725586 235.02832031 C-9.77771778 232.54593294 -9.77771778 232.54593294 -11 229.6875 C-12.70957724 228.86518733 -12.70957724 228.86518733 -14.84545898 228.42895508 C-15.6597789 228.22897415 -16.47409882 228.02899323 -17.31309509 227.82295227 C-18.19848465 227.61969833 -19.08387421 227.4164444 -19.99609375 227.20703125 C-20.8999733 226.98931564 -21.80385284 226.77160004 -22.73512268 226.54728699 C-25.63316414 225.85267167 -28.53517805 225.17648105 -31.4375 224.5 C-33.39154867 224.03304043 -35.34532883 223.5649557 -37.29882812 223.09570312 C-40.87274352 222.24321113 -44.44686042 221.39183595 -48.02514648 220.55786133 C-48.74604965 220.38926102 -49.46695282 220.22066071 -50.20970154 220.04695129 C-52.02247348 219.62188371 -52.02247348 219.62188371 -54 219.6875 C-54.02578125 220.63109375 -54.0515625 221.5746875 -54.078125 222.546875 C-54.72584743 237.20895549 -58.50796787 251.56717354 -69.640625 261.9609375 C-87.27712791 274.86712009 -108.83558235 277.14394557 -130.08203125 274.21875 C-145.33852266 271.11948693 -157.88008475 262.45598329 -166.46484375 249.5078125 C-171.29274256 240.63823759 -174.14368111 231.15366407 -174.09765625 221.07421875 C-174.09443359 219.82705078 -174.09121094 218.57988281 -174.08789062 217.29492188 C-174.07951172 216.00134766 -174.07113281 214.70777344 -174.0625 213.375 C-174.05798828 212.06208984 -174.05347656 210.74917969 -174.04882812 209.39648438 C-174.03705949 206.1601099 -174.0206176 202.92382822 -174 199.6875 C-190.61734118 197.12679497 -207.26971577 195.32387228 -224 193.6875 C-224.22187988 195.16839111 -224.22187988 195.16839111 -224.44824219 196.67919922 C-226.64224209 210.62954372 -232.47830011 223.1612171 -242 233.6875 C-242.54140625 234.30882812 -243.0828125 234.93015625 -243.640625 235.5703125 C-254.11675173 246.8786549 -268.85478088 251.67711486 -283.91064453 252.62841797 C-297.76003086 253.02004586 -311.93898448 249.27334608 -323.1328125 241.01953125 C-324.96327241 239.61699033 -324.96327241 239.61699033 -327.1171875 238.76171875 C-329.50152888 237.401358 -329.91167817 236.17051996 -331 233.6875 C-331.94843068 232.36782645 -332.90755587 231.05579894 -333.875 229.75 C-340.85362367 219.23075109 -342.54765278 207.04491219 -341 194.6875 C-339.99341374 190.52231546 -338.69718028 186.6198061 -337 182.6875 C-338.98 182.0275 -340.96 181.3675 -343 180.6875 Z M-248 439.6875 C-246.515 440.6775 -246.515 440.6775 -245 441.6875 C-245 441.0275 -245 440.3675 -245 439.6875 C-245.99 439.6875 -246.98 439.6875 -248 439.6875 Z M-170.11425781 449.7043457 C-196.42761872 454.00585622 -222.60128212 452.54836799 -249 449.6875 C-250.29854553 452.28459106 -250.26234378 454.3935294 -250.4296875 457.296875 C-250.5366394 459.00822632 -250.5366394 459.00822632 -250.64575195 460.75415039 C-250.72140381 461.96965576 -250.79705566 463.18516113 -250.875 464.4375 C-253.0729662 496.13262919 -253.0729662 496.13262919 -262.25390625 504.8203125 C-265.05218789 507.03917467 -267.80162535 509.08831268 -271 510.6875 C-267.04165687 519.91023856 -255.95102844 524.25664668 -247.19091797 527.84228516 C-213.5627497 540.81539843 -170.8751094 543.53191871 -137.18359375 529.21484375 C-133.36617751 527.38342075 -130.22118749 525.42550937 -127 522.6875 C-127.33 522.0275 -127.66 521.3675 -128 520.6875 C-130.64187556 519.83864483 -133.25871824 519.08621104 -135.9375 518.375 C-145.95334094 515.54854619 -155.10542888 512.83060153 -161 503.6875 C-164.42171473 496.93689326 -165.62586039 491.01918056 -165.4375 483.5 C-165.4271875 482.57106934 -165.416875 481.64213867 -165.40625 480.68505859 C-165.16188916 469.92779123 -163.65929269 459.30520798 -162 448.6875 C-164.75980957 448.6875 -167.39992439 449.2477315 -170.11425781 449.7043457 Z " fill="#000000" transform="translate(713,312.3125)"/>
<path d="M0 0 C8.78785164 7.2552764 12.85075958 15.0083987 14.11328125 26.37109375 C14.57355841 37.8780228 11.3341067 50.56489296 3.79296875 59.48828125 C-4.65644742 66.28495448 -17.94716192 65.86844813 -28.20703125 66.48828125 C-28.16578125 67.47828125 -28.12453125 68.46828125 -28.08203125 69.48828125 C-28.06469645 73.72663991 -29.06511963 77.4202211 -30.20703125 81.48828125 C-29.27890625 82.21015625 -28.35078125 82.93203125 -27.39453125 83.67578125 C-24.0904752 86.47212183 -21.52723942 88.94694655 -20.9609375 93.44140625 C-20.73229394 100.70420177 -20.73229394 100.70420177 -23.20703125 103.48828125 C-29.82262612 106.73804715 -36.05964276 107.69793623 -43.20703125 105.61328125 C-45.20703125 104.48828125 -45.20703125 104.48828125 -46.20703125 102.48828125 C-46.39453125 99.48828125 -46.39453125 99.48828125 -46.20703125 96.48828125 C-45.21703125 95.49828125 -45.21703125 95.49828125 -44.20703125 94.48828125 C-41.16796875 94.51171875 -41.16796875 94.51171875 -37.58203125 94.86328125 C-36.39351562 94.97414063 -35.205 95.085 -33.98046875 95.19921875 C-33.06523438 95.29460937 -32.15 95.39 -31.20703125 95.48828125 C-31.20703125 94.16828125 -31.20703125 92.84828125 -31.20703125 91.48828125 C-31.79871094 91.30652344 -32.39039063 91.12476563 -33 90.9375 C-37.41953925 89.53161068 -41.3324325 88.11300944 -45.20703125 85.48828125 C-44.87703125 83.17828125 -44.54703125 80.86828125 -44.20703125 78.48828125 C-42.88703125 78.48828125 -41.56703125 78.48828125 -40.20703125 78.48828125 C-40.11228516 76.86019531 -40.11228516 76.86019531 -40.015625 75.19921875 C-39.1261705 63.82823124 -39.1261705 63.82823124 -36.5859375 60.125 C-32.93933766 57.06974068 -29.83468689 55.38940554 -25.06640625 55.27734375 C-24.24269531 55.24898438 -23.41898438 55.220625 -22.5703125 55.19140625 C-20.8439538 55.13979612 -19.11736299 55.09538878 -17.390625 55.05859375 C-11.16171285 54.82609936 -6.65104522 53.86246625 -2.01953125 49.36328125 C2.92379397 41.52214469 4.82036731 31.86399146 3.10546875 22.73828125 C1.44110204 16.4469751 -1.84505168 12.15012096 -7.20703125 8.48828125 C-14.15085586 5.08920626 -23.04571774 5.63660036 -30.51953125 7.11328125 C-39.31861453 10.39429535 -45.90300894 15.53889999 -49.89453125 24.11328125 C-51.70829875 29.41030678 -52.42421849 34.96254415 -53.20703125 40.48828125 C-47.98288167 38.36193688 -43.15012343 35.86994684 -38.26953125 33.05078125 C-20.82658079 23.018124 -20.82658079 23.018124 -12.20703125 23.48828125 C-11.54703125 24.14828125 -10.88703125 24.80828125 -10.20703125 25.48828125 C-10.58203125 29.11328125 -10.58203125 29.11328125 -11.20703125 32.48828125 C-12.29757812 32.69130859 -12.29757812 32.69130859 -13.41015625 32.8984375 C-21.74115713 34.68212615 -28.06051296 37.94224805 -35.20703125 42.48828125 C-37.0372935 43.5975311 -38.87043298 44.70205384 -40.70703125 45.80078125 C-41.48046875 46.27128906 -42.25390625 46.74179687 -43.05078125 47.2265625 C-47.92802814 50.08045878 -51.50893713 51.42623913 -57.20703125 50.48828125 C-61.01483608 47.88294111 -62.22209517 44.92049362 -63.20703125 40.48828125 C-64.23047372 28.16432822 -61.48602256 18.04659866 -53.5390625 8.48046875 C-41.0525628 -4.7203616 -15.93497997 -10.91475619 0 0 Z " fill="#000000" transform="translate(866.20703125,252.51171875)"/>
<path d="M0 0 C0.99 0.515625 1.98 1.03125 3 1.5625 C11.7653948 8.68438328 15.5378458 18.50295296 17.4140625 29.40625 C18.10142391 39.39107886 12.3146218 48.44977488 6.10546875 55.765625 C3.56233955 58.46445599 0.84455977 60.84620671 -1.98046875 63.2421875 C-9.77546342 70.0269991 -13.32805009 75.70705837 -15 86 C-17.375 85.6875 -17.375 85.6875 -20 85 C-22.57692835 81.13460747 -22.16408263 79.16422148 -21.59765625 74.69140625 C-20.01213434 67.55137622 -15.88686496 62.46690776 -10.640625 57.57421875 C-8.78481125 55.86636195 -8.78481125 55.86636195 -6.6875 53.0625 C-6.130625 52.381875 -5.57375 51.70125 -5 51 C-4.34 51 -3.68 51 -3 51 C-2.72285156 50.43410156 -2.44570313 49.86820313 -2.16015625 49.28515625 C-0.58017203 46.17306612 1.15472444 43.15503979 2.87890625 40.12109375 C5.8507461 34.49841417 6.07710297 27.80230326 4.3515625 21.7109375 C1.61137303 15.64504798 -2.81457867 11.62975045 -8.6875 8.625 C-22.82990245 5.95662218 -39.052562 9.36842423 -51 17.4375 C-54.12825179 20.10954841 -56.50293884 22.74625364 -59 26 C-60.875 25.75 -60.875 25.75 -63 25 C-64.1328125 22.953125 -64.1328125 22.953125 -65 21 C-58.13907733 9.53914054 -49.4505776 2.42641889 -36.6171875 -1.78125 C-34.41142239 -2.31885583 -32.24982128 -2.69743783 -30 -3 C-29.14921875 -3.12117188 -28.2984375 -3.24234375 -27.421875 -3.3671875 C-18.00717311 -4.47005258 -8.49180346 -4.58557387 0 0 Z " fill="#000000" transform="translate(322,126)"/>
<path d="M0 0 C5.15494981 3.67669215 9.29148417 7.74037518 11.8125 13.640625 C12.81152987 21.26958039 11.59846233 27.75949127 7.11328125 34.0078125 C5.06121416 36.59607787 2.94857469 39.12134685 0.8125 41.640625 C-0.65275027 43.42663934 -2.11131452 45.21816394 -3.5625 47.015625 C-4.20960938 47.80710937 -4.85671875 48.59859375 -5.5234375 49.4140625 C-8.87741935 53.90178469 -9.76467541 56.96506684 -9.1875 62.640625 C-8.27616698 64.49728314 -8.27616698 64.49728314 -7.125 66.265625 C-5.1875 69.640625 -5.1875 69.640625 -5.4375 72.578125 C-5.80875 73.5990625 -5.80875 73.5990625 -6.1875 74.640625 C-12.27204043 74.52132029 -12.27204043 74.52132029 -14.73046875 72.15625 C-18.62748001 66.80785917 -19.7246916 62.3018008 -19.1875 55.640625 C-17.02247456 47.06829453 -11.86531302 41.19635196 -6.1875 34.640625 C-4.84110888 32.98448898 -3.50652302 31.31863985 -2.1875 29.640625 C-1.630625 28.939375 -1.07375 28.238125 -0.5 27.515625 C2.2246238 23.62330528 2.56997107 19.23769078 1.8125 14.640625 C-1.2245408 9.7629534 -4.66316377 7.08448561 -10.1875 5.640625 C-19.63302952 3.55170982 -28.14868521 5.34407393 -36.61328125 9.96484375 C-43.09607223 14.42099951 -47.46130739 20.95122154 -49.1875 28.640625 C-49.48054722 32.90523324 -49.32772394 36.86939334 -48.5625 41.078125 C-48.43875 41.92375 -48.315 42.769375 -48.1875 43.640625 C-48.8475 44.300625 -49.5075 44.960625 -50.1875 45.640625 C-52.125 45.640625 -52.125 45.640625 -54.1875 44.640625 C-58.4691743 39.13561519 -57.84527999 32.24901929 -57.1875 25.640625 C-55.39326081 16.64550588 -50.62967817 10.93457606 -44.1875 4.640625 C-43.300625 3.691875 -42.41375 2.743125 -41.5 1.765625 C-29.59909595 -5.86891722 -12.27807634 -7.62994744 0 0 Z " fill="#000000" transform="translate(237.1875,446.359375)"/>
<path d="M0 0 C11.19450805 2.91107185 21.37330605 7.77095125 28.1875 17.34765625 C29.78907386 22.15237783 30.12415484 27.21416466 28.0625 31.91015625 C25.32728269 34.00715619 23.5738987 33.70931048 20.1875 33.34765625 C17.4765625 31.625 17.4765625 31.625 14.8125 29.28515625 C13.85601563 28.46402344 12.89953125 27.64289063 11.9140625 26.796875 C10.28924008 25.33732821 8.67544999 23.86511098 7.0859375 22.3671875 C-0.94076159 14.88551119 -9.30605854 11.96065054 -20.16015625 10.90234375 C-22.8125 10.34765625 -22.8125 10.34765625 -24.8125 7.34765625 C-24.625 4.28515625 -24.625 4.28515625 -23.8125 1.34765625 C-17.53395813 -2.83803833 -7.22490731 -1.23622902 0 0 Z " fill="#000000" transform="translate(629.8125,449.65234375)"/>
<path d="M0 0 C3.21304602 2.00815377 4.55756306 3.52697642 5.65234375 7.171875 C6.16667001 11.59648995 5.58518184 14.15189352 3.03515625 17.84765625 C-1.36524743 22.776922 -6.17738422 27.15520477 -11.26171875 31.36328125 C-13.09036555 33.08508576 -14.29177006 34.81702953 -15.625 36.9375 C-18 40 -18 40 -21.0625 40.6875 C-24.55307702 39.87055644 -25.79370797 38.77829366 -28 36 C-30.553657 30.892686 -29.75889678 23.47066845 -28.12890625 18.1640625 C-24.27579623 9.95251657 -18.78071647 3.99893916 -10.26953125 0.6640625 C-6.48462176 -0.44339811 -3.94591022 -0.59188653 0 0 Z " fill="#000000" transform="translate(305,155)"/>
<path d="M0 0 C5.18511441 3.10298269 8.9572397 6.30000339 11.00390625 12.19921875 C11.00390625 15.44921875 11.00390625 15.44921875 10.00390625 18.19921875 C5.75186623 20.59864248 1.33036027 20.58379808 -3.43359375 20.57421875 C-4.61707397 20.5728894 -4.61707397 20.5728894 -5.82446289 20.5715332 C-13.46236502 20.4198378 -22.67318 19.61012538 -28.84765625 14.73828125 C-30.75424755 12.18318951 -30.42008468 10.28829553 -29.99609375 7.19921875 C-27.73080606 2.47986939 -25.02740092 -0.02833495 -20.33203125 -2.10546875 C-13.2280435 -4.22003367 -6.53656162 -3.33259403 0 0 Z " fill="#000000" transform="translate(504.99609375,638.80078125)"/>
<path d="M0 0 C4.14068423 2.43389572 6.53619325 4.6666103 8.67578125 9.0546875 C9.86170727 16.51213222 8.35628948 22.63052189 5.5859375 29.51171875 C4.19827204 33.38884414 4.03129045 35.97291243 4.67578125 40.0546875 C7.01409083 42.5951101 7.01409083 42.5951101 9.67578125 44.0546875 C9.34578125 45.7046875 9.01578125 47.3546875 8.67578125 49.0546875 C7.05078125 49.8046875 7.05078125 49.8046875 4.67578125 50.0546875 C0.36827002 47.7690693 -2.5646713 45.64906139 -4.32421875 41.0546875 C-5.53131551 33.12808544 -3.40876533 27.27836435 -0.3984375 20.015625 C1.08015666 15.94008181 1.40963236 14.04254505 -0.32421875 10.0546875 C-3.60808769 7.90905433 -3.60808769 7.90905433 -7.32421875 7.0546875 C-8.31421875 7.3846875 -9.30421875 7.7146875 -10.32421875 8.0546875 C-11.54942139 11.06316168 -11.54942139 11.06316168 -12.32421875 14.0546875 C-11.66421875 13.3946875 -11.00421875 12.7346875 -10.32421875 12.0546875 C-7.69921875 11.9296875 -7.69921875 11.9296875 -5.32421875 12.0546875 C-4.57421875 14.1796875 -4.57421875 14.1796875 -4.32421875 17.0546875 C-6.33098501 20.7098689 -7.8421 22.733275 -11.32421875 25.0546875 C-15.01171875 24.6796875 -15.01171875 24.6796875 -18.32421875 24.0546875 C-20.66693655 18.34431287 -21.53423209 12.70343908 -19.56640625 6.76953125 C-15.81995267 -1.35761804 -8.39124715 -3.4129106 0 0 Z " fill="#000000" transform="translate(805.32421875,149.9453125)"/>
<path d="M0 0 C3.50868833 3.60615189 5.03976934 6.69072063 5.6875 11.6875 C4.99561699 17.42024497 2.95892311 21.60357689 -1.125 25.6875 C-5.9321883 28.66337847 -10.18373181 29.97051887 -15.78515625 29.03515625 C-19.66863632 27.60683853 -21.81235155 24.87484337 -23.75 21.3125 C-25.3211101 16.61597303 -25.24322615 12.66608913 -23.25 8.125 C-20.63663837 3.58791383 -16.81044778 -0.66138495 -11.74609375 -2.359375 C-7.34746477 -3.0824373 -3.76638642 -2.31119167 0 0 Z " fill="#000000" transform="translate(443.75,499.6875)"/>
<path d="M0 0 C4.40502446 3.8710821 5.68138999 7.83023178 6.1171875 13.54296875 C6.00853435 18.05207438 4.51095554 21.33059283 1.37109375 24.54296875 C-3.03277679 28.413594 -5.74889045 30.18218489 -11.83984375 30.09375 C-16.22693614 29.5055365 -18.93753791 26.9124583 -21.8125 23.75 C-23.84524017 18.44228954 -24.10967678 12.75982516 -21.98828125 7.42578125 C-17.01911393 -1.05472196 -9.28640042 -3.75407676 0 0 Z " fill="#000000" transform="translate(606.9375,521.1875)"/>
<path d="M0 0 C4.08753915 3.21237333 6.61767655 7.12083379 7.3671875 12.265625 C7.57664283 16.29257259 7.20408284 18.76261858 5.48828125 22.46875 C1.89318292 26.34039435 -1.3208606 27.79805971 -6.44921875 28.375 C-11.39969412 28.55180269 -15.02491909 28.4234588 -18.94921875 25.09375 C-22.72022955 20.78402337 -23.24013486 16.92667602 -23.16796875 11.37890625 C-22.75625722 7.07799114 -21.11400059 4.14933354 -17.94921875 1.28125 C-12.89285284 -1.72096726 -5.4187038 -2.5193172 0 0 Z M-13.88671875 8.71875 C-15.24467275 11.75417658 -15.36952318 13.80136528 -14.94921875 17.09375 C-13.94921875 19.09375 -13.94921875 19.09375 -11.94921875 20.09375 C-8.47778929 20.54654515 -6.3364867 20.24528963 -3.07421875 18.96875 C-0.66427174 17.22784158 -0.66427174 17.22784158 -0.38671875 14.15625 C-0.74958799 11.0612742 -0.74958799 11.0612742 -2.51171875 8.71875 C-6.32888044 6.17397554 -10.23474232 5.65580203 -13.88671875 8.71875 Z " fill="#000000" transform="translate(329.94921875,216.90625)"/>
<path d="M0 0 C0.6875 1.8125 0.6875 1.8125 1 4 C-0.54187025 6.14148647 -2.11259696 7.06062913 -4.4375 8.3125 C-7.75664498 10.4982784 -9.19537575 12.45758943 -11 16 C-11.55784507 18.97517372 -11.4056488 20.90692793 -11 24 C-8.10194566 27.62256793 -3.34667284 28.05822089 1 29 C1 30.98 1 32.96 1 35 C-3.95618861 35.35261421 -7.82917054 35.5637327 -12.375 33.375 C-16.04750006 30.05226185 -18.62254869 27.51505825 -19.3828125 22.44921875 C-19.64432665 16.14672782 -18.79859434 11.12287494 -15 6 C-10.40387209 1.18786608 -6.59256877 -0.14650153 0 0 Z " fill="#000000" transform="translate(510,549)"/>
<path d="M0 0 C3.38939556 2.13679285 4.72582557 3.1774767 6 7 C6.86773835 13.95613201 5.31337369 19.86083938 2 26 C0.53125 27.77734375 0.53125 27.77734375 -1 29 C-3.6875 29.1875 -3.6875 29.1875 -6 29 C-7.00693317 26.3711206 -7.14440109 25.33297193 -6.00390625 22.703125 C-5.52824219 21.89359375 -5.05257812 21.0840625 -4.5625 20.25 C-1.99163582 15.46336337 -1.50271183 12.37071224 -2 7 C-7.05203005 8.87530864 -7.05203005 8.87530864 -11.125 12.25 C-11.74375 12.8275 -12.3625 13.405 -13 14 C-15.75 13.75 -15.75 13.75 -18 13 C-18.75 11.3125 -18.75 11.3125 -19 9 C-15.08683473 2.19449518 -7.68598951 -1.16014936 0 0 Z " fill="#000000" transform="translate(726,578)"/>
<path d="M0 0 C1.65 0 3.3 0 5 0 C6.15543244 2.31086488 6.09606809 3.53013146 6.03759766 6.0949707 C6.02072906 6.93957352 6.00386047 7.78417633 5.98648071 8.65437317 C5.9625827 9.56893784 5.93868469 10.4835025 5.9140625 11.42578125 C5.89282318 12.36552292 5.87158386 13.30526459 5.84970093 14.27348328 C5.80338576 16.26498387 5.7544533 18.25642504 5.703125 20.24780273 C5.62558816 23.28942741 5.55826736 26.33115418 5.4921875 29.37304688 C5.44592739 31.30730647 5.39907174 33.24155193 5.3515625 35.17578125 C5.33171295 36.08427322 5.3118634 36.9927652 5.29141235 37.92878723 C5.17930556 42.06058753 5.02146361 45.9699661 4 50 C2.02 50 0.04 50 -2 50 C-2.27579556 6.82738669 -2.27579556 6.82738669 0 0 Z " fill="#000000" transform="translate(319,974)"/>
<path d="M0 0 C2.125 0.375 2.125 0.375 4 1 C4.92808938 9.25026468 5.1230629 17.3903828 5.0625 25.6875 C5.05798828 26.87794922 5.05347656 28.06839844 5.04882812 29.29492188 C5.03717452 32.19666936 5.02081559 35.09830626 5 38 C2.69 38 0.38 38 -2 38 C-2.04936158 32.90968245 -2.08570105 27.81950357 -2.10986328 22.72900391 C-2.11993376 20.99655735 -2.13359089 19.26412784 -2.15087891 17.53173828 C-2.17508162 15.04455361 -2.18647239 12.55759325 -2.1953125 10.0703125 C-2.20563507 9.29317902 -2.21595764 8.51604553 -2.22659302 7.71536255 C-2.22699271 5.80874507 -2.1223214 3.90268964 -2 2 C-1.34 1.34 -0.68 0.68 0 0 Z " fill="#000000" transform="translate(671,986)"/>
<path d="M0 0 C3.125 0.375 3.125 0.375 5.5 1.9375 C7.68507535 5.21511302 7.48895977 7.51702645 7.125 11.375 C6.125 12.375 6.125 12.375 2.25 12.625 C-0.28301531 12.57506601 -1.61807975 12.51148888 -3.875 11.3125 C-5.43757703 8.28500701 -5.1782864 5.71115038 -4.875 2.375 C-2.875 0.375 -2.875 0.375 0 0 Z " fill="#000000" transform="translate(241.875,524.625)"/>
</svg>
