<?xml version="1.0" encoding="UTF-8"?>
<svg version="1.1" xmlns="http://www.w3.org/2000/svg" width="512" height="512">
<path d="M0 0 C0.68205413 -0.00205263 1.36410826 -0.00410527 2.06683069 -0.0062201 C4.35100609 -0.01187198 6.63512085 -0.0104351 8.91930199 -0.00901413 C10.57409846 -0.01159881 12.2288943 -0.01461225 13.88368928 -0.01801753 C18.43040163 -0.02607876 22.97709818 -0.02787661 27.52381682 -0.028615 C32.42787648 -0.03046708 37.33192797 -0.03801521 42.23598289 -0.04475021 C52.95923071 -0.05832788 63.68247479 -0.06435739 74.40572977 -0.06876087 C81.1025599 -0.07152428 87.79938858 -0.07576182 94.49621773 -0.08026505 C113.04113296 -0.09245702 131.58604703 -0.10275645 150.13096619 -0.10614014 C151.31771644 -0.1063597 152.50446669 -0.10657927 153.72717907 -0.10680549 C154.91675405 -0.10702377 156.10632903 -0.10724204 157.33195174 -0.10746694 C159.74244666 -0.1079104 162.15294159 -0.10835696 164.56343651 -0.10880661 C166.35696611 -0.10913875 166.35696611 -0.10913875 168.18672864 -0.10947761 C187.55843758 -0.1134251 206.9301089 -0.13087798 226.30180331 -0.15416613 C246.194791 -0.17788775 266.08775982 -0.19034236 285.98076189 -0.19150805 C297.14816867 -0.19242436 308.31552642 -0.19816558 319.48291969 -0.21632767 C328.99275399 -0.23173958 338.5025241 -0.23684266 348.01236852 -0.22858956 C352.86243339 -0.22468694 357.71236906 -0.2255938 362.56241798 -0.23964691 C367.00759776 -0.25240886 371.45255154 -0.2511682 375.89773111 -0.2390562 C377.5007178 -0.23710318 379.10372062 -0.2401593 380.70668466 -0.24890056 C398.4608834 -0.33954147 413.6670643 3.21044169 426.83345604 15.85017776 C437.94041361 27.45386868 442.33143489 40.66833268 442.28447533 56.52197647 C442.28900644 57.65078352 442.29353755 58.77959056 442.29820597 59.94260389 C442.31084045 63.71546665 442.30923018 67.48818489 442.30757713 71.26106644 C442.31247794 73.97018857 442.32031242 76.67930063 442.32793236 79.38841629 C442.34451198 85.97839364 442.35004055 92.56833519 442.35115711 99.15833165 C442.35210913 104.51844653 442.35622707 109.87854966 442.36255836 115.23866081 C442.38016328 130.45404334 442.38939853 145.66939771 442.38789742 160.8847905 C442.3878175 161.70424965 442.38773759 162.52370879 442.38765526 163.36800003 C442.3875735 164.18846627 442.38749174 165.00893252 442.3874075 165.85426138 C442.38659504 179.14343084 442.40572457 192.43248684 442.43393199 205.7216235 C442.46270345 219.38492755 442.47646991 233.04817634 442.47474444 246.71151143 C442.47408196 254.37511922 442.47951165 262.03860809 442.50110054 269.70218849 C442.51936865 276.22852761 442.52361382 282.75469391 442.51008169 289.2810476 C442.50357979 292.60637232 442.50553331 295.93109739 442.52078819 299.25643349 C442.60999668 320.05613254 441.02949494 336.12717738 426.27876854 352.02986526 C417.33979763 360.33585205 405.30057001 366.26492242 392.97400475 366.25168228 C391.9826754 366.25305695 390.99134605 366.25443161 389.96997643 366.25584793 C388.8939164 366.25225266 387.81785637 366.24865738 386.70918846 366.24495316 C385.56729057 366.24509918 384.42539268 366.24524521 383.24889183 366.24539566 C379.47758136 366.24469945 375.70632038 366.23692061 371.93501854 366.22908401 C369.31899607 366.2272188 366.70297325 366.22579539 364.0869503 366.2247963 C357.90702201 366.22169132 351.72711146 366.21348918 345.54719096 366.20344681 C338.50972649 366.19225977 331.47226117 366.18676869 324.43479002 366.18175137 C309.9622008 366.17130586 295.48962554 366.15372258 281.01704979 366.13142776 C280.93704735 367.0330867 280.93704735 367.0330867 280.8554287 367.95296097 C280.77727928 368.75048782 280.69912987 369.54801468 280.61861229 370.36970901 C280.54465233 371.15643997 280.47069237 371.94317093 280.3944912 372.75374222 C279.38171688 379.13369631 276.08500356 383.79088411 271.09126854 387.74470901 C261.53817655 394.13142776 261.53817655 394.13142776 257.01704979 394.13142776 C256.73216698 394.85459183 256.44728416 395.57775589 256.15376854 396.32283401 C253.08641887 403.90161208 250.21949797 410.6684498 243.01704979 415.13142776 C242.35704979 415.13142776 241.69704979 415.13142776 241.01704979 415.13142776 C241.02371162 416.16681686 241.03037346 417.20220596 241.03723717 418.26897049 C241.09796286 428.01040169 241.14298123 437.75179467 241.17248631 447.49337196 C241.18816493 452.5020357 241.20944313 457.51054706 241.24336815 462.51912308 C241.27588347 467.34961959 241.29388624 472.17996924 241.30168152 477.01056671 C241.30723914 478.85663669 241.31809135 480.70269834 241.33423996 482.54870605 C241.35591047 485.12772839 241.35902112 487.70613814 241.35762596 490.28523636 C241.3738047 491.43861748 241.3738047 491.43861748 241.39031029 492.61529922 C241.37781334 494.73991776 241.37781334 494.73991776 241.01704979 498.13142776 C238.01704979 500.13142776 238.01704979 500.13142776 235.26314354 500.19783401 C230.58624744 498.66138078 228.26232425 495.71382995 225.07954979 492.06892776 C224.4569326 491.3786348 223.83431541 490.68834183 223.19283104 489.97713089 C221.45254184 488.04124196 219.73085651 486.09075933 218.01704979 484.13142776 C217.36607323 483.39021683 216.71509666 482.64900589 216.04439354 481.88533401 C214.99101868 480.67570406 213.93884465 479.46502772 212.88765526 478.25349808 C211.14456135 476.27608066 209.36656039 474.3438 207.56001854 472.42439651 C206.6125576 471.41409378 206.6125576 471.41409378 205.64595604 470.38338089 C204.37067466 469.02727182 203.09339016 467.67304315 201.81392479 466.32088089 C200.93027245 465.38212112 200.93027245 465.38212112 200.02876854 464.42439651 C199.49727196 463.86260696 198.96577538 463.30081741 198.41817284 462.72200394 C197.01704979 461.13142776 197.01704979 461.13142776 195.01704979 458.13142776 C191.76748378 459.21461643 191.18312343 459.83358794 189.07954979 462.38142776 C185.89534651 466.13543584 182.61497979 469.77432042 179.26704979 473.38142776 C178.2279454 474.50378481 177.1888833 475.62618103 176.14986229 476.74861526 C175.37110741 477.58924515 175.37110741 477.58924515 174.5766201 478.44685745 C172.09356889 481.12892592 169.61632094 483.81626056 167.14204979 486.50642776 C166.68322411 487.00215286 166.22439842 487.49787796 165.75166893 488.00862503 C163.27833072 490.69498669 160.95677221 493.44661293 158.70454979 496.31892776 C156.01704979 499.13142776 156.01704979 499.13142776 152.82954979 500.19392776 C150.01704979 500.13142776 150.01704979 500.13142776 147.01704979 498.13142776 C146.73069049 495.43938628 146.63869835 492.9782322 146.67647362 490.28523636 C146.67603554 489.47539795 146.67559746 488.66555954 146.6751461 487.83118057 C146.67724065 485.14716582 146.70060262 482.46377125 146.72408104 479.77986526 C146.72967464 477.92184668 146.73394585 476.06382368 146.7369442 474.2057991 C146.7484116 469.30989287 146.77789499 464.41425265 146.81105614 459.51845169 C146.84171627 454.52489699 146.85544084 449.53129941 146.87056541 444.53767776 C146.90276294 434.73547741 146.95398208 424.93347469 147.01704979 415.13142776 C145.82982323 414.67896683 145.82982323 414.67896683 144.61861229 414.21736526 C137.4763018 411.23604047 133.8220291 402.9204706 131.01704979 396.13142776 C131.01704979 395.47142776 131.01704979 394.81142776 131.01704979 394.13142776 C130.29388573 393.84654495 129.57072166 393.56166214 128.82564354 393.26814651 C120.30821486 389.82089791 112.94975356 386.62128935 108.98970604 377.85799026 C107.51947004 373.77927105 106.96591209 370.47095474 107.01704979 366.13142776 C106.42604642 366.13511494 105.83504305 366.13880211 105.22613049 366.14260101 C90.79277989 366.23124507 76.35945372 366.29727907 61.92589092 366.33867645 C54.94567921 366.35923216 47.9656501 366.38721736 40.98555565 366.43318558 C34.24226924 366.47757279 27.49917214 366.50060359 20.75574875 366.51093674 C18.19029008 366.51829535 15.62484109 366.53266458 13.0594635 366.55434799 C-7.81758186 366.72369959 -23.9268827 365.21621842 -39.88138771 350.38924026 C-47.96103593 341.70887471 -54.09132585 329.38513933 -54.11717129 317.34953785 C-54.12162913 316.38469017 -54.12608698 315.41984248 -54.13067991 314.42575699 C-54.13049554 313.36848324 -54.13031118 312.31120948 -54.13012123 311.22189713 C-54.13379792 310.09650778 -54.13747461 308.97111843 -54.14126271 307.81162637 C-54.15230881 304.02637656 -54.15614501 300.24115419 -54.15995216 296.45589066 C-54.16568421 293.74736165 -54.17285021 291.03883676 -54.17986488 288.33031082 C-54.19961878 280.19095009 -54.20969535 272.05158813 -54.21859267 263.91220942 C-54.22297841 260.07604002 -54.22834458 256.239872 -54.23358154 252.40370369 C-54.25059477 239.64497699 -54.26508698 226.88625114 -54.27233028 214.12751484 C-54.27424008 210.81721432 -54.27616043 207.50691381 -54.27811623 204.19661331 C-54.27859997 203.37388506 -54.27908371 202.55115681 -54.27958211 201.7034974 C-54.28787501 188.38821318 -54.31319897 175.073019 -54.3456969 161.75777406 C-54.37881482 148.07652272 -54.39678342 134.39531706 -54.39997452 120.71402544 C-54.40213553 113.03693619 -54.41082375 105.35997816 -54.4364357 97.68292809 C-54.45820769 91.14186197 -54.46616145 84.60095895 -54.45646892 78.05986071 C-54.45194243 74.72645587 -54.45592147 71.39365818 -54.47323036 68.06025505 C-54.59954005 42.28489143 -54.59954005 42.28489143 -49.98295021 32.13142776 C-49.60497449 31.29639253 -49.22699877 30.46135729 -48.83756924 29.60101795 C-42.18916006 15.83942466 -29.99745093 7.2599736 -16.06107521 2.07674026 C-10.68331432 0.42519441 -5.6105798 0.00576838 0 0 Z M-31.98295021 25.13142776 C-32.80795021 26.01830276 -33.63295021 26.90517776 -34.48295021 27.81892776 C-43.12589399 38.53399687 -44.29827293 51.04506729 -44.2369175 64.36433792 C-44.24003748 65.42784784 -44.24315746 66.49135777 -44.24637198 67.58709526 C-44.25428513 71.11495168 -44.24805456 74.64263287 -44.24173927 78.17049026 C-44.2444521 80.71433487 -44.24801467 83.25817869 -44.25235939 85.80202103 C-44.26050857 91.972693 -44.25934871 98.14330115 -44.25353411 104.3139739 C-44.24900234 109.33265805 -44.24841124 114.35132858 -44.25058174 119.37001419 C-44.25088821 120.08651756 -44.25119467 120.80302093 -44.25151043 121.54123652 C-44.25214993 122.99716934 -44.25279836 124.45310216 -44.25345561 125.90903497 C-44.25914759 139.53524898 -44.25261883 153.161436 -44.24185488 166.78764558 C-44.2329204 178.45889377 -44.23447276 190.13010217 -44.2436924 201.80134964 C-44.25441508 215.38152025 -44.25859837 228.96166725 -44.25246787 242.54184151 C-44.25183083 243.99217478 -44.25120208 245.44250806 -44.25058174 246.89284134 C-44.25027319 247.60628161 -44.24996464 248.31972188 -44.24964674 249.05478156 C-44.24792579 254.06269694 -44.25082191 259.07059724 -44.25554085 264.07851028 C-44.26176229 270.82879705 -44.25728138 277.57899747 -44.24575233 284.32928085 C-44.24311628 286.8011373 -44.24385275 289.27300008 -44.24827766 291.74485397 C-44.25377624 295.12949253 -44.24684685 298.51389398 -44.2369175 301.89851761 C-44.24137894 302.86702463 -44.24584038 303.83553165 -44.25043702 304.83338737 C-44.1626768 320.35066693 -40.59342395 333.41165716 -29.67045021 344.86970901 C-18.87062692 353.95851379 -6.39554696 356.45565078 7.32002831 356.35847855 C8.41374245 356.3587706 9.50745659 356.35906265 10.63431358 356.35936356 C14.22161062 356.35797882 17.80869563 356.34245791 21.39595604 356.32674026 C23.89415943 356.3230071 26.3923643 356.32016156 28.89056969 356.31816483 C34.77644002 356.3113289 40.66223304 356.29559277 46.5480718 356.27546585 C53.91336876 356.25083176 61.27867525 356.2401574 68.64400291 356.22908401 C81.76838993 356.20767617 94.89271508 356.17395705 108.01704979 356.13142776 C106.24477543 351.90568617 104.46267061 348.11027053 101.89204979 344.31892776 C98.32204744 338.43421067 97.32065402 333.39520939 98.43111229 326.59627151 C99.87421939 320.97163118 102.38835382 316.60605 105.81001854 311.94392776 C107.20181185 310.21692436 107.20181185 310.21692436 107.01704979 308.13142776 C106.15705376 308.12556152 105.29705772 308.11969528 104.41100121 308.11365128 C96.31755965 308.05581568 88.22439677 307.98379216 80.13122559 307.89571285 C75.97013969 307.85093075 71.80915349 307.81169234 67.64790916 307.78499222 C63.63418778 307.75903686 59.62084841 307.71869076 55.60736275 307.6682415 C54.07396626 307.65151991 52.54050361 307.64003868 51.00702858 307.63381386 C48.8636372 307.62422961 46.72123487 307.59624194 44.57808495 307.56380081 C43.35674858 307.55269775 42.13541222 307.5415947 40.87706566 307.53015518 C39.93326042 307.39857513 38.98945518 307.26699509 38.01704979 307.13142776 C35.92864596 303.99882201 35.70136187 302.63603587 35.26704979 299.00642776 C33.98754842 291.50795462 30.59715161 285.81804068 24.51704979 281.19392776 C20.14123731 278.4075789 15.893154 277.18560119 10.76704979 276.63142776 C7.01704979 276.13142776 7.01704979 276.13142776 5.01704979 274.13142776 C4.82193404 271.71243099 4.75207183 269.40814871 4.76981163 266.98822403 C4.76739721 266.24401422 4.7649828 265.4998044 4.76249522 264.73304278 C4.75683603 262.22634561 4.76553791 259.71990079 4.77412987 257.21321487 C4.77305754 255.42146104 4.7711196 253.62970754 4.7683773 251.83795547 C4.76351822 246.96209515 4.7711976 242.08632594 4.78133035 237.21047664 C4.79009232 232.11801168 4.78835377 227.02554973 4.78796959 221.93307877 C4.788907 213.38093408 4.79760171 204.82882481 4.81123924 196.27669144 C4.82697059 186.37463551 4.83223722 176.47261838 4.83150369 166.57055086 C4.83089434 157.0622128 4.83599097 147.55388745 4.8442955 138.04555321 C4.84783539 133.99092955 4.84965975 129.93631039 4.85018921 125.88168526 C4.85119031 121.11211274 4.85726773 116.34257308 4.86735535 111.5730114 C4.87028772 109.81735688 4.87150424 108.06169859 4.87092781 106.30604172 C4.87044065 103.91987496 4.87605773 101.53380166 4.88333702 99.14764786 C4.88178842 98.44377235 4.88023982 97.73989684 4.87864429 97.01469177 C4.90287116 92.24560639 4.90287116 92.24560639 6.01704979 91.13142776 C8.2015618 90.71942346 10.38979255 90.32707723 12.57954979 89.94392776 C21.22534359 88.14088837 27.10760313 84.58651343 32.01704979 77.13142776 C34.52467041 72.21263347 35.62601756 67.6158405 36.48970604 62.17049026 C36.66372948 61.49759964 36.83775291 60.82470901 37.01704979 60.13142776 C39.54228834 58.86880849 41.27127111 59.00607508 44.09894371 59.00558662 C45.7228457 59.001675 45.7228457 59.001675 47.37955379 58.99768436 C48.57855784 58.99991508 49.77756189 59.0021458 51.0128994 59.00444412 C52.27909835 59.00288413 53.5452973 59.00132414 54.84986591 58.99971688 C58.37598279 58.9955245 61.90207276 58.99761384 65.42818975 59.0007031 C69.2264579 59.00295734 73.02472129 58.99947746 76.82298851 58.99672318 C84.26835835 58.99226675 91.71371813 58.99324138 99.15908837 58.99613582 C105.20784287 58.99839035 111.25659455 58.99870215 117.30534935 58.997612 C118.59461969 58.99738215 118.59461969 58.99738215 119.90993589 58.99714766 C121.65579136 58.99682795 123.40164683 58.99650373 125.1475023 58.99617507 C141.53457131 58.99332065 157.92163473 58.9966067 174.30870283 59.00197543 C188.38238638 59.00644344 202.45606169 59.00566749 216.5297451 59.00105667 C232.85649724 58.99571024 249.18324448 58.99359534 265.50999737 58.99666893 C267.24958165 58.9969875 268.98916594 58.99730187 270.72875023 58.997612 C271.58475301 58.99776628 272.4407558 58.99792055 273.32269806 58.9980795 C279.36712794 58.99894445 285.41155472 58.99748226 291.45598412 58.99513245 C298.81789628 58.99233348 306.17979777 58.99307476 313.54170871 58.99841319 C317.30087099 59.0010489 321.06001546 59.00205746 324.81917763 58.99876404 C328.88653412 58.99525438 332.95384528 58.99943303 337.02120018 59.00444412 C338.22020423 59.0022134 339.41920828 58.99998268 340.65454578 58.99768436 C341.73714711 59.00029211 342.81974844 59.00289985 343.93515587 59.00558662 C344.8750187 59.00574898 345.81488153 59.00591133 346.78322506 59.0060786 C349.01704979 59.13142776 349.01704979 59.13142776 351.01704979 60.13142776 C351.52614125 62.13542365 351.94921017 64.16156082 352.32954979 66.19392776 C354.31944284 75.24249618 358.07030301 82.04550983 366.01704979 87.13142776 C371.19986669 89.48391203 376.41005094 90.43055291 382.01704979 91.13142776 C383.67740932 92.7917873 383.14418593 94.79630656 383.15545529 97.01469177 C383.15390669 97.71856728 383.15235809 98.42244279 383.15076256 99.14764786 C383.15302811 99.89029768 383.15529367 100.6329475 383.15762788 101.39810187 C383.16399639 103.90549876 383.1631367 106.412842 383.16231346 108.92024612 C383.16530317 110.71022996 383.16870526 112.50021314 383.17249107 114.29019547 C383.18135429 119.16615152 383.18367015 124.04209005 383.18430686 128.91805339 C383.185254 132.98142864 383.18893002 137.04479976 383.19247895 141.10817343 C383.2006323 150.6907154 383.20306238 160.27324796 383.20235252 169.855793 C383.20175146 179.7572538 383.21230699 189.65866016 383.22809619 199.56010717 C383.24114949 208.04671516 383.24653736 216.53330531 383.24589711 225.01992327 C383.24564148 230.09492659 383.24852857 235.16988158 383.25907516 240.24487495 C383.26871911 245.01609489 383.26886095 249.7872199 383.26155853 254.55844307 C383.26050806 256.31368014 383.26290275 258.06892301 383.26891899 259.82415009 C383.276577 262.21228829 383.27203568 264.60009358 383.26428795 266.98822403 C383.26943151 267.68986882 383.27457507 268.3915136 383.2798745 269.11442035 C383.24532104 273.90315651 383.24532104 273.90315651 381.01704979 276.13142776 C379.30053047 276.49010344 377.56733813 276.77152672 375.82954979 277.00642776 C366.83314964 278.52346779 361.76687053 282.71987395 355.89204979 289.63142776 C353.50683341 294.08383167 352.62714335 298.47258531 351.63033104 303.40095901 C351.01704979 306.13142776 351.01704979 306.13142776 350.01704979 307.13142776 C347.87036694 307.25539648 345.71962592 307.30943496 343.56954002 307.33675003 C342.89639763 307.34664963 342.22325523 307.35654922 341.52971458 307.36674881 C339.29506054 307.39844614 337.06038521 307.42315351 334.82564354 307.44783401 C333.28006995 307.46839645 331.73450207 307.48939273 330.18894005 307.51080704 C326.11354247 307.56610114 322.03809353 307.6154779 317.96260643 307.66365433 C313.80687939 307.71381593 309.65122727 307.76952981 305.49556541 307.82478714 C297.33612349 307.9324584 289.17661903 308.03388329 281.01704979 308.13142776 C282.2681056 311.35130952 283.5542576 314.10146956 285.51704979 316.94392776 C289.50863128 323.26196356 290.63225615 329.12228948 289.69673729 336.54939651 C288.69149405 340.36816537 286.78994964 343.36335688 284.58736229 346.61189651 C282.69181901 349.65325327 281.40136351 352.83072433 280.01704979 356.13142776 C294.41275109 356.20174325 308.80842546 356.2543258 323.20426369 356.28686428 C329.88964342 356.30228379 336.57490023 356.32365827 343.26021385 356.35774612 C349.7182001 356.39046683 356.17607532 356.40830762 362.63413811 356.41605949 C365.09155842 356.42158021 367.54897301 356.43236055 370.00634575 356.44861794 C373.46219329 356.4705609 376.91758853 356.47338762 380.3734951 356.47200394 C381.37763451 356.48278976 382.38177391 356.49357559 383.41634178 356.50468826 C396.44867867 356.44863829 409.11586451 352.91345092 418.82954979 343.88142776 C429.90722332 331.82084316 432.1758003 318.19745613 432.15076256 302.42422867 C432.15302811 301.36892556 432.15529367 300.31362246 432.15762788 299.22634047 C432.16394065 295.70226003 432.16314026 292.17821831 432.16231346 288.65413284 C432.16530667 286.12235337 432.16870958 283.59057435 432.17249107 281.05879593 C432.18040286 274.9019634 432.18354505 268.74514497 432.18410345 262.58830784 C432.18457959 257.58002746 432.18663922 252.57175022 432.18980408 247.56347084 C432.19860586 233.34416819 432.20322427 219.12487307 432.2024736 204.90556768 C432.20243365 204.13987446 432.20239369 203.37418124 432.20235252 202.58528519 C432.20231164 201.81865001 432.20227076 201.05201483 432.20222864 200.26214828 C432.20182245 187.8459956 432.21138656 175.42987328 432.22549089 163.01372937 C432.23988007 150.24540106 432.24675966 137.47708753 432.24589711 124.7087509 C432.24556599 117.54820103 432.24827572 110.38768297 432.25907516 103.22714043 C432.26917256 96.48922146 432.2688189 89.75138063 432.26155853 83.01345444 C432.26051563 80.54685683 432.26285803 78.080255 432.26891899 75.61366463 C432.65447387 49.29598533 432.65447387 49.29598533 421.76704979 25.81892776 C412.24416145 16.5124687 401.49884118 11.01370614 388.15156078 11 C387.12931157 10.99692105 387.12931157 10.99692105 386.08641085 10.9937799 C383.79812034 10.98811625 381.50989014 10.98956636 379.22159386 10.99098587 C377.56623506 10.98840187 375.91087688 10.98538861 374.25551957 10.98198247 C369.70268665 10.97391331 365.1498695 10.97212294 360.59703028 10.971385 C355.68821962 10.9695343 350.77941713 10.96198689 345.87061119 10.95524979 C335.13504214 10.94166659 324.39947683 10.93564178 313.66390061 10.93123913 C306.96089362 10.92847671 300.25788807 10.92423936 293.55488205 10.91973495 C274.99713577 10.90754236 256.43939064 10.89724299 237.88164043 10.89385986 C236.69385194 10.8936403 235.50606344 10.89342073 234.28228135 10.89319451 C233.09164735 10.89297623 231.90101335 10.89275796 230.67429954 10.89253306 C228.26161277 10.8920896 225.84892601 10.89164303 223.43623924 10.89119339 C222.23946272 10.89097196 221.04268619 10.89075053 219.80964371 10.89052239 C200.41712051 10.88657429 181.02463488 10.86911983 161.63212619 10.84583387 C141.72335964 10.8221209 121.81461194 10.80965804 101.90583104 10.80849195 C90.72729489 10.80757516 79.5488077 10.80182195 68.37028503 10.78367233 C58.85158586 10.76827212 49.33295077 10.76315044 39.81424151 10.77141044 C34.95835565 10.77531718 30.10259887 10.77438606 25.2467289 10.76035309 C20.79852978 10.74761589 16.35055675 10.74881014 11.90235796 10.7609438 C10.29601226 10.7629011 8.68965055 10.75982083 7.08332733 10.75109944 C-8.10814597 10.67386266 -21.49949983 13.15034162 -31.98295021 25.13142776 Z M46.01704979 69.13142776 C44.36704979 73.42142776 42.71704979 77.71142776 41.01704979 82.13142776 C34.20259823 92.68714684 26.8520423 96.18643026 15.01704979 100.13142776 C15.01704979 154.91142776 15.01704979 209.69142776 15.01704979 266.13142776 C20.95704979 268.60642776 20.95704979 268.60642776 27.01704979 271.13142776 C38.11893823 278.26835605 41.07604162 285.28480653 46.01704979 298.13142776 C66.14704979 298.13142776 86.27704979 298.13142776 107.01704979 298.13142776 C107.67704979 294.50142776 108.33704979 290.87142776 109.01704979 287.13142776 C112.36348386 278.938434 116.17807904 275.86262103 124.32954979 272.31892776 C130.93667713 268.89631675 133.17889224 265.17012643 136.26802635 258.56111526 C139.53202954 251.66621139 143.17892243 248.50648666 150.25533104 245.97127151 C153.70260103 245.2016318 156.51400143 245.11538498 160.01851463 245.36214066 C170.40897184 246.06813746 175.72149405 243.16803986 184.01704979 237.13142776 C190.48704584 234.97476241 199.18555103 234.74664894 205.39204979 237.81892776 C207.30063729 238.92829425 208.95876212 240.08196732 210.64204979 241.51033401 C216.2932014 245.93791039 221.50886533 245.34186167 228.36104393 245.11384964 C234.37019556 244.96909591 238.96862516 245.62888048 244.01704979 249.13142776 C244.84978416 249.68959183 245.68251854 250.24775589 246.54048729 250.82283401 C249.05693946 253.16861199 250.15563087 255.22227556 251.48848534 258.35994339 C255.00981125 266.56171963 259.18532439 270.40564789 267.29366112 274.07747269 C273.52356912 276.94765067 276.59341007 280.78587443 279.26704979 287.06892776 C280.15509802 290.69512472 280.55398418 294.42690293 281.01704979 298.13142776 C301.14704979 298.13142776 321.27704979 298.13142776 342.01704979 298.13142776 C343.66704979 293.84142776 345.31704979 289.55142776 347.01704979 285.13142776 C353.79095839 274.44370531 360.96902265 271.15143907 373.01704979 266.13142776 C373.01704979 211.35142776 373.01704979 156.57142776 373.01704979 100.13142776 C367.57204979 98.15142776 367.57204979 98.15142776 362.01704979 96.13142776 C349.92057083 89.21915408 347.25512844 82.75043225 342.01704979 69.13142776 C244.33704979 69.13142776 146.65704979 69.13142776 46.01704979 69.13142776 Z M180.95454979 251.25642776 C174.26887011 255.52388288 167.82521813 255.31983547 160.24556541 254.87752151 C154.99057022 254.71670258 152.17817601 255.62410552 148.01704979 259.13142776 C145.5927389 261.85058728 144.23380969 264.69072405 142.76704979 268.00642776 C138.76901778 276.08553695 133.20678104 279.16058174 125.25923729 282.90486526 C121.66062336 284.87344501 119.81269367 287.54014001 118.01704979 291.13142776 C118.02122209 293.05277284 118.03144423 294.974441 118.08296776 296.89509964 C118.33385874 306.65703982 117.62517659 313.54902887 111.89204979 321.69392776 C108.86152691 326.0503044 107.84460637 328.78568188 108.01704979 334.13142776 C109.7569347 337.86895832 111.73500995 340.74154916 114.14204979 344.06892776 C118.34131298 350.9277243 118.23705325 357.51497259 117.76802635 365.32039261 C117.58493043 370.47341413 118.77600038 373.17664545 122.01704979 377.13142776 C125.18702855 379.5809568 128.39260827 381.30462883 132.01704979 382.94392776 C139.39233878 386.58240367 142.40515162 392.70359229 145.79048729 399.88924026 C147.75906704 403.4878542 150.42576203 405.33578389 154.01704979 407.13142776 C155.80298738 407.12725501 157.58927226 407.11702258 159.37447166 407.0655098 C168.67959997 406.80891897 176.58471032 407.15495375 184.07954979 413.25642776 C187.58248277 416.08137371 190.35282824 417.14547429 194.85298729 417.36970901 C198.53746899 416.96401699 201.07912762 415.29208412 204.01704979 413.13142776 C211.97499356 407.37461738 218.65780694 406.80670037 228.20601463 407.3804512 C233.35903616 407.56354712 236.06226747 406.37247718 240.01704979 403.13142776 C242.46657883 399.96144901 244.19025086 396.75586929 245.82954979 393.13142776 C249.46802569 385.75613877 255.58921432 382.74332594 262.77486229 379.35799026 C266.37347622 377.38941052 268.22140591 374.72271552 270.01704979 371.13142776 C270.01287731 369.21000132 270.00265173 367.28825189 269.95113182 365.36751175 C269.70764391 355.89462482 270.03443322 348.70344848 276.14204979 341.06892776 C278.72147452 337.81240404 280.01788815 335.31495996 280.25533104 331.13924026 C279.65997751 326.12265478 276.70644753 322.12497156 273.89204979 318.06892776 C269.62459468 311.38324809 269.82864209 304.93959611 270.27095604 297.35994339 C270.43177497 292.1049482 269.52437204 289.29255398 266.01704979 285.13142776 C263.29789027 282.70711687 260.45775351 281.34818767 257.14204979 279.88142776 C249.0629406 275.88339576 245.98789582 270.32115901 242.24361229 262.37361526 C240.27503254 258.77500133 237.60833755 256.92707164 234.01704979 255.13142776 C232.09570472 255.13560007 230.17403656 255.1458222 228.25337791 255.19734573 C218.46576652 255.44889649 211.58395492 254.70514438 203.39204979 249.00642776 C194.62860374 242.93124852 188.96520572 245.69801345 180.95454979 251.25642776 Z M157.01704979 418.13142776 C157.01704979 438.59142776 157.01704979 459.05142776 157.01704979 480.13142776 C162.95390898 475.06738659 162.95390898 475.06738659 168.20454979 469.56892776 C172.32132972 464.90136081 176.52122734 460.32290178 180.76778221 455.77376175 C183.1723516 453.18407003 185.48245913 450.57249549 187.68892479 447.81111526 C190.01704979 445.13142776 190.01704979 445.13142776 193.01704979 444.00642776 C197.08066942 444.17574525 198.14298547 445.25736345 201.01704979 448.13142776 C202.668444 449.95242462 204.2788429 451.80201405 205.87642479 453.67049026 C208.96649791 457.22294659 212.17540533 460.661458 215.37788963 464.1123848 C217.92880768 466.86378367 220.46894081 469.62298108 222.97798729 472.41267776 C223.66864281 473.17971024 223.66864281 473.17971024 224.37325096 473.96223831 C225.63547735 475.36705253 226.89471073 476.77455427 228.15376854 478.18220901 C229.07609276 479.1470723 229.07609276 479.1470723 230.01704979 480.13142776 C230.34704979 480.13142776 230.67704979 480.13142776 231.01704979 480.13142776 C231.01704979 459.67142776 231.01704979 439.21142776 231.01704979 418.13142776 C219.91944419 416.3910643 219.91944419 416.3910643 212.01704979 420.13142776 C204.44057006 425.34025758 197.99212188 428.34547972 188.63814354 426.71736526 C184.37215249 425.4857922 181.11177305 423.58741419 177.51704979 421.00642776 C170.66416882 416.19508451 165.12836951 416.9726678 157.01704979 418.13142776 Z " fill="#000000" transform="translate(61.98295021057129,5.868572235107422)"/>
<path d="M0 0 C9.30716632 7.45286499 15.32338684 18.87303092 17.8515625 30.4453125 C18.60133578 40.36276809 19.11992673 51.27803023 14.8515625 60.4453125 C14.449375 61.33089844 14.0471875 62.21648437 13.6328125 63.12890625 C6.79596932 76.82158384 -3.28508093 85.76477064 -17.66796875 90.68359375 C-28.84725079 94.11660162 -43.39673075 94.26301716 -54.1484375 89.4453125 C-55.34919922 88.96964844 -55.34919922 88.96964844 -56.57421875 88.484375 C-69.84206546 82.66550599 -78.05674134 72.14003513 -83.4609375 59.0703125 C-87.950627 47.43879625 -88.0594529 32.62933333 -83.41015625 21.046875 C-76.03373775 5.83729381 -66.35857907 -3.70463305 -50.4375 -9.828125 C-32.66249135 -15.47002194 -14.68208962 -10.62449394 0 0 Z M-64.953125 12.12109375 C-73.15146146 20.80082719 -76.35217165 31.61417912 -76.1484375 43.4453125 C-74.74355825 55.95471602 -69.20266233 65.71681213 -59.53515625 73.7265625 C-50.9254607 79.92667059 -40.86325509 83.63166313 -30.1484375 82.4453125 C-17.30771452 80.32596987 -7.30769454 74.66733959 0.5078125 64.234375 C7.09623454 54.25485338 9.1295988 43.14970589 6.8515625 31.4453125 C3.90225705 19.69591729 -3.13668067 10.39253798 -13.42578125 4.0390625 C-31.4804736 -5.77265024 -50.4476221 -1.63412451 -64.953125 12.12109375 Z " fill="#000000" transform="translate(290.1484375,296.5546875)"/>
<path d="M0 0 C0.83349126 -0.00467997 1.66698252 -0.00935994 2.52573109 -0.01418173 C5.32875625 -0.02618243 8.13129707 -0.01665478 10.93432617 -0.00723267 C12.9397307 -0.01129611 14.94513298 -0.01663671 16.95053101 -0.02316284 C22.40498186 -0.0368692 27.85926297 -0.03152409 33.31371689 -0.02202559 C39.01383685 -0.01444617 44.71394199 -0.02146981 50.4140625 -0.02618408 C59.98757546 -0.03164665 69.56101905 -0.02443687 79.13452148 -0.01016235 C90.21301106 0.00616509 101.29133503 0.00087694 112.36982059 -0.01564157 C121.87050071 -0.02924215 131.37113089 -0.03118309 140.87181759 -0.02332556 C146.55101678 -0.01864119 152.23013805 -0.01804516 157.90933228 -0.02793503 C163.24778649 -0.03658164 168.58602655 -0.03062501 173.92445755 -0.01325226 C175.88729115 -0.00927507 177.85014267 -0.0104424 179.81296921 -0.01704025 C182.48542194 -0.02519728 185.15718167 -0.01500531 187.82958984 0 C189.0040427 -0.01003825 189.0040427 -0.01003825 190.20222187 -0.02027929 C195.3790403 0.03638432 195.3790403 0.03638432 197.93183899 1.67819786 C199.63341657 4.62580349 198.67700065 7.21486559 197.91479492 10.38095093 C194.76936293 11.95366692 191.40341013 11.52520059 187.94984436 11.52139282 C187.11720753 11.52436394 186.28457069 11.52733507 185.42670244 11.53039622 C182.62072129 11.53910749 179.81478268 11.5405935 177.00878906 11.54208374 C175.00353402 11.54671013 172.99827986 11.55173455 170.99302673 11.55712891 C165.53444047 11.57027061 160.07586651 11.5767011 154.61726689 11.58113956 C151.21041843 11.58406693 147.80357337 11.58817105 144.39672661 11.59264374 C133.74737439 11.60632221 123.09802989 11.61598763 112.44866949 11.61984563 C100.13677077 11.62432992 87.82498287 11.64189355 75.51311785 11.67084622 C66.00822376 11.69242579 56.50336093 11.70254788 46.99844259 11.70388675 C41.3158594 11.70493729 35.63338033 11.710898 29.95082283 11.72870636 C24.60830146 11.74512314 19.2659632 11.7473738 13.92342567 11.73856735 C11.95897178 11.73779358 9.99450829 11.7421841 8.03007889 11.7520256 C5.35540754 11.76464305 2.68139485 11.75892441 0.00672913 11.7484436 C-1.16874691 11.76052821 -1.16874691 11.76052821 -2.36796993 11.77285695 C-7.58650498 11.72478368 -7.58650498 11.72478368 -10.06751347 10.01423264 C-11.5389255 7.65278017 -11.4940006 6.10625441 -11.08520508 3.38095093 C-8.51691089 -0.73705069 -4.34320764 -0.03712213 0 0 Z " fill="#000000" transform="translate(162.085205078125,125.61904907226563)"/>
<path d="M0 0 C1.24895525 -0.00445668 1.24895525 -0.00445668 2.52314192 -0.0090034 C5.32912307 -0.01771467 8.13506168 -0.01920068 10.9410553 -0.02069092 C12.94631034 -0.02531731 14.9515645 -0.03034172 16.95681763 -0.03573608 C22.41540389 -0.04887778 27.87397785 -0.05530828 33.33257747 -0.05974674 C36.73942593 -0.06267411 40.14627099 -0.06677823 43.55311775 -0.07125092 C54.20246997 -0.08492939 64.85181447 -0.09459481 75.50117487 -0.09845281 C87.81307359 -0.10293709 100.1248615 -0.12050073 112.43672651 -0.1494534 C121.9416206 -0.17103297 131.44648343 -0.18115506 140.95140177 -0.18249393 C146.63398496 -0.18354447 152.31646403 -0.18950518 157.99902153 -0.20731354 C163.3415429 -0.22373032 168.68388116 -0.22598098 174.02641869 -0.21717453 C175.99087258 -0.21640076 177.95533607 -0.22079127 179.91976547 -0.23063278 C182.59443682 -0.24325023 185.26844951 -0.23753159 187.94311523 -0.22705078 C188.72676592 -0.23510719 189.51041661 -0.24316359 190.31781429 -0.25146413 C195.53734534 -0.20338168 195.53734534 -0.20338168 198.01345158 1.50716019 C199.50839601 3.8972057 199.51754016 5.38335205 199.03504944 8.14044189 C196.55698686 10.80239723 195.05485973 11.13838485 191.39932251 11.51796532 C189.90372115 11.53446473 188.40788282 11.53436477 186.9122467 11.52139282 C186.08677369 11.52607279 185.26130068 11.53075277 184.41081333 11.53557456 C181.64086471 11.54755416 178.87140811 11.53805579 176.10145569 11.52862549 C174.11723033 11.53268987 172.13300724 11.538031 170.14878845 11.54455566 C164.75631046 11.55825089 159.36400435 11.55292148 153.97152328 11.54341841 C148.33327006 11.53583326 142.69503174 11.54286423 137.05677795 11.5475769 C127.58759412 11.55303779 118.11848044 11.54583409 108.64930725 11.53155518 C97.69521621 11.51522806 86.74129267 11.52051633 75.7872057 11.53703439 C66.38924887 11.55063975 56.99134252 11.55257357 47.59337902 11.54471838 C41.97731975 11.54003665 36.36133927 11.53943078 30.74528503 11.54932785 C25.4659095 11.55798139 20.18675034 11.55200506 14.90739822 11.53464508 C12.96755966 11.53067162 11.02770294 11.53182892 9.08787155 11.53843307 C6.44428428 11.54660471 3.80139473 11.53638024 1.15785217 11.52139282 C0.38626046 11.52808499 -0.38533125 11.53477715 -1.18030453 11.54167211 C-5.38163967 11.49532314 -7.9217247 11.15076594 -10.96495056 8.14044189 C-10.70933733 5.79732059 -10.37224284 3.46200787 -9.96495056 1.14044189 C-6.81951857 -0.4322741 -3.45356577 -0.00380777 0 0 Z " fill="#000000" transform="translate(161.96495056152344,179.85955810546875)"/>
</svg>
