<?xml version="1.0" encoding="UTF-8"?>
<svg version="1.1" xmlns="http://www.w3.org/2000/svg" width="512" height="512">
<path d="M0 0 C0.64412032 -0.00175304 1.28824065 -0.00350607 1.95187977 -0.00531223 C4.10698822 -0.00995857 6.26202879 -0.00751027 8.41714001 -0.00507832 C9.979204 -0.00694698 11.54126753 -0.0092479 13.10333031 -0.01194364 C17.39360051 -0.01806123 21.68385122 -0.01792809 25.97412479 -0.01674926 C30.60204963 -0.01654525 35.22996821 -0.0220641 39.85789013 -0.02680683 C48.92399512 -0.03511369 57.99009361 -0.03786169 67.05620209 -0.03841921 C74.42535791 -0.03889435 81.79451158 -0.04094898 89.16366673 -0.04411983 C110.05555122 -0.05292644 130.94743058 -0.05753919 151.83931694 -0.05678936 C152.96563134 -0.0567494 154.09194573 -0.05670945 155.25239086 -0.05666828 C156.38008006 -0.0566274 157.50776925 -0.05658652 158.66963085 -0.0565444 C176.94728172 -0.05613791 195.22491199 -0.06570818 213.5025569 -0.07980665 C232.26890771 -0.0941679 251.03524848 -0.10107697 269.80160493 -0.10021287 C280.33789069 -0.09988082 290.87415486 -0.10263155 301.41043568 -0.11339092 C310.38089572 -0.1224926 319.35132438 -0.1246739 328.32178704 -0.1178815 C332.89804283 -0.11461464 337.47423839 -0.11456561 342.05048847 -0.12323475 C346.24196481 -0.13109328 350.4333331 -0.12967491 354.62480678 -0.12095062 C356.13890993 -0.11941421 357.65302111 -0.1212371 359.16711477 -0.12681069 C379.67418476 -0.19728401 379.67418476 -0.19728401 387.36786938 6.12863445 C392.68463012 11.48364527 395.58514179 15.88433137 395.61490834 23.68346292 C395.60751665 24.39883098 395.60012495 25.11419904 395.59250927 25.85124493 C395.59265715 26.62166392 395.59280502 27.39208291 395.59295738 28.18584794 C395.5912318 30.76364705 395.57538249 33.34116817 395.55976391 35.91891766 C395.55596488 37.76871858 395.55315652 39.61852176 395.55126476 41.46832561 C395.54582174 45.45051136 395.53483271 49.43263045 395.52000332 53.41479206 C395.49807131 59.71414352 395.49761811 66.01338058 395.50187206 72.31276226 C395.50306541 74.4703636 395.50423442 76.62796496 395.50537968 78.78556633 C395.50595993 79.86601451 395.50654018 80.9464627 395.50713801 82.05965173 C395.51316249 96.72328846 395.50077399 111.38672157 395.44697094 126.05026531 C395.41084033 135.94431728 395.40308769 145.8379563 395.42746913 155.73204964 C395.43915549 160.96624027 395.43607363 166.19950664 395.39796352 171.43359089 C395.36222068 176.35797438 395.36360563 181.28095611 395.39319324 186.20536709 C395.39740987 188.00970948 395.38800199 189.8141445 395.36376667 191.61832905 C394.97694374 201.16537076 394.97694374 201.16537076 398.12306881 209.90389347 C400.10194971 211.8851734 402.11690405 213.47522768 404.36786938 215.12863445 C418.76894865 232.4275181 421.79076682 252.34936394 420.36786938 274.12863445 C418.49862454 290.09761319 409.5088136 305.69647497 397.36786938 316.12863445 C396.55786983 316.61931408 395.74787029 317.10999371 394.91332531 317.61554241 C390.65901256 320.35916616 387.82509612 322.42136333 386.48163891 327.43779278 C386.19725031 331.52934744 386.21745702 335.51479504 386.34833813 339.6091032 C386.35726162 341.11024637 386.36102487 342.6114282 386.35988903 344.11259747 C386.36737343 348.04594508 386.43004864 351.97623492 386.50910473 355.90872478 C386.63022395 362.2112387 386.68345876 368.51382084 386.70505238 374.81737995 C386.72305912 377.01258956 386.77490011 379.2051342 386.8303175 381.39967632 C386.84422569 382.74836392 386.85704521 384.09706333 386.8686018 385.44577312 C386.90385212 387.20494312 386.90385212 387.20494312 386.93981457 388.99965191 C386.19271827 393.08684645 384.54409623 394.54697952 381.36786938 397.12863445 C377.90325643 398.19119111 374.88017046 397.95664996 371.36786938 397.12863445 C368.22387975 395.25940085 365.90228788 392.74365284 363.36786938 390.12863445 C361.30704981 388.16647853 359.21201217 386.24258098 357.11786938 384.31613445 C356.61013988 383.83620037 356.10241039 383.35626629 355.57929516 382.86178875 C352.97051613 380.4285094 350.58971213 378.63075628 347.36786938 377.12863445 C346.91983959 377.5568449 346.47180981 377.98505535 346.01020336 378.42624187 C343.9461844 380.39406219 341.87584582 382.35511051 339.80536938 384.31613445 C339.10089672 384.98966961 338.39642406 385.66320477 337.67060375 386.35715008 C326.96735702 396.4685122 326.96735702 396.4685122 321.89130688 397.7575407 C317.9546083 397.63586093 315.81808428 397.40063929 312.36786938 395.31613445 C309.00268739 391.63546665 309.24534921 388.43188591 309.25434399 383.63766766 C309.25419796 382.98374035 309.25405193 382.32981304 309.25390148 381.65606976 C309.25459749 379.49715119 309.26237529 377.33831917 309.27021313 375.1794157 C309.27207841 373.68154733 309.2735018 372.18367834 309.27450085 370.68580914 C309.27831731 366.74518427 309.28814018 362.80459631 309.29920483 358.86398602 C309.30943765 354.8421812 309.31400248 350.82037041 309.31904125 346.79855633 C309.32976322 338.90856544 309.3468292 331.01860454 309.36786938 323.12863445 C308.59966869 322.84415447 307.83146801 322.55967449 307.03998852 322.26657391 C303.6543197 320.82476464 301.49853318 318.81452146 298.80536938 316.31613445 C297.87595531 315.46406414 296.94654125 314.61199383 295.98896313 313.7341032 C293.36786938 311.12863445 293.36786938 311.12863445 291.94257259 308.50448322 C287.7354377 304.62228189 283.07094562 305.44854696 277.55152416 305.50958538 C276.32868528 305.5033464 275.1058464 305.49710742 273.8459518 305.49067938 C270.44945966 305.4783215 267.05435457 305.48837501 263.65798235 305.5077405 C259.99593953 305.52315672 256.33399199 305.50972318 252.67194653 305.49965191 C246.32478762 305.48602631 239.97784444 305.49034989 233.63069439 305.50648403 C224.44506936 305.52954429 215.25966065 305.52224622 206.07402846 305.50695284 C191.15991274 305.48266945 176.24586615 305.47847963 161.33173656 305.48898602 C159.99250065 305.48992175 159.99250065 305.48992175 158.62620947 305.49087639 C156.81928 305.49214767 155.01235054 305.49342191 153.20542108 305.4946991 C152.30963448 305.49533148 151.41384789 305.49596386 150.49091625 305.49661541 C149.14611373 305.49757263 149.14611373 305.49757263 147.77414347 305.49854919 C137.82459155 305.50535017 127.87504062 305.50734607 117.92548656 305.5075407 C116.58969973 305.50757495 116.58969973 305.50757495 115.22692731 305.50760989 C100.37386609 305.50754063 85.52083112 305.49550366 70.66778255 305.47658122 C61.50685855 305.46562134 52.34607214 305.46644162 43.18515489 305.48252095 C36.90571615 305.49299472 30.62633271 305.49321135 24.34689024 305.48540281 C20.72462895 305.4813188 17.10254367 305.48223121 13.48030376 305.49633503 C9.55084724 305.51156818 5.62162678 305.50368796 1.69214916 305.49371624 C0.55089588 305.50197441 -0.59035739 305.51023259 -1.76619411 305.51874101 C-9.42654707 305.47261848 -16.34075464 304.66004588 -22.38213062 299.44113445 C-22.91322437 299.00414227 -23.44431812 298.56715008 -23.99150562 298.1169157 C-29.42310894 291.53432978 -30.21285303 285.30542087 -30.14006519 276.97018719 C-30.14630516 275.86643718 -30.15254512 274.76268717 -30.15897417 273.62549019 C-30.17489264 269.93751707 -30.16230369 266.2502059 -30.14970875 262.5622282 C-30.15513037 259.9139441 -30.16210886 257.26570516 -30.17094898 254.6174345 C-30.18870777 248.1774721 -30.18490609 241.7376965 -30.17329842 235.29772687 C-30.16425393 230.06246331 -30.16304448 224.82725198 -30.16739368 219.59198284 C-30.16800662 218.84602901 -30.16861955 218.10007518 -30.16925105 217.33151668 C-30.17052999 215.81598479 -30.17182685 214.30045291 -30.17314142 212.78492105 C-30.18453948 198.58368331 -30.1714457 184.38254896 -30.14993995 170.18132818 C-30.13206965 158.00388111 -30.13517398 145.82658658 -30.153615 133.64914227 C-30.17503542 119.49769518 -30.18344091 105.34633865 -30.17116594 91.19487762 C-30.16989179 89.68501379 -30.1686343 88.17514993 -30.16739368 86.66528606 C-30.16677658 85.92246189 -30.16615948 85.17963772 -30.16552368 84.41430372 C-30.16207429 79.18713098 -30.16789024 73.96001581 -30.1773119 68.73285198 C-30.18854631 62.36006025 -30.1854617 55.98746552 -30.16418892 49.61469626 C-30.15369763 46.36499306 -30.15168733 43.11568468 -30.16278553 39.86597347 C-30.17371887 36.33934915 -30.16000235 32.8136473 -30.14006519 29.28708172 C-30.14898808 28.26528537 -30.15791097 27.24348902 -30.16710424 26.19072914 C-30.0865701 18.84442918 -28.55670221 13.46601833 -23.66728687 7.88644695 C-16.11363591 1.63411804 -9.83478922 0.00605501 0 0 Z " fill="#0E77F0" transform="translate(60.63213062286377,56.871365547180176)"/>
<path d="M0 0 C1.34544524 -0.00432935 2.69088493 -0.01084567 4.0363102 -0.01936007 C7.73251074 -0.03636745 11.42803483 -0.02215997 15.12419987 -0.00284529 C19.11063836 0.01256829 23.09699324 -0.00081666 27.08343506 -0.0105896 C34.89244926 -0.02512578 42.70120373 -0.01287253 50.51019335 0.00852364 C59.60125733 0.0325195 68.69226161 0.03082014 77.78335023 0.02821773 C94.00259347 0.02452638 110.22171423 0.04536323 126.44091797 0.07946777 C142.18443904 0.11255987 157.92783156 0.1267262 173.67138672 0.1204834 C190.80905115 0.11372123 207.94666169 0.11617469 225.08431816 0.1358428 C225.99033756 0.13688229 226.89635695 0.13792177 227.82983148 0.13899276 C229.64959731 0.14108368 231.46936312 0.14319465 233.2891289 0.14532593 C239.62824298 0.1522251 245.96734047 0.15289024 252.30645752 0.15144348 C260.03020605 0.1500046 267.75384967 0.15967946 275.47756338 0.18338984 C279.41942933 0.19525984 283.36114893 0.20236837 287.30303192 0.19655228 C290.91030588 0.1913871 294.51727046 0.20004483 298.12449145 0.21982688 C300.05019084 0.22682505 301.97592624 0.2191104 303.90162086 0.21090555 C305.61530892 0.22449051 305.61530892 0.22449051 307.36361694 0.23834991 C308.84216943 0.24070672 308.84216943 0.24070672 310.35059166 0.24311113 C313.55659247 0.6914421 315.44990995 1.73053335 318.05615234 3.62145996 C319.37557573 6.26030673 319.17905105 8.22070737 319.17640686 11.1769104 C319.17846886 12.94800674 319.17846886 12.94800674 319.18057251 14.75488281 C319.17697723 16.05679565 319.17338196 17.3587085 319.16967773 18.70007324 C319.16939578 20.07966103 319.16955376 21.45924897 319.17012024 22.83883667 C319.17040788 26.59067777 319.16451655 30.34248708 319.15754628 34.09432077 C319.15130719 38.0127792 319.1507085 41.9312383 319.14952087 45.84970093 C319.1464092 53.27282812 319.13819802 60.69594063 319.12817138 68.11906135 C319.11700516 76.56876356 319.11149851 85.01846647 319.10647595 93.46817422 C319.09601528 110.8526113 319.078419 128.23703408 319.05615234 145.62145996 C318.02604538 145.68227249 316.99593842 145.74308502 315.93461609 145.80574036 C314.5697621 145.89037252 313.20491998 145.97519605 311.84008789 146.06018066 C311.16272331 146.09966072 310.48535873 146.13914078 309.78746796 146.1798172 C291.7790066 147.32098878 275.11140527 156.33767856 262.64990234 169.08239746 C252.19694195 181.00306804 246.75701055 195.01794261 243.98583984 210.44567871 C243.81036621 211.41980713 243.63489258 212.39393555 243.45410156 213.39758301 C243.32277832 214.1314624 243.19145508 214.8653418 243.05615234 215.62145996 C210.38399251 215.73584885 177.71188452 215.82398004 145.0395702 215.87678661 C141.18425741 215.88304031 137.32894501 215.8895119 133.47363281 215.89611816 C132.70609406 215.89742972 131.9385553 215.89874127 131.1477578 215.90009256 C118.71203517 215.92186233 106.27642785 215.96129245 93.84077367 216.00722394 C81.08518157 216.05394498 68.32964996 216.08174612 55.5739758 216.09190243 C47.69993844 216.09877068 39.82622697 216.12048018 31.95228991 216.1610423 C25.91937757 216.19054155 19.88674688 216.19374515 13.85375404 216.18699837 C11.37530062 216.1883781 8.89683527 216.19837909 6.41845512 216.21748734 C3.04313766 216.24224248 -0.33076786 216.23642808 -3.70611572 216.22273254 C-5.18859924 216.24457885 -5.18859924 216.24457885 -6.70103192 216.26686651 C-13.20158163 216.19521596 -13.20158163 216.19521596 -16.55153942 213.60576916 C-18.33725562 209.77821923 -18.50228285 206.41251828 -18.45851135 202.27124023 C-18.46545688 201.43336771 -18.47240241 200.59549518 -18.47955841 199.73223257 C-18.49784705 196.92615697 -18.48755905 194.12092503 -18.47729492 191.31481934 C-18.4843524 189.30250922 -18.4930967 187.29020442 -18.50340271 185.27790833 C-18.52592424 179.81308011 -18.52295065 174.34854114 -18.51408124 168.88368416 C-18.50897543 164.32330717 -18.51626053 159.76298473 -18.52355331 155.20261335 C-18.54056075 144.4461844 -18.53697748 133.68989729 -18.52026367 122.93347168 C-18.5033355 111.83103385 -18.51918473 100.72898898 -18.55148655 89.62659407 C-18.57816128 80.09780194 -18.58546434 70.56913229 -18.57697147 61.04030657 C-18.57203683 55.34759837 -18.57428723 49.65512673 -18.59475899 43.96244812 C-18.61308311 38.6107088 -18.60719719 33.25953604 -18.58255959 27.90782738 C-18.5775416 25.94260632 -18.58106694 23.97734234 -18.59370804 22.01215553 C-18.60958969 19.33134152 -18.59473483 16.6524044 -18.57203674 13.97167969 C-18.58387247 13.19201009 -18.5957082 12.4123405 -18.60790259 11.60904455 C-18.54635206 8.03668808 -18.01117623 5.73753675 -16.21357632 2.63841248 C-11.02964159 -0.55932999 -5.97428502 -0.05980546 0 0 Z " fill="#F2FCFE" transform="translate(92.94384765625,101.3785400390625)"/>
<path d="M0 0 C0.97846071 -0.00654048 0.97846071 -0.00654048 1.9766883 -0.0132131 C4.1658278 -0.02417481 6.35433818 -0.01374357 8.54347324 -0.00342751 C10.12743899 -0.00688372 11.71140233 -0.01164805 13.29536062 -0.01760924 C17.65074983 -0.03015399 22.0059423 -0.02393308 26.3613323 -0.01465058 C31.05739492 -0.00787459 35.75342325 -0.01833415 40.4494791 -0.02659035 C49.65042814 -0.03994569 58.85130386 -0.03704184 68.0522558 -0.02835242 C75.52920871 -0.02158296 83.00614103 -0.02065597 90.48309612 -0.02392387 C91.54642505 -0.02438357 92.60975398 -0.02484327 93.705305 -0.0253169 C95.86531095 -0.02627606 98.02531689 -0.0272487 100.18532283 -0.02823468 C120.45063382 -0.03679395 140.71590413 -0.02694622 160.98120845 -0.01083358 C178.37548332 0.00256816 195.76969812 0.00024374 213.1639719 -0.01358986 C233.35419678 -0.0296395 253.54438597 -0.03596789 273.73461634 -0.02675307 C275.88707387 -0.0257974 278.0395314 -0.02485429 280.19198895 -0.02392387 C281.78063764 -0.02322963 281.78063764 -0.02322963 283.40138025 -0.02252137 C290.87014954 -0.01992949 298.33889622 -0.02430678 305.80766201 -0.03136253 C314.90853951 -0.03977097 324.00933938 -0.03751128 333.11020797 -0.0215203 C337.75496566 -0.01362846 342.39959385 -0.01056151 347.04435062 -0.02046776 C351.29497731 -0.02939638 355.54535425 -0.02451211 359.79595823 -0.0085351 C361.33493379 -0.00517949 362.87393038 -0.00689886 364.41289245 -0.01416247 C366.50324905 -0.02327293 368.59274796 -0.01394155 370.68305969 0 C372.42532795 0.00073059 372.42532795 0.00073059 374.20279354 0.00147593 C379.25248948 0.59458305 382.44247514 2.26166067 385.74938679 6.09757996 C387.70832625 9.97973324 387.89770354 12.51929265 387.88546848 16.85661888 C387.88888618 17.58861775 387.89230388 18.32061662 387.89582515 19.07479727 C387.90238996 21.51644222 387.88045249 23.95697664 387.85855198 26.39851952 C387.85742319 28.15307654 387.85805797 29.90763546 387.860322 31.66219139 C387.86146886 36.41804878 387.83796404 41.17350198 387.81002617 45.9292655 C387.78500789 50.90203835 387.78267017 55.87482064 387.77792454 60.84764671 C387.76549603 70.26110029 387.73267605 79.67436788 387.69252658 89.08773959 C387.64780504 99.8059073 387.62582085 110.52408393 387.60574484 121.24232173 C387.56394336 143.28749274 387.49359366 165.33249636 387.40445042 187.37752342 C385.98052868 186.91365724 384.55753086 186.4469544 383.13491917 185.97908592 C381.94612156 185.58970848 381.94612156 185.58970848 380.73330784 185.19246483 C378.66803391 184.46975969 376.70697033 183.65770705 374.71695042 182.75252342 C371.53849215 181.43316339 368.78802866 180.87914481 365.40445042 180.37752342 C365.40390565 179.64276031 365.40336088 178.90799721 365.40279961 178.15096855 C365.38781919 160.25591816 365.34532145 142.36112565 365.27235985 124.46621513 C365.23773634 115.81227372 365.2123578 107.15849116 365.20889378 98.50447655 C365.2058502 90.95984587 365.18530699 83.41549829 365.14392585 75.87097692 C365.12262962 71.87772858 365.10997767 67.88488236 365.11829662 63.89157677 C365.12585846 60.12879468 365.10992896 56.36682593 365.07639027 52.60419273 C365.06428427 50.57326366 365.07671862 48.54223413 365.09001255 46.51131248 C364.99771185 39.12944573 364.50705799 33.90771228 359.40445042 28.37752342 C352.931296 22.56148127 346.29035765 22.66855027 337.93020725 22.74260521 C336.56368489 22.73683812 335.19717029 22.72889306 333.83067179 22.71896899 C330.09005783 22.69815237 326.35008407 22.70838667 322.60946822 22.72390008 C318.56983813 22.73523114 314.53031673 22.71774221 310.49070835 22.70400047 C302.58285819 22.68178218 294.67524549 22.68656293 286.76738608 22.70106368 C280.33980305 22.71236148 273.9122865 22.71388448 267.48469639 22.7084446 C266.56944552 22.70767843 265.65419465 22.70691226 264.71120891 22.70612288 C262.85182001 22.70452424 260.99243113 22.70290317 259.13304228 22.70125993 C241.70275108 22.68700655 224.27259143 22.70338869 206.84232181 22.73026176 C191.89047199 22.75260017 176.93881627 22.74871992 161.98696995 22.72566795 C144.61851541 22.69890267 127.25017613 22.68837981 109.88170385 22.70372927 C108.02920407 22.705322 106.17670427 22.70689385 104.32420444 22.7084446 C102.9570521 22.70960166 102.9570521 22.70960166 101.56228051 22.7107821 C95.14336524 22.71509692 88.72452317 22.70781726 82.30561924 22.69604683 C74.48170466 22.68201521 66.65804086 22.68583564 58.83415496 22.71245055 C54.84319279 22.72557993 50.85264853 22.73075644 46.86168957 22.71420479 C43.20609584 22.69927342 39.55130623 22.70754466 35.89578515 22.73409255 C33.95155751 22.7422977 32.00727378 22.72602801 30.06310511 22.7088064 C22.985021 22.7880928 17.63818176 23.30189583 12.40445042 28.37752342 C7.8062011 33.64981569 6.67279449 38.3625984 6.77626133 45.22017479 C6.76916694 46.0748281 6.76207255 46.92948142 6.75476319 47.81003332 C6.73725234 50.65526213 6.75525239 53.49911227 6.7733469 56.3443203 C6.76820544 58.39161359 6.76092246 60.43890245 6.75166416 62.48618126 C6.733171 68.0337556 6.74607587 73.58084849 6.76575446 79.12840271 C6.78215931 84.93959791 6.7733255 90.75076305 6.76823521 96.56197166 C6.76371632 106.32006569 6.77957153 116.07796791 6.80752659 125.83601952 C6.83957742 137.11053736 6.83956199 148.38470929 6.82231182 159.65925169 C6.80643677 170.51420323 6.81318664 181.36902821 6.83024883 192.22397423 C6.83711346 196.83943624 6.83609287 201.45479662 6.82870388 206.07025719 C6.82103124 211.50736044 6.83319952 216.94407099 6.86055279 222.38110733 C6.86742737 224.37408788 6.86754456 226.36710516 6.86033726 228.36008453 C6.85161859 231.08544896 6.86763926 233.80960813 6.88978672 236.53487206 C6.88154595 237.31932056 6.87330519 238.10376906 6.8648147 238.91198874 C6.94750925 244.44376129 8.022976 248.90710796 11.40445042 253.37752342 C16.9948903 258.71094815 22.80851239 259.09536151 30.23036289 259.01003075 C31.29821634 259.01768086 32.36606979 259.02533097 33.46628243 259.0332129 C37.03252932 259.05276607 40.59771966 259.03686812 44.1639719 259.02107811 C46.7250798 259.02789511 49.28618265 259.03691771 51.84727573 259.04797935 C57.35517365 259.06692149 62.86275002 259.07073347 68.37066555 259.06080437 C76.33510367 259.04656067 84.2992934 259.06086209 92.26370633 259.08222631 C105.18815482 259.11621735 118.11252901 259.12875561 131.03701878 259.12703514 C143.58619306 259.12542417 156.13531728 259.13146235 168.68447971 259.14949608 C169.45843137 259.15060405 170.23238303 259.15171203 171.02978777 259.15285358 C179.47306052 259.1651324 187.91632976 259.17924325 196.35959816 259.19419289 C198.59638628 259.19812372 200.83317441 259.20204694 203.06996255 259.20596012 C204.54396289 259.20855282 206.01796317 259.21117639 207.49196339 259.21383134 C216.88236473 259.23060986 226.27272687 259.23933908 235.66314304 259.23950815 C241.03320304 259.23974515 246.40325682 259.24449065 251.77331448 259.2494812 C254.27397726 259.25084869 256.77464167 259.25045815 259.27530384 259.2482338 C262.67269689 259.24535051 266.07003347 259.24841791 269.46742344 259.25295067 C270.4707002 259.25051818 271.47397695 259.24808568 272.50765604 259.24557948 C273.8617665 259.24916591 273.8617665 259.24916591 275.24323273 259.25282478 C276.42088571 259.2527463 276.42088571 259.2527463 277.62232965 259.25266623 C279.40445042 259.37752342 279.40445042 259.37752342 280.40445042 260.37752342 C280.70415313 262.03924144 280.96874222 263.70733745 281.21695042 265.37752342 C282.04162565 270.20596545 283.43093292 274.22294249 285.59976292 278.60017967 C286.40445042 280.37752342 286.40445042 280.37752342 286.40445042 282.37752342 C249.30753112 282.4690556 212.21062882 282.53955027 175.11361947 282.58178474 C170.73513976 282.58678764 166.35666027 282.59196492 161.97818089 282.59724998 C161.10649523 282.59829923 160.23480958 282.59934847 159.33670922 282.60042951 C145.21783427 282.61784027 131.09902439 282.64938166 116.98018806 282.68613461 C102.49566419 282.72352534 88.01117444 282.74575532 73.52660429 282.7538774 C64.58701619 282.75936906 55.64761199 282.77672117 46.70808049 282.80918929 C40.57999305 282.83031414 34.45200086 282.83672808 28.32387964 282.83152893 C24.78689473 282.82896396 21.25023146 282.8329279 17.71330357 282.85434532 C13.87922518 282.87739267 10.04556691 282.86948402 6.21142673 282.85854149 C5.09274688 282.87019285 3.97406703 282.88184422 2.82148778 282.89384866 C-3.32102345 282.84631173 -6.90591036 282.4595673 -11.59554958 278.37752342 C-12.19367458 277.86189842 -12.79179958 277.34627342 -13.40804958 276.81502342 C-15.67790286 274.0673063 -15.72211579 271.31830901 -15.72977066 267.91777134 C-15.7342285 266.99936535 -15.73868635 266.08095936 -15.74327928 265.13472289 C-15.74309492 264.12423473 -15.74291055 263.11374657 -15.7427206 262.07263756 C-15.74639729 261.00033341 -15.75007398 259.92802926 -15.75386208 258.82323104 C-15.76491953 255.21201057 -15.76874624 251.60081885 -15.77255154 247.98958397 C-15.77881454 245.40777558 -15.78546119 242.82596809 -15.79246426 240.24416161 C-15.81222449 232.48410531 -15.82229367 224.72404771 -15.83119205 216.96397254 C-15.8355751 213.31019917 -15.84094181 209.65642725 -15.84618092 206.00265503 C-15.86319168 193.8581653 -15.8776866 181.71367648 -15.88492966 169.56917667 C-15.88683956 166.41780852 -15.8887599 163.26644038 -15.8907156 160.11507225 C-15.89119934 159.33181093 -15.89168308 158.54854961 -15.89218148 157.74155311 C-15.90048463 145.04872743 -15.925827 132.35599591 -15.95829628 119.66321137 C-15.99135461 106.63404254 -16.00937725 93.60492159 -16.0125739 80.57571059 C-16.01473999 73.25932622 -16.0235031 65.94307921 -16.04903507 58.62673569 C-16.07299129 51.74604075 -16.07657548 44.865597 -16.06627369 37.984869 C-16.06577664 35.45727593 -16.07214645 32.92967095 -16.08582973 30.40211487 C-16.10344659 26.95556374 -16.096492 23.50991099 -16.08329678 20.06336021 C-16.09426602 19.05956422 -16.10523527 18.05576823 -16.11653692 17.02155417 C-16.06377372 11.32624796 -15.58328899 7.78049407 -11.59554958 3.37752342 C-7.64709332 0.48508278 -4.85602769 0.00203656 0 0 Z " fill="#C6DCF6" transform="translate(57.59554958343506,68.62247657775879)"/>
<path d="M0 0 C1.38919565 -0.01059839 1.38919565 -0.01059839 2.80645585 -0.02141088 C3.82044883 -0.0189958 4.8344418 -0.01658071 5.87916183 -0.01409245 C6.95907638 -0.01932912 8.03899093 -0.0245658 9.15163016 -0.02996117 C12.78274798 -0.04500424 16.41372541 -0.04566728 20.04487228 -0.04633427 C22.64328882 -0.05395288 25.24170309 -0.06237986 27.84011459 -0.07155704 C34.90837066 -0.09440649 41.97659669 -0.10232767 49.04488468 -0.10738349 C53.45918919 -0.11064075 57.87348499 -0.11716343 62.28778458 -0.12438488 C74.51208973 -0.14395118 86.73638679 -0.16035506 98.96070862 -0.16326141 C99.74297262 -0.16344898 100.52523662 -0.16363655 101.33120559 -0.16382981 C102.91701905 -0.16419606 104.50283251 -0.16455975 106.08864596 -0.16492092 C106.87583639 -0.16510373 107.66302682 -0.16528654 108.4740715 -0.16547489 C109.26222393 -0.16565544 110.05037635 -0.16583599 110.86241218 -0.16602201 C123.63145211 -0.16956316 136.40032333 -0.19658162 149.16930476 -0.23397278 C162.28214296 -0.27206322 175.39489748 -0.29141895 188.50779223 -0.29172093 C195.8689635 -0.29230535 203.22993356 -0.3007876 210.59105301 -0.32971859 C217.51531978 -0.35680762 224.439182 -0.35813099 231.36348152 -0.34206295 C233.90474884 -0.34024459 236.44603882 -0.34697383 238.987257 -0.36288166 C242.45731429 -0.38327925 245.92596851 -0.37282544 249.39600754 -0.35466862 C250.90361267 -0.37446857 250.90361267 -0.37446857 252.44167447 -0.39466852 C260.10532688 -0.30311462 264.79622001 1.98400684 270.41498947 7.10381222 C274.57786925 12.20514466 276.92052258 16.15635917 276.70014572 23.01396847 C275.73390859 30.0467071 272.97112985 35.54054989 267.46577072 40.00615597 C260.74018036 44.07190833 255.45898061 44.69625317 247.70849228 44.6544714 C246.11139356 44.66360805 246.11139356 44.66360805 244.48203021 44.67292929 C240.92010497 44.68955646 237.35853731 44.68478371 233.79658127 44.67998409 C231.24037429 44.68732459 228.68417062 44.69591076 226.12797165 44.70564938 C219.90847657 44.72556873 213.6891127 44.73124581 207.46959003 44.72946149 C202.4121461 44.72815237 197.35473118 44.73196566 192.29729271 44.73938656 C190.83887333 44.74148583 189.38045395 44.74358343 187.92203456 44.74567938 C187.19606627 44.74672291 186.47009797 44.74776643 185.72213063 44.74884158 C172.000139 44.76773304 158.27820086 44.76669723 144.55620161 44.75987226 C132.01502365 44.75429859 119.47405009 44.77511654 106.93291988 44.80823272 C94.04371096 44.84200281 81.15459985 44.85713387 68.26534587 44.8525157 C61.03383219 44.85027422 53.80250737 44.85546671 46.57103157 44.88040829 C39.76898411 44.90366966 32.96743091 44.90079849 26.16535187 44.88048077 C23.67169171 44.87707038 21.17800295 44.8821609 18.68438148 44.89646435 C15.27428085 44.91467194 11.86562033 44.90189435 8.45556259 44.88152218 C7.47392834 44.89404003 6.49229409 44.90655787 5.48091334 44.91945505 C-2.01229293 44.82379796 -8.42692949 42.79972402 -14.2290476 37.88822222 C-18.44769369 33.27311653 -20.68171038 27.4521022 -21.04594803 21.26006222 C-20.77096441 15.639397 -18.57001667 11.30604262 -14.70219803 7.27178097 C-10.10354619 3.12784657 -6.38355655 0.01558381 0 0 Z " fill="#1179F0" transform="translate(115.60844802856445,127.7399377822876)"/>
<path d="M0 0 C1.19206055 -0.01160156 1.19206055 -0.01160156 2.40820312 -0.0234375 C18.89494973 0.03022156 33.59793002 7.33130347 45.65625 18.2890625 C57.6042646 30.57984801 62.99542318 46.30193285 62.85351562 63.10668945 C62.52050254 79.05894106 55.43997944 94.4776316 44.25390625 105.8515625 C29.99268899 118.56039762 14.46986387 123.03257652 -4.25976562 122.37744141 C-20.06838702 121.45231805 -32.47710476 114.33061896 -43.4375 103.25 C-43.98792969 102.73308594 -44.53835938 102.21617187 -45.10546875 101.68359375 C-48.9003151 97.78700889 -51.24041651 93.11703223 -53.6875 88.3125 C-54.20014404 87.30981079 -54.20014404 87.30981079 -54.72314453 86.28686523 C-61.06430101 73.33441332 -61.79837368 56.88019542 -57.8125 43.0625 C-51.51825995 26.21937681 -40.16765206 12.69374475 -23.8125 4.875 C-15.80435006 1.26427245 -8.68539605 -0.08412006 0 0 Z " fill="#F3FDFE" transform="translate(407.4375,257.75)"/>
<path d="M0 0 C0.9085725 -0.00583219 1.817145 -0.01166439 2.75325 -0.01767331 C4.25249615 -0.01200433 4.25249615 -0.01200433 5.78203011 -0.00622082 C6.84278916 -0.01004636 7.90354822 -0.01387191 8.9964515 -0.01781338 C12.56859225 -0.02817318 16.14057316 -0.02414555 19.71272469 -0.02018261 C22.26659991 -0.02452745 24.82047382 -0.02970983 27.37434578 -0.03567028 C33.60205144 -0.04770052 39.82969769 -0.05020862 46.05741273 -0.04787002 C51.11880258 -0.04608863 56.18017933 -0.04783265 61.24156761 -0.05209446 C62.32118337 -0.05298724 62.32118337 -0.05298724 63.42260955 -0.05389806 C64.88467629 -0.05510979 66.34674303 -0.05632392 67.80880977 -0.05754044 C81.52824019 -0.06842337 95.24764605 -0.06625005 108.96707787 -0.06015559 C121.52153468 -0.05498688 134.07591388 -0.06623932 146.63035534 -0.08525381 C159.51601322 -0.10462056 172.40163437 -0.11289019 185.2873069 -0.10913056 C192.52370133 -0.1072166 199.76002971 -0.10972489 206.99641228 -0.1238451 C213.80075676 -0.13698765 220.60492056 -0.13451467 227.40927315 -0.12143421 C229.90986495 -0.11906068 232.41046758 -0.12183071 234.91104698 -0.13005733 C238.31841934 -0.14046076 241.72526313 -0.13247529 245.13261604 -0.11974621 C246.12765203 -0.12712049 247.12268802 -0.13449478 248.14787662 -0.14209253 C253.10222278 -0.10302032 256.59071844 -0.02613384 260.58430672 3.25447559 C263.32248669 6.4490189 263.58430672 7.99126643 263.58430672 12.25447559 C262.8624826 16.49719732 260.97833228 18.58774122 257.58430672 21.25447559 C254.78806368 22.18655661 253.09553412 22.38362287 250.2054348 22.39428329 C249.30506249 22.39997454 248.40469018 22.40566578 247.47703385 22.41152948 C246.48668256 22.41270936 245.49633126 22.41388924 244.47596931 22.41510487 C242.89919808 22.4227366 242.89919808 22.4227366 241.29057288 22.4305225 C237.75079019 22.44628068 234.21102797 22.4547809 230.67122078 22.46321583 C228.14029497 22.47275145 225.60937048 22.48264248 223.07844734 22.49286366 C215.47115506 22.52156586 207.86385994 22.54133299 200.25653327 22.558256 C198.10795122 22.56305144 195.95936967 22.5680347 193.81078815 22.57306123 C180.4683786 22.60403026 167.1259647 22.63071533 153.78352928 22.64748001 C150.69335866 22.6514295 147.60318812 22.6554325 144.51301765 22.65950489 C143.36094875 22.66101743 143.36094875 22.66101743 142.18560573 22.66256053 C129.74236336 22.67956928 117.2993198 22.7206814 104.8561745 22.77152788 C92.08125613 22.82330078 79.30644002 22.85242171 66.53141761 22.8596769 C59.35855836 22.86433931 52.1860248 22.87909197 45.01326942 22.9194212 C38.26625435 22.95731075 31.51989289 22.96472061 24.77275276 22.95141506 C22.29555476 22.95146913 19.81833254 22.96181273 17.34122658 22.98316669 C13.96033503 23.01075533 10.58148565 23.00137893 7.20057869 22.98273182 C5.72843607 23.00792421 5.72843607 23.00792421 4.2265532 23.03362554 C-1.6129925 22.9530789 -4.84120042 21.94412738 -9.1417048 17.93199784 C-10.99889757 15.4865423 -11.55916436 13.25374061 -11.69303703 10.21541309 C-11.21708548 6.85023454 -9.58305473 4.78306394 -7.41569328 2.25447559 C-4.27637206 0.16159478 -3.57210505 0.00393937 0 0 Z " fill="#C5DBF6" transform="translate(117.41569328308105,138.7455244064331)"/>
<path d="M0 0 C1.00385758 -0.00782324 2.00771516 -0.01564648 3.04199266 -0.02370679 C4.14790994 -0.01701463 5.25382722 -0.01032246 6.39325714 -0.00342751 C8.1518963 -0.01044746 8.1518963 -0.01044746 9.94606352 -0.01760924 C13.2058591 -0.02752725 16.46532142 -0.02392753 19.72510886 -0.01465058 C23.23845713 -0.00787979 26.75175937 -0.0183315 30.26509857 -0.02659035 C37.14988256 -0.03995101 44.03456859 -0.0370396 50.91935647 -0.02835242 C56.51328024 -0.02158544 62.10717652 -0.02065488 67.70110321 -0.02392387 C68.49635925 -0.02438357 69.29161529 -0.02484327 70.11096999 -0.0253169 C71.7263672 -0.02627605 73.34176441 -0.02724869 74.95716161 -0.02823468 C90.11533099 -0.0367954 105.273446 -0.02694375 120.43160647 -0.01083358 C133.4463978 0.00257023 146.46110886 0.00024233 159.47589874 -0.01358986 C174.57872544 -0.02963364 189.68150445 -0.03597136 204.78433847 -0.02675307 C206.39389196 -0.02579739 208.00344546 -0.02485428 209.61299896 -0.02392387 C210.40499151 -0.02346105 211.19698406 -0.02299822 212.01297638 -0.02252137 C217.60210482 -0.01992787 223.19120308 -0.02431022 228.78032684 -0.03136253 C235.58886202 -0.0397644 242.39729339 -0.03752518 249.20581663 -0.0215203 C252.68162461 -0.01361978 256.15725936 -0.01057605 259.63306618 -0.02046776 C263.39583438 -0.0286123 267.15810868 -0.01844722 270.92084503 -0.00342751 C272.02676231 -0.01011967 273.13267959 -0.01681184 274.27210951 -0.02370679 C275.27596709 -0.01588355 276.27982467 -0.00806031 277.31410217 0 C278.18317467 0.00048706 279.05224717 0.00097411 279.9476552 0.00147593 C282.65766283 0.46272942 283.54970378 1.17449239 285.15705109 3.37752342 C285.46955109 6.44002342 285.46955109 6.44002342 285.15705109 9.37752342 C282.64934258 11.88523193 281.86798293 11.6279215 278.40312195 11.6292057 C276.88894692 11.63702895 276.88894692 11.63702895 275.34418249 11.64501023 C274.22688836 11.64054879 273.10959422 11.63608735 271.95844269 11.63149071 C270.18777616 11.63617068 270.18777616 11.63617068 268.3813386 11.6409452 C265.0945835 11.64756457 261.80805543 11.64515207 258.52131391 11.63897276 C254.98071063 11.63446364 251.44012777 11.64142434 247.8995285 11.6469326 C240.9594809 11.65584478 234.01947645 11.6538965 227.07942712 11.64810732 C221.44113902 11.64359799 215.80286305 11.64297476 210.16457367 11.64515495 C209.3633427 11.64546142 208.56211172 11.64576789 207.73660102 11.64608364 C206.10912255 11.64672306 204.48164408 11.64737149 202.85416561 11.64802882 C187.57872706 11.65373746 172.30331249 11.64716587 157.02787787 11.63642809 C143.9093025 11.62749209 130.79076253 11.62904398 117.67218781 11.63826561 C102.45292309 11.64895883 87.2336794 11.65318809 72.01441145 11.64704108 C70.3927838 11.64640396 68.77115616 11.64577522 67.1495285 11.64515495 C66.35157204 11.6448464 65.55361557 11.64453785 64.7314786 11.64421995 C59.09731474 11.64249016 53.46316418 11.64541421 47.82900238 11.65011406 C40.96663717 11.65571238 34.10431773 11.65422864 27.24195778 11.64355257 C23.73795941 11.63828166 20.23403747 11.63626311 16.7300396 11.64285088 C12.93853595 11.64987158 9.14715858 11.64151185 5.35565948 11.63149071 C3.67971828 11.63818287 3.67971828 11.63818287 1.96991968 11.64501023 C0.45574465 11.63718699 0.45574465 11.63718699 -1.08901978 11.6292057 C-1.96508959 11.628881 -2.84115941 11.62855629 -3.7437768 11.62822175 C-5.84294891 11.37752342 -5.84294891 11.37752342 -7.84294891 9.37752342 C-8.40002092 4.14104659 -8.40002092 4.14104659 -6.62610197 1.70971239 C-4.29003443 -0.03555753 -2.90238199 0.00162659 0 0 Z " fill="#147AF0" transform="translate(104.84294891357422,196.6224765777588)"/>
<path d="M0 0 C0.80828438 -0.00538554 1.61656876 -0.01077108 2.4493466 -0.01631981 C5.16711377 -0.03066673 7.88439848 -0.0234792 10.60218811 -0.01637268 C12.54685866 -0.02207274 14.49152586 -0.02903558 16.43618774 -0.03717041 C21.72541418 -0.05515734 27.01447522 -0.05392304 32.3037231 -0.04822803 C36.71496647 -0.04514411 41.12617771 -0.05121973 45.53741652 -0.05726677 C55.94184658 -0.07132861 66.34619457 -0.06973696 76.75062561 -0.05836487 C87.49399094 -0.046882 98.23710669 -0.06095847 108.98043913 -0.08776134 C118.1957904 -0.10989364 127.41106318 -0.1165613 136.62643915 -0.11068493 C142.13411689 -0.10730823 147.64163462 -0.10977763 153.14929008 -0.12693596 C158.32774552 -0.14236365 163.50583029 -0.13849603 168.68427086 -0.11963081 C170.58702268 -0.11593332 172.48980171 -0.119087 174.39252853 -0.1295166 C176.98599443 -0.14264919 179.57821917 -0.13124851 182.17163086 -0.11352539 C183.30669592 -0.1279329 183.30669592 -0.1279329 184.46469158 -0.14263147 C187.94262448 -0.09357693 189.83118977 0.15068482 192.65572453 2.25494289 C194.14930725 4.38768005 194.14930725 4.38768005 194.02430725 7.01268005 C193.14930725 9.38768005 193.14930725 9.38768005 191.14930725 11.38768005 C188.52302638 11.58744389 186.00183789 11.66133372 183.37417603 11.64837646 C182.15584742 11.65411479 182.15584742 11.65411479 180.91290611 11.65996903 C178.17596789 11.67033422 175.43923808 11.66630026 172.70228577 11.66233826 C170.74629013 11.66668279 168.79029619 11.67186507 166.83430481 11.67782593 C161.50999238 11.69125505 156.18575076 11.69179026 150.86142468 11.68926263 C146.42280499 11.68819556 141.98419979 11.6930695 137.54558319 11.69786805 C127.07746139 11.70897679 116.60937546 11.70939298 106.14125061 11.70335388 C95.32806108 11.69731181 84.5150016 11.70962795 73.70183426 11.73092395 C64.43047775 11.74851465 55.15916273 11.75454532 45.88779014 11.75128621 C40.34494268 11.74946915 34.80218797 11.75215145 29.25935555 11.76600075 C24.04814508 11.77853337 18.83713796 11.77667846 13.62593079 11.76358986 C11.70985789 11.76121453 9.79377089 11.76399275 7.87771416 11.77221298 C5.26871081 11.78260164 2.66039981 11.77464381 0.05142212 11.76190186 C-0.71277383 11.76927614 -1.47696977 11.77665043 -2.26432317 11.78424817 C-7.3548808 11.73168554 -7.3548808 11.73168554 -9.82113743 10.02054119 C-11.308745 7.66121523 -11.26036801 6.11884848 -10.85069275 3.38768005 C-8.29045165 -0.65810739 -4.30330263 -0.03407782 0 0 Z " fill="#1078F0" transform="translate(197.85069274902344,224.61231994628906)"/>
<path d="M0 0 C5.28 1.32 10.56 2.64 16 4 C19.60959095 4.29785436 22.81036583 4.49352666 26.375 4.375 C27.22223633 4.36065918 28.06947266 4.34631836 28.94238281 4.33154297 C34.80161844 4.17913511 40.34326145 3.57998559 46 2 C48.64 1.34 51.28 0.68 54 0 C54 18.48 54 36.96 54 56 C46.14298481 49.26541555 46.14298481 49.26541555 43.140625 46.421875 C42.49996094 45.81859375 41.85929687 45.2153125 41.19921875 44.59375 C39.88369244 43.34940447 38.5685983 42.10460191 37.25390625 40.859375 C36.30064453 39.9621875 36.30064453 39.9621875 35.328125 39.046875 C34.7599707 38.50901367 34.19181641 37.97115234 33.60644531 37.41699219 C31.3276659 35.40695637 29.60859906 34.08300185 26.56005859 33.66723633 C23.34111132 34.08564422 22.32187205 35.05201759 20.0390625 37.32421875 C19.31976563 38.02353516 18.60046875 38.72285156 17.859375 39.44335938 C17.12203125 40.18392578 16.3846875 40.92449219 15.625 41.6875 C14.16279955 43.13290839 12.69670643 44.57439053 11.2265625 46.01171875 C10.58283691 46.65584717 9.93911133 47.29997559 9.27587891 47.96362305 C6.38371175 50.5514332 3.15801901 52.74427214 0 55 C0 36.85 0 18.7 0 0 Z " fill="#C7DDF6" transform="translate(382,386)"/>
<path d="M0 0 C1.26895111 -0.00708481 2.53790222 -0.01416962 3.8453064 -0.02146912 C5.25950658 -0.01917508 6.67370642 -0.01666535 8.08790588 -0.01396179 C9.57100177 -0.01830697 11.0540954 -0.02348946 12.53718567 -0.02944946 C16.57228912 -0.04287196 20.6072991 -0.04341452 24.64242053 -0.04088616 C28.00738028 -0.03981861 31.37232094 -0.04469428 34.73727661 -0.04949158 C42.67399169 -0.06059809 50.61065945 -0.06101781 58.54737854 -0.05497742 C66.74306872 -0.04893596 74.9385873 -0.06125034 83.1342482 -0.08254749 C90.16358775 -0.10014415 97.19287258 -0.1061679 104.22223336 -0.10290974 C108.42369979 -0.10109359 112.62504384 -0.10376595 116.8264904 -0.11762428 C120.77701112 -0.13016661 124.72726372 -0.12829292 128.67778015 -0.11521339 C130.12943676 -0.11284015 131.58111203 -0.11560897 133.03274727 -0.12383652 C135.01090219 -0.13424157 136.98913296 -0.12443567 138.96728516 -0.11352539 C140.07544806 -0.11369313 141.18361097 -0.11386087 142.32535458 -0.1140337 C145.0471344 0.26069641 145.0471344 0.26069641 146.93493748 1.59267902 C148.0471344 3.26069641 148.0471344 3.26069641 147.9221344 6.32319641 C147.0471344 9.26069641 147.0471344 9.26069641 144.0471344 11.26069641 C141.35938263 11.51237869 141.35938263 11.51237869 138.04994202 11.5146637 C136.79644455 11.52030334 135.54294708 11.52594299 134.25146484 11.53175354 C132.85978641 11.52786481 131.46810855 11.52376847 130.07643127 11.51948547 C128.61289292 11.5221951 127.14935593 11.52575588 125.68582153 11.53010559 C121.70861795 11.53923524 117.73151795 11.53568299 113.75431252 11.52934742 C109.59569135 11.5242904 105.43707915 11.52897804 101.27845764 11.53211975 C94.29426986 11.53576027 87.31012436 11.53095806 80.32594299 11.5214386 C72.24671208 11.51055388 64.1675821 11.51407939 56.08835363 11.52509141 C49.15666002 11.53416185 42.22499683 11.53545075 35.2932992 11.53021407 C31.15112306 11.52709303 27.00899439 11.52668869 22.86682129 11.53328705 C18.97296349 11.53905636 15.07923607 11.53507128 11.18539238 11.52349854 C9.75470128 11.52084972 8.32399924 11.52162081 6.89331245 11.52602386 C4.9436545 11.53147174 2.99397262 11.52343541 1.04432678 11.5146637 C-0.04778862 11.51390965 -1.13990402 11.51315559 -2.26511383 11.51237869 C-4.9528656 11.26069641 -4.9528656 11.26069641 -7.9528656 9.26069641 C-8.2653656 5.76069641 -8.2653656 5.76069641 -7.9528656 2.26069641 C-5.23646622 -0.45570297 -3.8026764 0.00704685 0 0 Z " fill="#0E77F0" transform="translate(104.95286560058594,252.7393035888672)"/>
<path d="M0 0 C1.26895111 -0.00708481 2.53790222 -0.01416962 3.8453064 -0.02146912 C5.25950658 -0.01917508 6.67370642 -0.01666535 8.08790588 -0.01396179 C9.57100177 -0.01830697 11.0540954 -0.02348946 12.53718567 -0.02944946 C16.57228912 -0.04287196 20.6072991 -0.04341452 24.64242053 -0.04088616 C28.00738028 -0.03981861 31.37232094 -0.04469428 34.73727661 -0.04949158 C42.67399169 -0.06059809 50.61065945 -0.06101781 58.54737854 -0.05497742 C66.74306872 -0.04893596 74.9385873 -0.06125034 83.1342482 -0.08254749 C90.16358775 -0.10014415 97.19287258 -0.1061679 104.22223336 -0.10290974 C108.42369979 -0.10109359 112.62504384 -0.10376595 116.8264904 -0.11762428 C120.77701112 -0.13016661 124.72726372 -0.12829292 128.67778015 -0.11521339 C130.12943676 -0.11284015 131.58111203 -0.11560897 133.03274727 -0.12383652 C135.01090219 -0.13424157 136.98913296 -0.12443567 138.96728516 -0.11352539 C140.07544806 -0.11369313 141.18361097 -0.11386087 142.32535458 -0.1140337 C145.0471344 0.26069641 145.0471344 0.26069641 146.93493748 1.59267902 C148.0471344 3.26069641 148.0471344 3.26069641 147.9221344 6.32319641 C147.0471344 9.26069641 147.0471344 9.26069641 144.0471344 11.26069641 C141.35938263 11.515172 141.35938263 11.515172 138.04994202 11.52139282 C136.16969582 11.53202003 136.16969582 11.53202003 134.25146484 11.54286194 C132.85978663 11.54056806 131.46810875 11.53805835 130.07643127 11.53535461 C128.61289204 11.5397011 127.14935509 11.54488403 125.68582153 11.55084229 C121.70862629 11.56424932 117.73152596 11.56480915 113.75431252 11.56227899 C110.43652373 11.56121059 107.11875426 11.56608918 103.8009696 11.57088441 C95.97594609 11.58198514 88.15097058 11.58241359 80.32594299 11.57637024 C72.24667865 11.57032663 64.16758829 11.58264993 56.08835363 11.60394031 C49.1566575 11.62153671 42.22501685 11.62756084 35.2932992 11.62430257 C31.15109179 11.62248668 27.00900853 11.62515628 22.86682129 11.63901711 C18.97291953 11.65155932 15.07928979 11.64968587 11.18539238 11.63660622 C9.75469815 11.6342331 8.32398499 11.63700132 6.89331245 11.64522934 C4.9436753 11.65563532 2.99396118 11.64582796 1.04432678 11.63491821 C-0.04778862 11.63508595 -1.13990402 11.6352537 -2.26511383 11.63542652 C-4.9528656 11.26069641 -4.9528656 11.26069641 -6.80815887 9.9287138 C-8.56780771 7.36462923 -8.27393768 5.27877391 -7.9528656 2.26069641 C-5.23646622 -0.45570297 -3.8026764 0.00704685 0 0 Z " fill="#137AF0" transform="translate(104.95286560058594,280.7393035888672)"/>
<path d="M0 0 C1.30823227 -0.0127597 2.61646454 -0.02551941 3.96434021 -0.03866577 C5.39427544 -0.04172306 6.82421264 -0.04395102 8.25415039 -0.04541016 C9.72001781 -0.05183692 11.18588394 -0.05856519 12.65174866 -0.06558228 C15.7242429 -0.07755746 18.79662469 -0.08126282 21.86914062 -0.08007812 C25.80479893 -0.07987482 29.73973603 -0.10718665 33.67522335 -0.14162254 C36.70271614 -0.16386721 39.73003463 -0.16791645 42.75760078 -0.16685867 C44.20847626 -0.16921794 45.6593563 -0.17805992 47.11015129 -0.19352341 C49.13974581 -0.21313192 51.16955185 -0.20483607 53.19921875 -0.1953125 C54.3537706 -0.19816254 55.50832245 -0.20101257 56.69786072 -0.20394897 C60.29424827 0.3955322 61.50885561 1.39459887 63.66430664 4.29052734 C63.5028046 7.6820703 63.08133907 8.87349492 60.66430664 11.29052734 C57.85571289 11.54449463 57.85571289 11.54449463 54.22680664 11.54931641 C53.23632324 11.55457336 53.23632324 11.55457336 52.22583008 11.55993652 C50.03854932 11.56875416 47.85159081 11.56290477 45.66430664 11.55615234 C44.14737892 11.55749899 42.63045163 11.55943952 41.11352539 11.56195068 C37.93249406 11.56490198 34.75157495 11.56060418 31.57055664 11.55126953 C27.48802762 11.53987491 23.40576155 11.54643436 19.32324219 11.55841446 C16.19032806 11.56563295 13.05747653 11.5633452 9.92456055 11.55815887 C8.41902638 11.55682234 6.91348657 11.55847022 5.40795898 11.56311798 C3.30575452 11.56818313 1.20397906 11.56047362 -0.89819336 11.54931641 C-2.09573242 11.54772522 -3.29327148 11.54613403 -4.52709961 11.54449463 C-7.33569336 11.29052734 -7.33569336 11.29052734 -9.33569336 9.29052734 C-9.64819336 5.79052734 -9.64819336 5.79052734 -9.33569336 2.29052734 C-5.778842 -0.08070689 -4.22147419 0.02789395 0 0 Z " fill="#1179F0" transform="translate(106.335693359375,224.70947265625)"/>
</svg>
