<?xml version="1.0" encoding="UTF-8"?>
<svg version="1.1" xmlns="http://www.w3.org/2000/svg" width="512" height="512">
<path d="M0 0 C1.28120224 -0.00956978 1.28120224 -0.00956978 2.58828735 -0.01933289 C3.50194061 -0.02044571 4.41559387 -0.02155853 5.35693359 -0.02270508 C6.77297379 -0.02769768 6.77297379 -0.02769768 8.21762085 -0.03279114 C10.2096915 -0.03784726 12.2017706 -0.04019987 14.19384766 -0.04003906 C17.2509538 -0.04223316 20.30770341 -0.06042349 23.36474609 -0.0793457 C25.29964069 -0.0822783 27.234537 -0.08426399 29.16943359 -0.08520508 C30.08713531 -0.09239059 31.00483704 -0.09957611 31.9503479 -0.10697937 C32.79817841 -0.10390274 33.64600891 -0.10082611 34.51953125 -0.09765625 C35.26691559 -0.09908127 36.01429993 -0.10050629 36.78433228 -0.10197449 C38.63037109 0.14526367 38.63037109 0.14526367 40.63037109 2.14526367 C40.80583592 5.15835318 40.86164554 8.07836821 40.82568359 11.09057617 C40.8228537 11.97558807 40.8200238 12.86059998 40.81710815 13.77243042 C40.8058935 16.6051778 40.7807868 19.43761151 40.75537109 22.27026367 C40.74534295 24.18822786 40.73621681 26.106197 40.72802734 28.02416992 C40.70594999 32.73132243 40.67141154 37.43823983 40.63037109 42.14526367 C41.49661714 42.14412451 42.36286319 42.14298535 43.25535911 42.14181167 C94.586128 42.07469024 145.91689224 42.02321046 197.24769622 41.99206768 C203.40984117 41.98831552 209.57198604 41.98443256 215.73413086 41.98046875 C216.96091274 41.97968182 218.18769461 41.97889489 219.4516517 41.97808411 C239.32045449 41.96502707 259.18923126 41.94137158 279.05801862 41.91380528 C299.44235414 41.8857594 319.82667604 41.86908914 340.21103007 41.86299819 C352.79116846 41.85888006 365.37123332 41.84586908 377.95134909 41.82151427 C386.57578854 41.80566719 395.20018993 41.800861 403.82464289 41.80475954 C408.80188822 41.80668267 413.77900497 41.80371627 418.75622749 41.78764725 C423.31435841 41.77303872 427.87227437 41.77231755 432.43041522 41.78256699 C434.07794428 41.78383359 435.7254868 41.78003615 437.37298941 41.77061412 C456.10462414 41.66973179 456.10462414 41.66973179 462.97021484 46.94213867 C463.49744141 47.58666992 464.02466797 48.23120117 464.56787109 48.89526367 C465.11314453 49.52948242 465.65841797 50.16370117 466.22021484 50.81713867 C469.43290966 56.12119993 469.88148003 61.64239674 469.8910675 67.72442627 C469.89489305 68.45516287 469.8987186 69.18589946 469.90266007 69.93877959 C469.91292065 72.36998699 469.90901135 74.80095515 469.9050293 77.23217773 C469.90937941 78.98201718 469.91456355 80.73185473 469.92051697 82.48168945 C469.93388049 87.2210162 469.93448899 91.96026308 469.93195367 96.69960499 C469.93088298 100.65632256 469.93576941 104.61302403 469.94055909 108.56973815 C469.95164334 117.8992876 469.9520966 127.22879677 469.94604492 136.55834961 C469.93999391 146.18956409 469.95234716 155.82063289 469.97361499 165.45182252 C469.99120539 173.72116601 469.99723673 181.990463 469.99397725 190.25982451 C469.99216145 195.19897538 469.99483083 200.13802212 470.00869179 205.07715607 C470.02122524 209.71636053 470.01936882 214.35533658 470.0062809 218.99453735 C470.00390641 220.69936956 470.00668082 222.40421765 470.01490402 224.10903168 C470.02529915 226.43096822 470.0173303 228.75212781 470.0045929 231.07403564 C470.00484451 233.02519979 470.00484451 233.02519979 470.0051012 235.0157814 C469.63037109 238.14526367 469.63037109 238.14526367 468.27104473 240.10284042 C466.63037109 241.14526367 466.63037109 241.14526367 464.00537109 240.89526367 C461.63037109 240.14526367 461.63037109 240.14526367 460.63037109 239.14526367 C460.52535435 236.85535856 460.49234983 234.5621537 460.48561096 232.26985168 C460.48208412 231.54227478 460.47855727 230.81469788 460.47492355 230.06507319 C460.46418427 227.60848002 460.46054651 225.15192555 460.45678711 222.6953125 C460.45048571 220.94137405 460.44372038 219.18743721 460.43652344 217.4335022 C460.42182269 213.64662319 460.41011036 209.85975049 460.40057564 206.072855 C460.38515862 200.08521733 460.36120861 194.0976331 460.3356781 188.11003113 C460.2643846 171.08006158 460.20472088 154.05006103 460.15356445 137.02001953 C460.12525803 127.62198476 460.08987218 118.22400274 460.0469107 108.82602328 C460.02013262 102.8741465 460.00223048 96.92232945 459.99087346 90.97040427 C459.98174341 87.26405615 459.96437907 83.55778044 459.94469452 79.85147476 C459.93722454 78.1334071 459.93313829 76.41532086 459.9326992 74.69723701 C459.93161497 72.34987922 459.91835186 70.00288876 459.90211487 67.65559387 C459.89576696 65.68582691 459.89576696 65.68582691 459.88929081 63.67626667 C459.622604 60.03934039 459.29451672 57.3995054 457.63037109 54.14526367 C453.18546916 52.20789103 449.2859307 51.89234879 444.4733448 51.88355064 C443.77250015 51.87955458 443.0716555 51.87555852 442.34957314 51.87144136 C440.00154177 51.86047397 437.65374634 51.86366738 435.30569458 51.86679077 C433.60522059 51.86178752 431.90474899 51.85591164 430.20428073 51.84923804 C425.53177782 51.83342757 420.85933502 51.83000678 416.18680859 51.82858944 C411.14799472 51.82489723 406.1092139 51.80974264 401.07041931 51.79597473 C392.34043854 51.77369247 383.61046952 51.75868499 374.88046646 51.74860764 C362.25832488 51.73402695 349.63622421 51.70849183 337.01410662 51.68027635 C316.53594518 51.63479727 296.05777787 51.59818707 275.57958984 51.56713867 C255.68602464 51.53695771 235.79247384 51.50260951 215.89892578 51.46264648 C214.67284694 51.46018494 213.4467681 51.45772339 212.18353535 51.45518725 C206.03270573 51.44281273 199.88187628 51.43035618 193.73104692 51.41785884 C142.69750841 51.31427432 91.66395193 51.22507658 40.63037109 51.14526367 C40.63151025 51.74505989 40.63264942 52.34485612 40.6338231 52.96282798 C40.70090965 88.48581638 40.75240662 124.00879391 40.78356708 159.53183245 C40.78731935 163.7940082 40.7912023 168.05618382 40.79516602 172.31835938 C40.79595295 173.16690704 40.79673988 174.0154547 40.79755066 174.88971593 C40.81061623 188.64201093 40.83427639 202.39426843 40.86182948 216.14654116 C40.88985168 230.25023807 40.90654059 244.35391531 40.91263658 258.45763892 C40.91675965 267.1653453 40.92979721 275.87294571 40.95412049 284.58061948 C40.9699384 290.54608493 40.97478044 296.51149533 40.97087523 302.47698025 C40.96894749 305.92240302 40.9719701 309.3676402 40.98798752 312.81303024 C41.00281321 316.54309131 40.9993608 320.27269111 40.99113464 324.00276184 C40.99987317 325.09905263 41.00861169 326.19534342 41.01761502 327.32485515 C41.01164187 328.32011264 41.00566873 329.31537013 40.99951458 330.34078693 C41.00065374 331.20237236 41.0017929 332.06395779 41.00296658 332.95165187 C40.63037109 335.14526367 40.63037109 335.14526367 39.35191327 336.92447108 C36.26555137 339.11309462 32.43872409 338.49980342 28.79052734 338.44604492 C26.98648726 338.45369666 25.18245058 338.4621882 23.37841797 338.47143555 C20.54798422 338.46923971 17.71824109 338.4580132 14.88793945 338.43017578 C-1.16167848 338.24480182 -1.16167848 338.24480182 -15.36962891 345.14526367 C-21.88516847 351.56877808 -24.46942795 359.10949901 -24.74462891 368.14526367 C-24.50297233 376.77899407 -22.1120803 384.65588973 -15.68603516 390.73901367 C-6.20338097 398.5235668 4.42008313 398.58326918 16.1697998 398.53053284 C17.7361833 398.53454483 19.30256388 398.53987401 20.86893892 398.54639858 C25.15233949 398.56049701 29.43554946 398.55613556 33.71895933 398.54868543 C38.34601435 398.54393419 42.9730262 398.55651881 47.60006714 398.56704712 C55.61025665 398.58300167 63.62039561 398.58830013 71.63059998 398.58651924 C83.214093 398.58413398 94.79750531 398.60013436 106.38097721 398.62097179 C125.17862085 398.6544745 143.97625725 398.6761529 162.77392578 398.68896484 C164.4603349 398.69011908 164.4603349 398.69011908 166.1808129 398.69129663 C170.73699738 398.69439933 175.29318188 398.69748214 179.8493664 398.70053667 C192.40950775 398.709077 204.96964662 398.71997563 217.52978516 398.73193359 C219.21777459 398.73353562 219.21777459 398.73353562 220.93986481 398.73517001 C239.67806807 398.75323863 258.41625402 398.77921362 277.1544404 398.81006473 C288.71568472 398.82864878 300.27689025 398.83953633 311.83814973 398.84058665 C319.74900626 398.84168699 327.65983612 398.84960438 335.57068139 398.8629703 C340.14001766 398.87041529 344.70929561 398.87446124 349.27863693 398.86985207 C353.45540764 398.86567895 357.63206371 398.87052959 361.80881768 398.88275992 C363.32536565 398.88554372 364.84192432 398.88488892 366.35846871 398.88057882 C368.40858978 398.87521956 370.4587331 398.883173 372.50884247 398.89193058 C374.22198364 398.89290874 374.22198364 398.89290874 375.96973372 398.89390665 C378.63037109 399.14526367 378.63037109 399.14526367 380.63037109 401.14526367 C380.07481554 405.70081923 380.07481554 405.70081923 378.63037109 407.14526367 C376.60357514 407.24764448 374.57314872 407.27819934 372.5437727 407.28227806 C371.89787852 407.28492989 371.25198433 407.28758171 370.5865176 407.2903139 C368.39524448 407.29804911 366.20402699 407.29856768 364.01274109 407.29916382 C362.4365059 407.30317572 360.86027174 407.30761349 359.28403884 407.31244338 C354.93126196 407.32444607 350.57849618 407.33006591 346.22570598 407.33462453 C341.53900792 407.34056704 336.85232323 407.35218059 332.16563416 407.36291504 C320.83330456 407.3874757 309.50097051 407.40207443 298.16862246 407.41497511 C294.96828787 407.41868529 291.76795372 407.42265869 288.56761956 407.42672777 C268.70102988 407.45196974 248.83443953 407.47402666 228.96783733 407.48645592 C224.36242864 407.48938572 219.75701997 407.49234736 215.15161133 407.49536133 C214.00692848 407.49610738 212.86224564 407.49685343 211.68287543 407.49762209 C193.15146743 407.51026788 174.62015556 407.54347759 156.08879247 407.58516316 C137.06833349 407.62759834 118.04792367 407.65115307 99.02741748 407.65637648 C88.34614642 407.65978952 77.66502536 407.67153152 66.98380089 407.70447922 C57.88371182 407.73250306 48.78380347 407.74346896 39.6836746 407.73228376 C35.04215083 407.72710246 30.40100537 407.72994925 25.75953674 407.7547493 C21.50461404 407.77729348 17.25034024 407.7764621 12.99540577 407.75754543 C11.46157599 407.75475256 9.92770172 407.7603041 8.39394327 407.77535836 C-4.35144966 407.89274027 -14.97373522 405.54043688 -24.39697266 396.44213867 C-33.91619691 385.35836865 -34.67170809 373.18824614 -34.63032532 359.15371704 C-34.6333507 357.75532941 -34.63724212 356.35694343 -34.64191788 354.95856035 C-34.65215671 351.13915883 -34.65002663 347.31985161 -34.64573729 343.5004425 C-34.64326256 339.3721873 -34.65229346 335.24395436 -34.65977478 331.1157074 C-34.67250297 323.03707572 -34.67431783 314.95847731 -34.67197452 306.87983729 C-34.67018914 300.31123883 -34.6719457 293.74265045 -34.67619896 287.17405319 C-34.67679415 286.23802531 -34.67738934 285.30199742 -34.67800256 284.33760505 C-34.67921435 282.43586617 -34.68042849 280.53412728 -34.68164494 278.6323884 C-34.69251317 260.81095998 -34.69036134 242.9895505 -34.68426009 225.16812102 C-34.67909123 208.87795975 -34.69034686 192.58785827 -34.70935831 176.29770882 C-34.72874748 159.55506491 -34.73699084 142.81244927 -34.73323506 126.06979406 C-34.7313247 116.67643921 -34.73379452 107.28313525 -34.7479496 97.88978958 C-34.75987809 89.89336236 -34.76125181 81.89701738 -34.74915943 73.900589 C-34.74328114 69.82414303 -34.74214216 65.74784737 -34.75416183 61.67141151 C-34.76505568 57.93323233 -34.76187607 54.19532833 -34.74790015 50.45716183 C-34.74402203 48.47820373 -34.75477161 46.49923324 -34.76619703 44.52030432 C-34.68972322 31.80113317 -32.49871701 20.09559476 -23.77587891 10.36791992 C-17.34672167 4.40881899 -8.8438277 0.04500933 0 0 Z M-16.36962891 16.14526367 C-24.71747167 24.80296086 -25.81675185 34.33558061 -25.73039246 45.95838928 C-25.73295573 47.22789679 -25.73551901 48.49740429 -25.73815995 49.80538172 C-25.74483344 53.30823824 -25.73291596 56.81081693 -25.71782577 60.31363809 C-25.70482404 64.09879088 -25.70925778 67.88392905 -25.71153259 71.6690979 C-25.71310272 78.22022755 -25.70372082 84.7712673 -25.68681908 91.32237434 C-25.66239823 100.79406421 -25.65462065 110.26571078 -25.6508551 119.73742872 C-25.64429545 135.10606434 -25.62434751 150.47465208 -25.59594727 165.84326172 C-25.56839409 180.76904054 -25.54716667 195.69480634 -25.53442383 210.62060547 C-25.53363566 211.54122259 -25.53284749 212.46183971 -25.53203543 213.41035432 C-25.52812021 218.02899655 -25.52432911 222.64763887 -25.52059972 227.26628125 C-25.48951897 265.5593089 -25.43669643 303.85228312 -25.36962891 342.14526367 C-24.89853195 341.7312178 -24.427435 341.31717194 -23.94206238 340.89057922 C-23.31898697 340.34854355 -22.69591156 339.80650787 -22.05395508 339.24804688 C-21.43848312 338.71025101 -20.82301117 338.17245514 -20.18888855 337.61836243 C-17.84702868 335.72210156 -15.44794177 334.51247558 -12.68212891 333.33276367 C-11.77076172 332.93444336 -10.85939453 332.53612305 -9.92041016 332.12573242 C3.49779972 326.96804379 16.0682825 329.58989477 31.63037109 329.14526367 C31.63037109 223.21526367 31.63037109 117.28526367 31.63037109 8.14526367 C5.79151226 6.31537761 5.79151226 6.31537761 -16.36962891 16.14526367 Z " fill="#000000" transform="translate(38.36962890625,3.854736328125)"/>
<path d="M0 0 C0.99 0.99 0.99 0.99 2 2 C1.93359375 4.48046875 1.93359375 4.48046875 1 7 C-1.21484375 8.36328125 -1.21484375 8.36328125 -3.9375 9.3125 C-5.28134766 9.80169922 -5.28134766 9.80169922 -6.65234375 10.30078125 C-9 11 -9 11 -11 11 C-11 28.16 -11 45.32 -11 63 C-8.03 63.66 -5.06 64.32 -2 65 C-0.37639201 65.48035557 1.2393117 65.99014062 2.83740234 66.54956055 C3.6805751 66.84191589 4.52374786 67.13427124 5.39247131 67.43548584 C6.72573708 67.90634613 6.72573708 67.90634613 8.0859375 68.38671875 C9.0441893 68.72052551 10.0024411 69.05433228 10.98973083 69.39825439 C14.11984555 70.4898937 17.24741796 71.58862785 20.375 72.6875 C22.56714064 73.45366658 24.75944435 74.21936674 26.9519043 74.98461914 C31.44295744 76.55294196 35.93303467 78.12401335 40.42236328 79.69726562 C46.54812574 81.8432398 52.67761451 83.97835758 58.80859375 86.109375 C67.6297121 89.17605698 76.4467872 92.25410097 85.26074219 95.34130859 C88.34109375 96.42012947 91.42244136 97.49601308 94.50488281 98.56884766 C98.48529324 99.95447184 102.46166125 101.35131225 106.4375 102.75 C107.57485596 103.14437256 108.71221191 103.53874512 109.8840332 103.94506836 C110.91101318 104.30866455 111.93799316 104.67226074 112.99609375 105.046875 C113.87450928 105.35463867 114.7529248 105.66240234 115.65795898 105.97949219 C118.0905851 107.03947105 119.95074365 108.3264357 122 110 C121.125 114.875 121.125 114.875 120 116 C118.00390625 115.9140625 118.00390625 115.9140625 115.5625 115.625 C114.75941406 115.53476563 113.95632813 115.44453125 113.12890625 115.3515625 C111 115 111 115 109 114 C109 161.85 109 209.7 109 259 C113.29 259 117.58 259 122 259 C124 261 124 261 124.25 263.5 C124 266 124 266 122 268 C119.99059629 268.25069833 119.99059629 268.25069833 117.46471405 268.25168228 C116.50403157 268.25689778 115.54334908 268.26211327 114.55355501 268.26748681 C113.49073415 268.26302537 112.42791329 268.25856392 111.33288574 268.25396729 C110.20961112 268.25708727 109.08633651 268.26020725 107.92902327 268.26342177 C104.13947882 268.27144242 100.35009271 268.2650623 96.56054688 268.25878906 C93.85416835 268.26039624 91.1477967 268.26498425 88.44142151 268.26940918 C81.83826175 268.27832085 75.23514735 268.2763733 68.63198578 268.2705839 C63.26734362 268.26607437 57.9027142 268.26545142 52.53807068 268.26763153 C51.77569476 268.267938 51.01331885 268.26824446 50.22784063 268.26856022 C48.67928016 268.26919964 47.13071969 268.26984807 45.58215922 268.2705054 C31.04781193 268.27621389 16.51348982 268.26964268 1.97914666 268.25890467 C-10.50268438 268.24996868 -22.98447823 268.25152058 -35.46630859 268.26074219 C-49.94724563 268.27143567 -64.42816057 268.27566452 -78.90910101 268.26951766 C-80.4520909 268.26888054 -81.99508079 268.26825179 -83.53807068 268.26763153 C-84.67695906 268.2671687 -84.67695906 268.2671687 -85.8388553 268.26669653 C-91.19950612 268.26496682 -96.56014297 268.26789062 -101.92079163 268.27259064 C-108.45011771 268.27818925 -114.97939568 268.2767046 -121.50871623 268.26602915 C-124.8426123 268.26075859 -128.17636125 268.25980849 -131.51026726 268.26532745 C-135.11788821 268.270751 -138.72527962 268.26398769 -142.33288574 268.25396729 C-143.3957066 268.25842873 -144.45852746 268.26289017 -145.55355501 268.26748681 C-146.51423749 268.26227132 -147.47491998 268.25705582 -148.46471405 268.25168228 C-149.29825519 268.25135758 -150.13179633 268.25103287 -150.99059629 268.25069833 C-153 268 -153 268 -155 266 C-155.25 263.5 -155.25 263.5 -155 261 C-154.34 260.34 -153.68 259.68 -153 259 C-148.71 259 -144.42 259 -140 259 C-140.33 192.34 -140.66 125.68 -141 57 C-142.98 57.66 -144.96 58.32 -147 59 C-151.5 58.5 -151.5 58.5 -153 57 C-153.375 54.625 -153.375 54.625 -153 52 C-149.06574877 49.12114082 -144.61050369 47.65205022 -140.0390625 46.09375 C-139.24208954 45.81700439 -138.44511658 45.54025879 -137.62399292 45.25512695 C-134.95948212 44.33139509 -132.29226442 43.41574745 -129.625 42.5 C-127.71922618 41.84100026 -125.81363152 41.18148222 -123.90820312 40.52148438 C-118.70799825 38.72181975 -113.50541745 36.92911703 -108.30236816 35.13769531 C-102.67686481 33.19965919 -97.0533457 31.25588242 -91.4296875 29.3125 C-84.45922059 26.90395315 -77.48861443 24.495816 -70.51708984 22.09033203 C-53.58447411 16.24672901 -36.66550048 10.36481344 -19.75585938 4.45507812 C-18.48539764 4.01109177 -18.48539764 4.01109177 -17.18927002 3.55813599 C-15.62338215 3.01077124 -14.05758016 2.46316077 -12.49188232 1.91525269 C-3.48203281 -1.23556003 -3.48203281 -1.23556003 0 0 Z M-28.53320312 16.78149414 C-29.67692886 17.17403381 -30.8206546 17.56657349 -31.9990387 17.9710083 C-33.2598101 18.40895888 -34.52054614 18.84701128 -35.78125 19.28515625 C-37.09584985 19.73832145 -38.41058562 20.19109252 -39.72544861 20.64349365 C-43.25537167 21.8593802 -46.78326681 23.08105103 -50.31074142 24.30401993 C-53.95102665 25.56521576 -57.59294486 26.82167947 -61.23461914 28.07885742 C-67.78019159 30.33951975 -74.32395918 32.60535557 -80.86677837 34.87397289 C-85.31790189 36.41728119 -89.76973922 37.95850678 -94.22216797 39.49804688 C-99.37243756 41.27906823 -104.521596 43.06324913 -109.66943359 44.85128784 C-111.51210308 45.49115555 -113.35503881 46.13025705 -115.19824219 46.76858521 C-117.7152354 47.64093909 -120.23087491 48.51707683 -122.74609375 49.39453125 C-123.47835678 49.64765076 -124.21061981 49.90077026 -124.96507263 50.16156006 C-128.23839789 51.13213172 -128.23839789 51.13213172 -131 53 C-131.09782251 55.65546573 -131.12994147 58.28490915 -131.12025452 60.94081116 C-131.12110894 61.78287737 -131.12196337 62.62494358 -131.12284368 63.49252695 C-131.12450107 66.33626629 -131.1189729 69.17994766 -131.11352539 72.02368164 C-131.11324355 74.05335997 -131.11340119 76.0830384 -131.1139679 78.11271667 C-131.11425599 83.64141561 -131.1083574 89.17009305 -131.10139394 94.69878697 C-131.09516232 100.46971736 -131.09455675 106.24064819 -131.09336853 112.01158142 C-131.09025465 122.9480036 -131.08204049 133.88441583 -131.07201904 144.82083362 C-131.06085967 157.26801891 -131.0553479 169.71520465 -131.05032361 182.16239369 C-131.03985792 207.77493483 -131.02205705 233.38746644 -131 259 C-122.42 259 -113.84 259 -105 259 C-104.97494385 256.73326416 -104.9498877 254.46652832 -104.92407227 252.13110352 C-104.84076261 244.65916538 -104.75205589 237.18729845 -104.66066074 229.71545506 C-104.60539078 225.18329414 -104.55196441 220.65112682 -104.50268555 216.11889648 C-104.45510189 211.74871452 -104.40276152 207.37861352 -104.34705925 203.00852776 C-104.32660842 201.33751365 -104.30789994 199.66647731 -104.29092598 197.99542427 C-104.26694207 195.6629644 -104.2368798 193.33065893 -104.20532227 190.99829102 C-104.1995668 190.3005809 -104.19381134 189.60287079 -104.18788147 188.88401794 C-104.11405216 184.11405216 -104.11405216 184.11405216 -103 183 C-101.28681054 182.90118407 -99.56955197 182.87201031 -97.85351562 182.87060547 C-96.75567749 182.86745331 -95.65783936 182.86430115 -94.5267334 182.86105347 C-92.73459412 182.86408981 -92.73459412 182.86408981 -90.90625 182.8671875 C-89.68925415 182.86623077 -88.4722583 182.86527405 -87.21838379 182.86428833 C-84.63924101 182.86360628 -82.06009653 182.86546228 -79.48095703 182.86962891 C-75.51721364 182.87497678 -71.55358358 182.86968471 -67.58984375 182.86328125 C-65.09114558 182.86394203 -62.59244748 182.86522318 -60.09375 182.8671875 C-58.89899048 182.86516327 -57.70423096 182.86313904 -56.4732666 182.86105347 C-55.37542847 182.86420563 -54.27759033 182.86735779 -53.14648438 182.87060547 C-51.68873596 182.87179886 -51.68873596 182.87179886 -50.20153809 182.87301636 C-48 183 -48 183 -47 184 C-46.87515846 186.34152841 -46.81400709 188.65507585 -46.79467773 190.99829102 C-46.78477814 191.72995483 -46.77487854 192.46161865 -46.76467896 193.2154541 C-46.73297617 195.64490472 -46.70827207 198.07437493 -46.68359375 200.50390625 C-46.66303178 202.18400087 -46.64203552 203.86409023 -46.62062073 205.54417419 C-46.56532174 209.97467803 -46.51594713 214.40522915 -46.46777344 218.83581543 C-46.4176154 223.35347725 -46.36189967 227.87107008 -46.30664062 232.38867188 C-46.19896337 241.25905794 -46.09805313 250.12950233 -46 259 C-37.42 259 -28.84 259 -20 259 C-20 178.48 -20 97.96 -20 15 C-23.2959394 15 -25.42230804 15.70705555 -28.53320312 16.78149414 Z M-11 72 C-11 133.71 -11 195.42 -11 259 C25.63 259 62.26 259 100 259 C100 209.83 100 160.66 100 110 C79.87 103.07 59.74 96.14 39 89 C11.36111111 79.34722222 11.36111111 79.34722222 -0.22607422 75.27075195 C-3.78299697 74.07306901 -7.39125525 73.03106993 -11 72 Z M-96 190 C-96 212.77 -96 235.54 -96 259 C-82.47 259 -68.94 259 -55 259 C-55 236.23 -55 213.46 -55 190 C-68.53 190 -82.06 190 -96 190 Z " fill="#000000" transform="translate(287,70)"/>
<path d="M0 0 C1.13934984 -0.00623996 2.27869968 -0.01247993 3.45257527 -0.01890898 C7.27890044 -0.03489216 11.1045933 -0.02221315 14.93092346 -0.00964355 C17.67067279 -0.01286145 20.41039507 -0.02203864 23.15013123 -0.03088379 C29.82445025 -0.04867697 36.49858942 -0.04482537 43.17291551 -0.03323323 C48.59753143 -0.02420154 54.02209693 -0.02297375 59.44671822 -0.02732849 C60.21863421 -0.02794142 60.99055021 -0.02855436 61.78585761 -0.02918586 C63.35397856 -0.03046476 64.92209951 -0.03176161 66.49022043 -0.03307623 C81.19736636 -0.04448456 95.90441259 -0.03136477 110.61154217 -0.00987476 C123.23025959 0.00799292 135.8488298 0.00489536 148.46754456 -0.0135498 C163.12032418 -0.03495819 177.77301637 -0.04338216 192.42580944 -0.03110075 C193.98848377 -0.02982655 195.55115812 -0.02856907 197.11383247 -0.02732849 C198.2671338 -0.02640284 198.2671338 -0.02640284 199.44373415 -0.02545848 C204.86116636 -0.02200522 210.2785431 -0.02783349 215.69596672 -0.0372467 C222.29908604 -0.04846789 228.90201516 -0.04542442 235.5051127 -0.02412373 C238.87408939 -0.01361396 242.24248658 -0.01164393 245.61150169 -0.02272034 C249.26378006 -0.03362233 252.91516184 -0.01997504 256.56738281 0 C258.1644132 -0.01338433 258.1644132 -0.01338433 259.79370683 -0.02703905 C265.78884036 0.03672484 269.28024782 0.50628762 273.84718323 4.50793457 C276.17181759 7.71492716 276.1100929 10.66588694 276.13771057 14.55822754 C276.15047028 15.77984589 276.16322998 17.00146423 276.17637634 18.26010132 C276.17971481 20.23516159 276.17971481 20.23516159 276.18312073 22.25012207 C276.18955143 23.62008808 276.19628 24.99005272 276.20329285 26.36001587 C276.21525654 29.22982974 276.21897464 32.09952331 276.2177887 34.96936035 C276.2175856 38.6368955 276.24488092 42.30365494 276.27933311 45.97100639 C276.30163162 48.80042017 276.30562535 51.62964815 276.30456924 54.45914078 C276.30806038 56.46544383 276.32970551 58.47168889 276.35166931 60.47787476 C276.29390802 72.00451379 276.29390802 72.00451379 271.84718323 76.50793457 C268.81496508 78.36403168 266.54687799 78.75981967 263.01450539 78.76799679 C262.03837402 78.77506238 261.06224265 78.78212797 260.05653155 78.78940767 C258.45178581 78.78578504 258.45178581 78.78578504 256.81462097 78.78208923 C255.67612556 78.78732591 254.53763015 78.79256259 253.36463487 78.79795796 C249.53537755 78.81300483 245.70625329 78.81366414 241.87696838 78.81433105 C239.13737345 78.82086693 236.39779013 78.83032708 233.65820312 78.83955383 C226.20579605 78.86240464 218.75341745 78.87032433 211.30098009 78.87538028 C206.64815757 78.87863681 201.99534332 78.88515897 197.34252548 78.89238167 C184.46111378 78.91194667 171.57970976 78.92835181 158.69828224 78.9312582 C157.46181172 78.93153956 157.46181172 78.93153956 156.20036199 78.9318266 C154.52927264 78.93219285 152.85818328 78.93255654 151.18709393 78.93291771 C149.94279321 78.93319192 149.94279321 78.93319192 148.6733551 78.93347168 C147.84280945 78.93365223 147.0122638 78.93383278 146.15655009 78.9340188 C132.69424468 78.93756158 119.2320991 78.96459083 105.76984914 79.00196957 C91.94963329 79.04003535 78.1294968 79.05941555 64.30922735 79.05971771 C56.54905997 79.06030263 48.78908333 79.06881662 41.028965 79.09771538 C34.42215657 79.12220607 27.81560848 79.12952788 21.20876695 79.11446785 C17.83764509 79.10728934 14.46745674 79.11090622 11.09632301 79.13087845 C7.44166684 79.15121342 3.7883505 79.14085913 0.13371277 79.12266541 C-0.93165628 79.13586537 -1.99702533 79.14906534 -3.09467828 79.16266531 C-11.09942098 79.07140075 -11.09942098 79.07140075 -14.77336025 76.12265205 C-18.69050692 71.81821035 -19.40113671 68.43447972 -19.42747498 62.71130371 C-19.43700699 61.5698439 -19.446539 60.42838409 -19.45635986 59.25233459 C-19.45544846 58.02828415 -19.45453705 56.8042337 -19.45359802 55.54309082 C-19.45788315 54.27702499 -19.46216827 53.01095917 -19.46658325 51.70652771 C-19.47232254 49.03089486 -19.47376686 46.35564829 -19.4684906 43.68005371 C-19.46269751 40.26264014 -19.47963065 36.84576883 -19.50283527 33.42844486 C-19.52116631 30.15416451 -19.51738629 26.87991321 -19.51609802 23.60559082 C-19.52530777 22.38356461 -19.53451752 21.16153839 -19.54400635 19.90248108 C-19.5049387 12.72335095 -19.21477609 7.89835577 -14.23800564 2.3877182 C-9.59971235 -0.43836091 -5.33397248 -0.04460928 0 0 Z M-9.15281677 9.50793457 C-10.44428133 12.09086368 -10.27987383 13.951797 -10.2822113 16.84387207 C-10.28536346 17.95842773 -10.28851563 19.0729834 -10.29176331 20.22131348 C-10.28973907 21.42964844 -10.28771484 22.6379834 -10.28562927 23.88293457 C-10.286586 25.11833984 -10.28754272 26.35374512 -10.28852844 27.62658691 C-10.28938481 30.91379541 -10.28535021 34.20095693 -10.2797699 37.48815918 C-10.2778188 39.50583398 -10.27976269 41.52346529 -10.28318787 43.5411377 C-10.28934669 47.4050907 -10.28862161 51.26897892 -10.28562927 55.13293457 C-10.2876535 56.34126953 -10.28967773 57.54960449 -10.29176331 58.79455566 C-10.28861115 59.90911133 -10.28545898 61.02366699 -10.2822113 62.17199707 C-10.28141571 63.15635742 -10.28062012 64.14071777 -10.27980042 65.15490723 C-10.30837353 67.52879205 -10.30837353 67.52879205 -9.15281677 69.50793457 C-6.29723434 70.45979538 -4.53638962 70.63401734 -1.57536316 70.63656902 C-0.6307233 70.63979347 0.31391655 70.64301792 1.28718185 70.64634007 C2.84683859 70.64401717 2.84683859 70.64401717 4.43800354 70.64164734 C5.54100925 70.6439129 6.64401497 70.64617845 7.7804451 70.64851266 C11.49540997 70.65486879 15.21033851 70.65402227 18.92530823 70.65319824 C21.58094928 70.65618869 24.23658743 70.65956238 26.89222717 70.66337585 C33.36790225 70.67168857 39.84356823 70.67443096 46.3192482 70.67498823 C51.58088053 70.67546302 56.84250985 70.67751591 62.10414124 70.68068886 C77.01235399 70.6894965 91.92055955 70.69410797 106.82877493 70.69335838 C107.63277936 70.69331843 108.43678378 70.69327847 109.26515198 70.6932373 C110.07013453 70.69319642 110.87511708 70.69315554 111.70449305 70.69311342 C124.75820492 70.69270674 137.81188799 70.7022816 150.86559153 70.71637567 C164.25974003 70.73072359 177.65387446 70.73764676 191.04803085 70.7367819 C198.5716295 70.73644941 206.09519793 70.73921885 213.61878967 70.74995995 C220.02289398 70.75904405 226.42695437 70.76125742 232.83106232 70.75445052 C236.10027061 70.75117492 239.36937658 70.75224289 242.63858032 70.75980377 C246.1779178 70.76746186 249.71703066 70.76292012 253.25636292 70.75517273 C254.29613407 70.76031629 255.33590523 70.76545986 256.4071846 70.77075928 C257.35182446 70.76616049 258.29646431 70.76156169 259.26972961 70.75682354 C260.08716015 70.75704091 260.90459068 70.75725828 261.74679184 70.75748223 C264.15059109 70.6325842 264.15059109 70.6325842 266.84718323 68.50793457 C267.30698609 65.97987612 267.30698609 65.97987612 267.23536682 62.98840332 C267.2448233 61.83380615 267.25427979 60.67920898 267.26402283 59.48962402 C267.25795013 58.2375415 267.25187744 56.98545898 267.24562073 55.69543457 C267.24849091 54.41563721 267.25136108 53.13583984 267.25431824 51.81726074 C267.25874405 49.10694537 267.25230277 46.39692645 267.23829651 43.68664551 C267.22120386 40.20930893 267.23104376 36.73266691 267.2490139 33.25535583 C267.26244973 29.94365942 267.25304785 26.63215074 267.24562073 23.32043457 C267.25472977 21.44231079 267.25472977 21.44231079 267.26402283 19.52624512 C267.25456635 18.37164795 267.24510986 17.21705078 267.23536682 16.02746582 C267.23298004 15.00757568 267.23059326 13.98768555 267.22813416 12.93688965 C267.10242035 12.13533447 266.97670654 11.3337793 266.84718323 10.50793457 C263.49598804 8.27380444 262.42940773 8.26945695 258.52296448 8.31262207 C257.59653137 8.31761719 256.67009827 8.3226123 255.71559143 8.32775879 C254.54214172 8.3459668 253.36869202 8.3641748 252.15968323 8.38293457 C246.55999573 8.44480957 246.55999573 8.44480957 240.84718323 8.50793457 C240.51718323 18.40793457 240.18718323 28.30793457 239.84718323 38.50793457 C237.86718323 38.50793457 235.88718323 38.50793457 233.84718323 38.50793457 C233.51718323 28.60793457 233.18718323 18.70793457 232.84718323 8.50793457 C226.57718323 8.50793457 220.30718323 8.50793457 213.84718323 8.50793457 C213.51718323 18.40793457 213.18718323 28.30793457 212.84718323 38.50793457 C210.86718323 38.50793457 208.88718323 38.50793457 206.84718323 38.50793457 C205.45158277 35.71673366 205.62910035 33.30587765 205.53077698 30.18762207 C205.46793518 28.30236816 205.46793518 28.30236816 205.40382385 26.37902832 C205.36450745 25.06031738 205.32519104 23.74160645 205.28468323 22.38293457 C205.24148811 21.04307706 205.1978735 19.70323301 205.15382385 18.36340332 C205.04747412 15.07837837 204.94680006 11.79317059 204.84718323 8.50793457 C198.90718323 8.50793457 192.96718323 8.50793457 186.84718323 8.50793457 C186.51718323 18.40793457 186.18718323 28.30793457 185.84718323 38.50793457 C183.86718323 38.50793457 181.88718323 38.50793457 179.84718323 38.50793457 C178.45158277 35.71673366 178.62910035 33.30587765 178.53077698 30.18762207 C178.46793518 28.30236816 178.46793518 28.30236816 178.40382385 26.37902832 C178.36450745 25.06031738 178.32519104 23.74160645 178.28468323 22.38293457 C178.24148811 21.04307706 178.1978735 19.70323301 178.15382385 18.36340332 C178.04747412 15.07837837 177.94680006 11.79317059 177.84718323 8.50793457 C171.90718323 8.50793457 165.96718323 8.50793457 159.84718323 8.50793457 C159.51718323 18.73793457 159.18718323 28.96793457 158.84718323 39.50793457 C156.86718323 39.17793457 154.88718323 38.84793457 152.84718323 38.50793457 C151.45158277 35.71673366 151.62910035 33.30587765 151.53077698 30.18762207 C151.46793518 28.30236816 151.46793518 28.30236816 151.40382385 26.37902832 C151.36450745 25.06031738 151.32519104 23.74160645 151.28468323 22.38293457 C151.24148811 21.04307706 151.1978735 19.70323301 151.15382385 18.36340332 C151.04747412 15.07837837 150.94680006 11.79317059 150.84718323 8.50793457 C144.90718323 8.50793457 138.96718323 8.50793457 132.84718323 8.50793457 C132.51718323 18.73793457 132.18718323 28.96793457 131.84718323 39.50793457 C129.53718323 38.84793457 127.22718323 38.18793457 124.84718323 37.50793457 C124.51718323 27.93793457 124.18718323 18.36793457 123.84718323 8.50793457 C117.90718323 8.50793457 111.96718323 8.50793457 105.84718323 8.50793457 C105.51718323 18.73793457 105.18718323 28.96793457 104.84718323 39.50793457 C102.53718323 38.84793457 100.22718323 38.18793457 97.84718323 37.50793457 C97.51718323 27.93793457 97.18718323 18.36793457 96.84718323 8.50793457 C90.90718323 8.50793457 84.96718323 8.50793457 78.84718323 8.50793457 C78.51718323 18.73793457 78.18718323 28.96793457 77.84718323 39.50793457 C75.53718323 38.84793457 73.22718323 38.18793457 70.84718323 37.50793457 C70.51718323 27.93793457 70.18718323 18.36793457 69.84718323 8.50793457 C63.90718323 8.50793457 57.96718323 8.50793457 51.84718323 8.50793457 C51.51718323 18.73793457 51.18718323 28.96793457 50.84718323 39.50793457 C48.53718323 38.84793457 46.22718323 38.18793457 43.84718323 37.50793457 C43.51718323 27.93793457 43.18718323 18.36793457 42.84718323 8.50793457 C36.90718323 8.50793457 30.96718323 8.50793457 24.84718323 8.50793457 C24.75630432 11.63068848 24.75630432 11.63068848 24.66358948 14.81652832 C24.60102916 16.82540959 24.53843548 18.83428998 24.47486877 20.84313965 C24.43146889 22.24282656 24.38979759 23.64256816 24.34986877 25.0423584 C24.29228878 27.05054952 24.22804323 29.05854606 24.16358948 31.06652832 C24.12693176 32.27623291 24.09027405 33.4859375 24.05250549 34.7322998 C23.84718323 37.50793457 23.84718323 37.50793457 22.84718323 38.50793457 C20.34718323 38.63293457 20.34718323 38.63293457 17.84718323 38.50793457 C15.98753247 36.64828382 16.60630774 33.55904338 16.53077698 31.06652832 C16.48888245 29.76135254 16.44698792 28.45617676 16.40382385 27.1114502 C16.36400715 25.72278127 16.32429498 24.33410935 16.28468323 22.94543457 C16.24150334 21.55284274 16.19788923 20.16026429 16.15382385 18.7677002 C16.04732447 15.34788656 15.945314 11.92799694 15.84718323 8.50793457 C12.24303343 8.47893002 8.63891361 8.46113439 5.03468323 8.44543457 C4.01052307 8.43705566 2.98636292 8.42867676 1.9311676 8.42004395 C0.94825745 8.41682129 -0.03465271 8.41359863 -1.04734802 8.41027832 C-1.95331726 8.4050415 -2.8592865 8.39980469 -3.79270935 8.39440918 C-6.30565716 8.40872476 -6.30565716 8.40872476 -9.15281677 9.50793457 Z " fill="#000000" transform="translate(108.15281677246094,429.4920654296875)"/>
<path d="M0 0 C2.67578125 0.328125 2.67578125 0.328125 4.6328125 2.09375 C5.24511719 2.91359375 5.85742188 3.7334375 6.48828125 4.578125 C7.18566406 5.50753906 7.88304687 6.43695313 8.6015625 7.39453125 C11.18844382 11.05319013 13.6824611 14.76038237 16.1328125 18.51171875 C20.26897574 24.78527987 24.63637195 30.90555971 28.953125 37.05541992 C29.61828125 38.00650635 30.2834375 38.95759277 30.96875 39.9375 C31.56196045 40.78280273 32.1551709 41.62810547 32.76635742 42.49902344 C33.39646729 43.43262695 34.02657715 44.36623047 34.67578125 45.328125 C35.09104301 45.89244689 35.50630477 46.45676877 35.93415022 47.03819132 C39.53590136 52.22670277 40.39495206 56.07795757 40.29724121 62.32263184 C40.30363003 63.19361936 40.31001885 64.06460689 40.31660128 64.96198797 C40.33178645 67.86250481 40.31143315 70.76164144 40.29101562 73.66210938 C40.29451876 75.74880932 40.30017951 77.83550658 40.30783081 79.92219543 C40.32206057 85.57721515 40.30503458 91.23174755 40.28154564 96.88672066 C40.26141504 102.81001718 40.26731735 108.73329389 40.26965332 114.65661621 C40.26959977 124.60302755 40.24985712 134.54924877 40.21777344 144.49560547 C40.18088182 155.98820833 40.17209821 167.48056219 40.17907095 178.97321653 C40.1853804 190.03746109 40.17461343 201.10162043 40.15510559 212.16584778 C40.14693969 216.87060258 40.14422056 221.57531378 40.14579773 226.28007507 C40.14667791 231.82218382 40.13242415 237.36405664 40.1065712 242.90610313 C40.09942087 244.93778527 40.0973203 246.96949253 40.10068893 249.00118446 C40.10441543 251.77891668 40.08961548 254.55596486 40.07019043 257.33361816 C40.07818232 258.53363661 40.07818232 258.53363661 40.08633566 259.75789785 C39.98809429 267.92556654 37.57682282 274.56119801 31.67578125 280.328125 C25.65438642 283.64722568 20.34294579 283.7814378 13.5546875 283.76171875 C12.49595932 283.7669606 11.43723114 283.77220245 10.34642029 283.77760315 C8.11498895 283.78400553 5.88352379 283.78270956 3.65209961 283.77416992 C0.25247661 283.76566053 -3.14546457 283.79444721 -6.54492188 283.82617188 C-8.72005158 283.82778419 -10.89518425 283.82720578 -13.0703125 283.82421875 C-14.07887802 283.83545273 -15.08744354 283.84668671 -16.12657166 283.85826111 C-23.03543838 283.79059513 -28.55159386 282.65239066 -33.84617615 277.98704529 C-39.25969536 272.09989733 -39.62304638 265.08862113 -39.64547729 257.52116394 C-39.65565293 256.6580865 -39.66582857 255.79500906 -39.67631257 254.90577775 C-39.70759722 252.02597689 -39.72476777 249.14627583 -39.74169922 246.26635742 C-39.76078996 244.19602842 -39.78057288 242.1257057 -39.80099487 240.0553894 C-39.86362372 233.26486721 -39.90429049 226.47429717 -39.94140625 219.68359375 C-39.94800089 218.52566386 -39.95459554 217.36773396 -39.96139002 216.17471528 C-40.02295829 205.24004517 -40.07633528 194.30536343 -40.11022758 183.37057018 C-40.15398122 169.4212829 -40.23781287 155.47354084 -40.37710273 141.52487105 C-40.47188201 131.69693832 -40.52013448 121.86942019 -40.53462136 112.04104501 C-40.54449144 106.18129533 -40.57423009 100.32328944 -40.65410995 94.46404076 C-40.72840466 88.9417623 -40.74448573 83.42220291 -40.71809769 77.89951706 C-40.71820468 75.88642626 -40.73842681 73.87320631 -40.78160095 71.86057854 C-41.07623136 57.33491288 -37.82804605 48.57870725 -28.78140855 37.18673861 C-26.69173052 34.52140014 -24.8223701 31.73643874 -22.93359375 28.92578125 C-21.64896854 27.07945238 -20.36257471 25.23435251 -19.07421875 23.390625 C-18.43226563 22.46701172 -17.7903125 21.54339844 -17.12890625 20.59179688 C-3.07964419 0.4347733 -3.07964419 0.4347733 0 0 Z M-0.32421875 12.328125 C-1.28592921 13.57102165 -2.20111885 14.8499276 -3.09765625 16.140625 C-3.67040283 16.96191895 -4.24314941 17.78321289 -4.83325195 18.62939453 C-5.75690552 19.96526611 -5.75690552 19.96526611 -6.69921875 21.328125 C-7.32465576 22.22772949 -7.95009277 23.12733398 -8.59448242 24.05419922 C-10.50817041 26.80957918 -12.41670604 29.56846738 -14.32421875 32.328125 C-14.89253418 33.14829102 -15.46084961 33.96845703 -16.04638672 34.81347656 C-17.57867951 37.02519528 -19.10853037 39.23856881 -20.63671875 41.453125 C-21.09804199 42.12085938 -21.55936523 42.78859375 -22.03466797 43.4765625 C-24.34058069 46.80491517 -24.34058069 46.80491517 -26.32421875 50.328125 C-8.83421875 50.328125 8.65578125 50.328125 26.67578125 50.328125 C20.90766147 41.24502018 20.90766147 41.24502018 14.80078125 32.453125 C10.56235946 26.59541084 6.45213056 20.66130729 2.390625 14.6796875 C1.82472656 13.90367187 1.25882812 13.12765625 0.67578125 12.328125 C0.34578125 12.328125 0.01578125 12.328125 -0.32421875 12.328125 Z M-30.32421875 59.328125 C-30.32421875 119.058125 -30.32421875 178.788125 -30.32421875 240.328125 C-10.19421875 240.328125 9.93578125 240.328125 30.67578125 240.328125 C30.67578125 180.598125 30.67578125 120.868125 30.67578125 59.328125 C10.54578125 59.328125 -9.58421875 59.328125 -30.32421875 59.328125 Z M-30.32421875 248.328125 C-31.98831934 265.03382454 -31.98831934 265.03382454 -26.32421875 272.328125 C-20.98911344 275.42284546 -16.34540361 275.77231789 -10.35546875 275.7265625 C-9.51632935 275.72943268 -8.67718994 275.73230286 -7.81262207 275.73526001 C-6.04776327 275.73729118 -4.28288147 275.73182796 -2.51806641 275.71923828 C0.1681601 275.70317059 2.85288224 275.71911882 5.5390625 275.73828125 C7.26172204 275.73629865 8.98438065 275.73245462 10.70703125 275.7265625 C11.50202026 275.73263519 12.29700928 275.73870789 13.11608887 275.7449646 C18.24619628 275.68093713 22.13739718 274.96069347 26.67578125 272.328125 C32.33988184 265.03382454 32.33988184 265.03382454 30.67578125 248.328125 C10.54578125 248.328125 -9.58421875 248.328125 -30.32421875 248.328125 Z " fill="#000000" transform="translate(468.32421875,224.671875)"/>
<path d="M0 0 C2.625 0.9375 2.625 0.9375 5 2 C5 3.65 5 5.3 5 7 C2.36 9.64 -0.28 12.28 -3 15 C63 15 129 15 197 15 C194.69 12.69 192.38 10.38 190 8 C189.5625 4.5625 189.5625 4.5625 190 2 C192.475 1.01 192.475 1.01 195 0 C199.61678562 3.89460686 204.08269631 7.93937574 208.4375 12.125 C209.28183594 12.93195313 210.12617188 13.73890625 210.99609375 14.5703125 C213.22390507 17.27147945 213.80488034 18.53549911 214 22 C211.68714325 25.58213126 208.47894652 28.40124493 205.4375 31.375 C204.62474609 32.21933594 203.81199219 33.06367188 202.97460938 33.93359375 C202.17732422 34.72636719 201.38003906 35.51914062 200.55859375 36.3359375 C199.82954834 37.06345215 199.10050293 37.7909668 198.34936523 38.54052734 C196 40 196 40 192.71508789 39.72900391 C191.81910889 39.48843262 190.92312988 39.24786133 190 39 C189.5625 36.4375 189.5625 36.4375 190 33 C192.31 30.69 194.62 28.38 197 26 C131.33 26 65.66 26 -2 26 C0.31 28.31 2.62 30.62 5 33 C5.5625 35.8125 5.5625 35.8125 5 38 C3 40 3 40 0.63793945 40.34643555 C-2.72689983 39.90453763 -3.8145518 38.82984263 -6.20703125 36.45703125 C-6.95791016 35.71259766 -7.70878906 34.96816406 -8.48242188 34.20117188 C-9.25134766 33.41291016 -10.02027344 32.62464844 -10.8125 31.8125 C-11.60076172 31.04357422 -12.38902344 30.27464844 -13.20117188 29.48242188 C-13.94560547 28.73154297 -14.69003906 27.98066406 -15.45703125 27.20703125 C-16.13741455 26.5210083 -16.81779785 25.83498535 -17.51879883 25.12817383 C-19 23 -19 23 -19.44946289 20.49780273 C-18.866674 17.25906664 -17.69958374 16.10961627 -15.3515625 13.828125 C-14.59359375 13.08175781 -13.835625 12.33539063 -13.0546875 11.56640625 C-12.25289062 10.80199219 -11.45109375 10.03757812 -10.625 9.25 C-9.8309375 8.47011719 -9.036875 7.69023437 -8.21875 6.88671875 C-2.36648996 1.18324498 -2.36648996 1.18324498 0 0 Z " fill="#000000" transform="translate(178,352)"/>
<path d="M0 0 C4.87538128 1.55529741 7.82012507 4.95301199 11.3125 8.58203125 C12.04017578 9.29488281 12.76785156 10.00773438 13.51757812 10.7421875 C16.61109521 13.88471651 18.72713199 16.11817906 20.10546875 20.35546875 C20 22.95703125 20 22.95703125 18 24.95703125 C16.35 24.95703125 14.7 24.95703125 13 24.95703125 C10.36 22.31703125 7.72 19.67703125 5 16.95703125 C5 69.09703125 5 121.23703125 5 174.95703125 C7.31 172.64703125 9.62 170.33703125 12 167.95703125 C14.75 166.83203125 14.75 166.83203125 17 166.95703125 C18.875 168.08203125 18.875 168.08203125 20 169.95703125 C19.43342608 176.11067113 15.5038163 179.1153391 11.3125 183.26953125 C10.24999023 184.38038086 10.24999023 184.38038086 9.16601562 185.51367188 C6.22655119 188.45856469 3.99649776 190.63784056 0 191.91796875 C-4.88377346 190.35363506 -7.82465966 186.91605404 -11.3125 183.26953125 C-12.04017578 182.54830078 -12.76785156 181.82707031 -13.51757812 181.08398438 C-19.54153176 174.93652004 -19.54153176 174.93652004 -20 169.95703125 C-18.875 168.08203125 -18.875 168.08203125 -17 166.95703125 C-14.75 166.83203125 -14.75 166.83203125 -12 167.95703125 C-8.535 171.42203125 -8.535 171.42203125 -5 174.95703125 C-5 122.81703125 -5 70.67703125 -5 16.95703125 C-7.64 19.59703125 -10.28 22.23703125 -13 24.95703125 C-14.65 24.95703125 -16.3 24.95703125 -18 24.95703125 C-20 21.95703125 -20 21.95703125 -19.83666992 19.51879883 C-18.32522314 14.89095784 -14.70575955 12.00773535 -11.3125 8.64453125 C-10.60416016 7.90396484 -9.89582031 7.16339844 -9.16601562 6.40039062 C-6.22616858 3.4551145 -3.99876731 1.27564843 0 0 Z " fill="#000000" transform="translate(113,127.04296875)"/>
<path d="M0 0 C1.0144519 -0.00630432 2.02890381 -0.01260864 3.07409668 -0.019104 C4.72254578 -0.01303131 4.72254578 -0.01303131 6.40429688 -0.00683594 C7.52872192 -0.00874939 8.65314697 -0.01066284 9.81164551 -0.01263428 C12.1923037 -0.01399711 14.57296931 -0.01029388 16.95361328 -0.00195312 C20.60791641 0.00874477 24.26172788 -0.00184538 27.91601562 -0.01464844 C30.22461047 -0.01332686 32.533205 -0.01076451 34.84179688 -0.00683594 C35.94076294 -0.0108844 37.039729 -0.01493286 38.17199707 -0.019104 C39.18644897 -0.01279968 40.20090088 -0.00649536 41.24609375 0 C42.58939758 0.00238678 42.58939758 0.00238678 43.95983887 0.00482178 C46.12304688 0.25878906 46.12304688 0.25878906 48.12304688 2.25878906 C48.37701416 4.57385254 48.37701416 4.57385254 48.38183594 7.50292969 C48.38814026 8.5974646 48.39444458 9.69199951 48.40093994 10.81970215 C48.39689148 12.00616333 48.39284302 13.19262451 48.38867188 14.41503906 C48.39154205 16.23485291 48.39154205 16.23485291 48.39447021 18.09143066 C48.39583322 20.6604025 48.3921288 23.22938119 48.38378906 25.79833984 C48.37309148 29.7423441 48.38368081 33.68589281 48.39648438 37.62988281 C48.3951628 40.12076924 48.39260045 42.61165538 48.38867188 45.10253906 C48.39272034 46.28900024 48.3967688 47.47546143 48.40093994 48.69787598 C48.39463562 49.79241089 48.3883313 50.8869458 48.38183594 52.01464844 C48.38024475 52.9812439 48.37865356 53.94783936 48.37701416 54.94372559 C48.12304688 57.25878906 48.12304688 57.25878906 46.12304688 59.25878906 C43.95983887 59.51275635 43.95983887 59.51275635 41.24609375 59.51757812 C39.72441589 59.52703461 39.72441589 59.52703461 38.17199707 59.53668213 C37.07303101 59.53263367 35.97406494 59.52858521 34.84179688 59.52441406 C33.71737183 59.52632751 32.59294678 59.52824097 31.43444824 59.5302124 C29.05379005 59.53157523 26.67312444 59.52787201 24.29248047 59.51953125 C20.63817734 59.50883336 16.98436587 59.51942351 13.33007812 59.53222656 C11.02148328 59.53090499 8.71288875 59.52834263 6.40429688 59.52441406 C4.75584778 59.53048676 4.75584778 59.53048676 3.07409668 59.53668213 C2.05964478 59.53037781 1.04519287 59.52407349 0 59.51757812 C-1.34330383 59.51519135 -1.34330383 59.51519135 -2.71374512 59.51275635 C-4.87695312 59.25878906 -4.87695312 59.25878906 -6.87695312 57.25878906 C-7.13092041 54.94372559 -7.13092041 54.94372559 -7.13574219 52.01464844 C-7.14204651 50.92011353 -7.14835083 49.82557861 -7.15484619 48.69787598 C-7.15079773 47.51141479 -7.14674927 46.32495361 -7.14257812 45.10253906 C-7.14449158 43.88932983 -7.14640503 42.67612061 -7.14837646 41.42614746 C-7.14973947 38.85717563 -7.14603505 36.28819694 -7.13769531 33.71923828 C-7.12699773 29.77523403 -7.13758706 25.83168531 -7.15039062 21.88769531 C-7.14906905 19.39680889 -7.1465067 16.90592274 -7.14257812 14.41503906 C-7.14865082 12.63534729 -7.14865082 12.63534729 -7.15484619 10.81970215 C-7.14854187 9.72516724 -7.14223755 8.63063232 -7.13574219 7.50292969 C-7.134151 6.53633423 -7.13255981 5.56973877 -7.13092041 4.57385254 C-6.62312038 -0.05504803 -4.0008627 0.00710873 0 0 Z M2.12304688 9.25878906 C2.12304688 23.11878906 2.12304688 36.97878906 2.12304688 51.25878906 C6.74304688 51.25878906 11.36304688 51.25878906 16.12304688 51.25878906 C16.12304688 37.39878906 16.12304688 23.53878906 16.12304688 9.25878906 C11.50304687 9.25878906 6.88304687 9.25878906 2.12304688 9.25878906 Z M25.12304688 9.25878906 C25.12304688 23.11878906 25.12304688 36.97878906 25.12304688 51.25878906 C29.74304688 51.25878906 34.36304688 51.25878906 39.12304688 51.25878906 C39.12304688 37.39878906 39.12304688 23.53878906 39.12304688 9.25878906 C34.50304687 9.25878906 29.88304687 9.25878906 25.12304688 9.25878906 Z " fill="#000000" transform="translate(308.876953125,204.7412109375)"/>
<path d="M0 0 C7.28257716 7.69872442 10.51665314 15.4829446 10.453125 26.14453125 C10.45599518 27.2212635 10.45599518 27.2212635 10.45892334 28.31974792 C10.46027465 29.82311355 10.4566525 31.32649127 10.44824219 32.82983398 C10.43744773 35.13616746 10.44821303 37.44173603 10.4609375 39.74804688 C10.45961726 41.21354339 10.45705768 42.67903942 10.453125 44.14453125 C10.45717346 44.83408401 10.46122192 45.52363678 10.46539307 46.23408508 C10.41747931 51.08252069 10.41747931 51.08252069 8.1875 53.3125 C5.87243652 53.56646729 5.87243652 53.56646729 2.94335938 53.57128906 C1.30155701 53.58074554 1.30155701 53.58074554 -0.37341309 53.59039307 C-1.55987427 53.5863446 -2.74633545 53.58229614 -3.96875 53.578125 C-5.18195923 53.58003845 -6.39516846 53.5819519 -7.6451416 53.58392334 C-10.21411343 53.58528634 -12.78309212 53.58158192 -15.35205078 53.57324219 C-19.29605504 53.5625446 -23.23960375 53.57313394 -27.18359375 53.5859375 C-29.67448018 53.58461593 -32.16536632 53.58205358 -34.65625 53.578125 C-36.43594177 53.58419769 -36.43594177 53.58419769 -38.25158691 53.59039307 C-39.34612183 53.58408875 -40.44065674 53.57778442 -41.56835938 53.57128906 C-42.53495483 53.56969788 -43.50155029 53.56810669 -44.49743652 53.56646729 C-46.8125 53.3125 -46.8125 53.3125 -48.8125 51.3125 C-49.21605316 46.73782143 -49.14139465 42.14744927 -49.12817383 37.55688477 C-49.12504521 35.28286401 -49.14835143 33.01018489 -49.17382812 30.73632812 C-49.23071491 18.46560426 -47.90308753 10.58483448 -39.2265625 1.484375 C-27.83525958 -8.76411112 -12.52266855 -7.51360113 0 0 Z M-33.4375 8.5 C-39.94616379 16.20762818 -40.35111984 22.54540024 -40.0625 32.3125 C-39.98 36.2725 -39.8975 40.2325 -39.8125 44.3125 C-26.2825 44.3125 -12.7525 44.3125 1.1875 44.3125 C1.27 40.1875 1.3525 36.0625 1.4375 31.8125 C1.49212402 29.88567383 1.49212402 29.88567383 1.54785156 27.91992188 C1.61286017 21.17999724 1.30509382 15.83860464 -2.8125 10.3125 C-4.73601784 8.23463962 -4.73601784 8.23463962 -6.875 6.875 C-7.54660156 6.40191406 -8.21820313 5.92882812 -8.91015625 5.44140625 C-17.0124936 0.63324302 -26.59838159 2.80073466 -33.4375 8.5 Z " fill="#000000" transform="translate(230.8125,156.6875)"/>
<path d="M0 0 C4.55555556 0.55555556 4.55555556 0.55555556 6 2 C6.09676414 4.02494622 6.12186986 6.05332542 6.12025452 8.08058167 C6.12110894 8.72255381 6.12196337 9.36452596 6.12284368 10.0259518 C6.12450021 12.19254054 6.11897433 14.35905307 6.11352539 16.52563477 C6.11324353 18.07256061 6.11340123 19.61948659 6.1139679 21.16641235 C6.11425592 25.37904032 6.10835849 29.59164006 6.10139394 33.80426145 C6.09516112 38.20185788 6.09455666 42.59945489 6.09336853 46.99705505 C6.090255 55.33040513 6.08204132 63.66374215 6.07201904 71.99708647 C6.06085857 81.48181254 6.05534762 90.96653922 6.05032361 100.45127022 C6.03985873 119.96752089 6.02225887 139.4837594 6 159 C3.125 159.625 3.125 159.625 0 160 C-2.75039304 157.24960696 -2.25143206 155.70344564 -2.25396729 151.85058594 C-2.25960693 150.5381189 -2.26524658 149.22565186 -2.27105713 147.87341309 C-2.26716815 146.41039984 -2.26307179 144.94738714 -2.25878906 143.484375 C-2.2614978 141.95039707 -2.26505806 140.41642044 -2.26940918 138.88244629 C-2.27854948 134.70897755 -2.2749822 130.53560737 -2.26865101 126.36213684 C-2.26359948 122.00151294 -2.26828009 117.64089766 -2.27142334 113.28027344 C-2.27506546 105.95636474 -2.27025744 98.63249633 -2.26074219 91.30859375 C-2.24985716 82.8323074 -2.25338256 74.35611724 -2.264395 65.87983322 C-2.27346087 58.61187286 -2.27475659 51.34394151 -2.26951766 44.07597733 C-2.2663941 39.73093335 -2.26599917 35.38593465 -2.27259064 31.04089355 C-2.27835333 26.95663432 -2.27438708 22.87249953 -2.26280212 18.78825378 C-2.26014975 17.28619087 -2.26093043 15.78411754 -2.26532745 14.28205872 C-2.27076138 12.23784755 -2.26275118 10.19361358 -2.25396729 8.14941406 C-2.25321323 7.00345764 -2.25245918 5.85750122 -2.25168228 4.67681885 C-2 2 -2 2 0 0 Z " fill="#000000" transform="translate(478,294)"/>
<path d="M0 0 C4.55555556 0.55555556 4.55555556 0.55555556 6 2 C6.10112707 4.00766874 6.1307754 6.01894766 6.13371277 8.02915955 C6.13797775 9.34025192 6.14224274 10.6513443 6.14663696 12.00216675 C6.1462874 13.46881106 6.14582584 14.93545536 6.14526367 16.40209961 C6.14825351 17.93592918 6.15165563 19.469758 6.15544128 21.00358582 C6.16430328 25.18121761 6.16662032 29.35882894 6.16725707 33.53646922 C6.16820434 37.01827798 6.17188052 40.50008192 6.17542917 43.98188883 C6.18358207 52.19325062 6.18601264 60.40460143 6.18530273 68.6159668 C6.1847017 77.09961047 6.19525666 85.5831906 6.2110464 94.06681818 C6.22410141 101.33899929 6.22948749 108.61115959 6.22884732 115.88335234 C6.22859174 120.2317713 6.23147623 124.58013384 6.24202538 128.92854118 C6.25167217 133.01688072 6.25180921 137.1051095 6.24450874 141.19345284 C6.24345862 142.6971312 6.24585092 144.20081634 6.2518692 145.70448303 C6.2595317 147.7509272 6.25377117 149.79740873 6.24723816 151.84385681 C6.24778293 152.99111205 6.24832769 154.13836729 6.24888897 155.32038784 C6 158 6 158 4 160 C0.875 159.625 0.875 159.625 -2 159 C-2.04666832 138.56429384 -2.08196344 118.12859846 -2.10362434 97.69285011 C-2.11394806 88.20472052 -2.12802925 78.716624 -2.15087891 69.22851562 C-2.17077932 60.96112718 -2.18370846 52.69376268 -2.18817699 44.42635095 C-2.19079006 40.0466105 -2.19695452 35.66693855 -2.21146011 31.28722 C-2.2249912 27.16853504 -2.22923176 23.04994707 -2.22621536 18.93124199 C-2.22676754 17.41627285 -2.23077156 15.90130061 -2.23841095 14.38635063 C-2.24830245 12.32439163 -2.24599044 10.26280304 -2.24050903 8.20083618 C-2.24235262 7.04490778 -2.24419621 5.88897938 -2.24609566 4.69802284 C-2 2 -2 2 0 0 Z " fill="#000000" transform="translate(455,294)"/>
</svg>
