<?xml version="1.0" encoding="UTF-8"?>
<svg version="1.1" xmlns="http://www.w3.org/2000/svg" width="512" height="654">
<path d="M0 0 C11.69404684 10.14298171 19.916374 21.82361437 22.01953125 37.51953125 C22.20411382 40.79380407 22.25328145 44.06714686 22.30078125 47.34594727 C22.31882812 48.37484259 22.336875 49.40373791 22.35546875 50.46381187 C22.41576662 54.04612005 22.46805235 57.62849216 22.51953125 61.2109375 C22.53943115 62.5057007 22.55933105 63.80046391 22.57983398 65.13446236 C23.42649087 120.35464637 23.66913655 175.58507451 24.08203125 230.80993652 C24.1028557 233.59407559 24.12368901 236.37821458 24.14453125 239.16235352 C24.14967711 239.84985386 24.15482298 240.53735421 24.16012478 241.24568789 C24.24690652 252.82935622 24.33650253 264.41300099 24.42804718 275.99663264 C24.47872518 282.42724055 24.52808299 288.85785202 24.57397461 295.28849602 C24.58719631 297.12056586 24.58719631 297.12056586 24.60068512 298.98964721 C24.61808721 301.40931533 24.635176 303.82898573 24.65193939 306.24865836 C24.69388537 312.0067649 24.74803658 317.76423821 24.83093262 323.52191067 C24.86154139 325.70306939 24.89186036 327.88423219 24.921875 330.06539917 C24.94382809 331.64390033 24.94382809 331.64390033 24.96622467 333.2542904 C25.03424247 339.30905483 24.97767167 345.3445746 24.79256439 351.39682692 C24.68805217 355.03027608 24.64098766 358.6632535 24.60206604 362.29792702 C24.56853498 363.94599758 24.50688176 365.59379766 24.41368103 367.23957241 C24.12328116 372.41217196 24.13116051 376.64389073 26.01953125 381.51953125 C30.00525228 385.62513083 35.08425689 388.08908594 40.17646217 390.5590142 C43.95849949 392.53002623 46.94187507 395.42654251 49.95703125 398.39453125 C50.57126953 398.98476074 51.18550781 399.57499023 51.81835938 400.18310547 C57.24092904 405.50996592 61.82777378 411.1634582 66.01953125 417.51953125 C66.63054687 418.42574219 67.2415625 419.33195312 67.87109375 420.265625 C71.59187237 426.17461483 74.30597228 432.32287715 76.76953125 438.83203125 C77.05135254 439.56558838 77.33317383 440.29914551 77.62353516 441.05493164 C82.06137745 453.34709244 83.56035688 465.75952238 83.45703125 478.76953125 C83.45246918 479.77634445 83.45246918 479.77634445 83.44781494 480.80349731 C83.3724856 492.1034013 82.38269221 502.70845061 79.01953125 513.51953125 C78.70604736 514.53926025 78.70604736 514.53926025 78.38623047 515.57958984 C71.88653645 535.97450988 60.62830678 553.01056709 46.01953125 568.51953125 C45.36984375 569.24527344 44.72015625 569.97101562 44.05078125 570.71875 C32.98803983 582.56864803 18.73440145 591.00876955 4.01953125 597.51953125 C2.40691406 598.24076172 2.40691406 598.24076172 0.76171875 598.9765625 C-26.82982542 610.42117543 -60.24670094 611.25765777 -88.09326172 600.30126953 C-105.22203189 593.20601441 -118.92025699 582.62931711 -131.98046875 569.51953125 C-145.17808487 577.10191434 -158.35818523 584.70879081 -171.45141602 592.47045898 C-178.96876616 596.92605576 -186.50291121 601.35252415 -194.04296875 605.76953125 C-194.95237717 606.30234207 -194.95237717 606.30234207 -195.88015747 606.84591675 C-198.98327535 608.66396158 -202.08655321 610.48173305 -205.18994141 612.29931641 C-207.73664891 613.79090883 -210.28320421 615.2827605 -212.82958984 616.77490234 C-213.4657724 617.14768814 -214.10195496 617.52047394 -214.75741577 617.90455627 C-216.03458704 618.65313975 -217.31162656 619.40194804 -218.58853149 620.15098572 C-221.69287659 621.9717521 -224.79910637 623.78909872 -227.91015625 625.59838867 C-233.04501901 628.58911664 -238.15610797 631.59585081 -243.15625 634.80859375 C-252.8701212 641.00638192 -259.20265497 643.09633593 -270.69921875 640.765625 C-283.32197442 637.88702869 -295.40416203 632.92578378 -302.8046875 621.76953125 C-305.41107426 617.12473547 -307.32613373 612.57897738 -308.98046875 607.51953125 C-309.66490555 607.66986816 -310.34934235 607.82020508 -311.05451965 607.97509766 C-317.59312615 609.40758652 -324.13562691 610.82060214 -330.68282032 612.21334839 C-334.04647919 612.9295547 -337.40835383 613.65248887 -340.7668457 614.39257812 C-384.02379434 623.90900035 -384.02379434 623.90900035 -400.80078125 613.82421875 C-414.98119747 604.06777639 -425.24376055 591.56107898 -428.98046875 574.51953125 C-429.07787765 571.74251001 -429.12168189 568.9906919 -429.11748314 566.2137022 C-429.12013497 565.36432881 -429.12278679 564.51495542 -429.12551898 563.63984343 C-429.13321968 560.7744262 -429.13377145 557.90905177 -429.1343689 555.04362488 C-429.13838303 552.97608762 -429.14282117 550.90855115 -429.14764845 548.84101564 C-429.15962563 543.14402119 -429.16526508 537.44703521 -429.16982961 531.75003064 C-429.17578149 525.6113734 -429.18739249 519.47272632 -429.19812012 513.33407593 C-429.22149547 499.20115896 -429.2360537 485.06824161 -429.24834953 470.93531169 C-429.25260498 466.04426198 -429.25717073 461.15321265 -429.26193285 456.2621634 C-429.28719688 430.24778563 -429.3092417 404.23340723 -429.321661 378.21901989 C-429.32458226 372.19166753 -429.32754979 366.1643152 -429.33056641 360.13696289 C-429.33112277 359.01374348 -429.33112277 359.01374348 -429.33169037 357.86783276 C-429.34383922 333.60296593 -429.37477188 309.33817174 -429.41648793 285.07333901 C-429.45930795 260.12076899 -429.48590622 235.16823732 -429.49113571 210.21562957 C-429.49187612 206.68858142 -429.49278679 203.16153333 -429.49379349 199.63448524 C-429.4939841 198.9403579 -429.49417472 198.24623055 -429.49437111 197.53106905 C-429.49787983 186.37621218 -429.51815545 175.22144649 -429.54459012 164.06662306 C-429.57078211 152.84459098 -429.57802902 141.62266212 -429.56748883 130.40059414 C-429.56230613 124.32482326 -429.56516431 118.24934139 -429.58995438 112.17361259 C-429.61248554 106.60490237 -429.61167646 101.03668812 -429.5927505 95.46796898 C-429.58995595 93.45975275 -429.5955185 91.45150261 -429.61056344 89.4433408 C-429.72874937 72.63217667 -427.23555984 59.40759183 -416.98046875 45.51953125 C-416.50867188 44.8646875 -416.036875 44.20984375 -415.55078125 43.53515625 C-407.6943104 33.5037302 -395.72350449 27.55263026 -383.26576233 25.98291016 C-381.99110771 25.80723731 -381.99110771 25.80723731 -380.6907025 25.62801552 C-377.78955716 25.23771166 -374.88612606 24.87465704 -371.98046875 24.51953125 C-370.92280139 24.39025993 -369.86513402 24.26098862 -368.77541614 24.12779999 C-360.69627072 23.1541748 -352.61041402 22.24236065 -344.5229677 21.34084988 C-340.88578899 20.9345644 -337.24910304 20.52390966 -333.61235046 20.11383057 C-327.32915721 19.40592705 -321.04566816 18.70070208 -314.76196098 17.99737549 C-305.64777752 16.97723552 -296.53406351 15.95295021 -287.42045046 14.92772841 C-272.58946444 13.25945417 -257.75810811 11.59449638 -242.92651367 9.93164062 C-228.59981185 8.32538442 -214.27329518 6.71749222 -199.94702148 5.10742188 C-199.06546918 5.00834841 -198.18391687 4.90927494 -197.27565085 4.80719924 C-193.72995826 4.40870856 -190.18426711 4.01020499 -186.63857784 3.61168468 C-158.62781128 0.4633994 -130.61681266 -2.68281698 -102.60533154 -5.8247385 C-100.50262524 -6.06060714 -98.39992468 -6.2965269 -96.29722595 -6.53246307 C-95.62990572 -6.60733366 -94.96258548 -6.68220424 -94.27504342 -6.75934362 C-92.30670814 -6.98018454 -90.33837504 -7.20104491 -88.37004197 -7.42190552 C-85.86171562 -7.70300232 -83.35332825 -7.98355522 -80.84487522 -8.26351929 C-74.72162272 -8.94698193 -68.59939299 -9.63793528 -62.47862434 -10.34332275 C-61.26487477 -10.48178431 -60.0511252 -10.62024586 -58.80059534 -10.76290321 C-56.53170104 -11.02180043 -54.26314184 -11.28366152 -51.99502414 -11.54927635 C-31.61775316 -13.86072065 -16.32432764 -13.58577727 0 0 Z M-53.29481506 -2.05130005 C-54.69159688 -1.89537162 -56.08844938 -1.74007543 -57.48536485 -1.58534896 C-61.28730389 -1.1624038 -65.08818626 -0.73056997 -68.88894379 -0.29715323 C-73.00223401 0.17029187 -77.11646223 0.6293439 -81.23057556 1.08947754 C-89.2753786 1.9905582 -97.31929889 2.89929484 -105.36294229 3.81066285 C-114.74039887 4.87286101 -124.11871272 5.92739384 -133.49706703 6.98163129 C-150.23577386 8.86352155 -166.97369488 10.75231139 -183.71118164 12.64501953 C-199.93359946 14.4794763 -216.15655253 16.30910058 -232.38012695 18.13330078 C-233.37953121 18.24567581 -234.37893548 18.35805083 -235.40862472 18.47383116 C-236.40634178 18.58601576 -237.40405884 18.69820035 -238.43200976 18.81378448 C-256.93007373 20.89375711 -275.4276596 22.97795329 -293.92500578 25.06429919 C-300.45417989 25.80065032 -306.98348717 26.53581319 -313.51283455 27.27062607 C-321.47469585 28.16675011 -329.43627312 29.0653538 -337.39751322 29.96698056 C-341.45552337 30.42651665 -345.51363709 30.88507548 -349.57207108 31.34085464 C-353.29369866 31.75884727 -357.01497404 32.17984515 -360.73600023 32.60315706 C-362.70562475 32.82647648 -364.67559895 33.04670531 -366.6455875 33.26679027 C-384.97181843 35.36088173 -398.45937093 37.83099697 -410.80078125 52.71484375 C-417.49214077 62.09619704 -420.13640678 72.451111 -420.11468983 83.82905579 C-420.11704206 84.66667523 -420.11939429 85.50429467 -420.1218178 86.36729652 C-420.1284986 89.18669047 -420.12804985 92.00603825 -420.12763977 94.82543945 C-420.13093897 96.86226662 -420.13466465 98.89909313 -420.13878125 100.93591881 C-420.14880303 106.5433041 -420.15251833 112.15067868 -420.15517056 117.75807166 C-420.15907308 123.80191996 -420.16865146 129.84575978 -420.17738342 135.88960266 C-420.19621496 149.80041354 -420.20640415 163.71122361 -420.2148441 177.62204355 C-420.21905194 184.49798861 -420.22427376 191.3739328 -420.22952863 198.24987713 C-420.24741869 221.79211171 -420.26241397 245.33434655 -420.26984882 268.87658691 C-420.27032358 270.35438657 -420.27079947 271.83218622 -420.27127649 273.30998588 C-420.27151286 274.04283365 -420.27174924 274.77568142 -420.27199278 275.5307367 C-420.27319396 279.24363567 -420.27440942 282.95653463 -420.27563477 286.66943359 C-420.27587492 287.40626643 -420.27611507 288.14309926 -420.27636249 288.90226036 C-420.28425354 312.78639744 -420.30768143 336.67048484 -420.34019071 360.55460022 C-420.3745071 385.81254183 -420.39420166 411.07045438 -420.39749306 436.32841969 C-420.39791059 439.10252191 -420.39839016 441.87662411 -420.39891624 444.65072632 C-420.39903944 445.33377681 -420.39916263 446.01682729 -420.39928955 446.72057628 C-420.40161937 457.70187897 -420.41726717 468.68312386 -420.43775809 479.66440596 C-420.4580382 490.70815772 -420.46315027 501.75185516 -420.45398746 512.79562598 C-420.44944138 518.77592911 -420.45134725 524.75604494 -420.4707489 530.7363224 C-420.48837082 536.2153955 -420.48739041 541.6941445 -420.47185161 547.17322099 C-420.4694741 549.15108642 -420.47380647 551.12897423 -420.48568026 553.10680544 C-420.58888256 571.43881526 -417.72769667 584.44578615 -404.85546875 598.20703125 C-395.66083466 607.17525848 -386.19477029 610.82259349 -373.59259033 610.71359253 C-367.63951657 610.39376356 -361.94347841 609.19460585 -356.12890625 607.9296875 C-354.86704498 607.66570663 -353.60518372 607.40172577 -352.30508423 607.12974548 C-348.99288254 606.43644998 -345.6842435 605.72743987 -342.37609863 605.01507568 C-339.66569456 604.43420464 -336.95298402 603.86457829 -334.24008751 603.29547977 C-328.63727859 602.1200234 -323.03628171 600.93596559 -317.43896484 599.73461914 C-316.45447357 599.52366104 -315.4699823 599.31270294 -314.45565796 599.09535217 C-311.86894289 598.53404719 -311.86894289 598.53404719 -308.98046875 597.51953125 C-308.76132812 596.24980469 -308.5421875 594.98007812 -308.31640625 593.671875 C-306.32117955 582.65082754 -303.71372865 572.69604004 -298.98046875 562.51953125 C-298.76639877 561.88797119 -298.5523288 561.25641113 -298.33177185 560.60571289 C-297.04325517 557.27522121 -295.87754263 555.09223077 -292.81912231 553.13970947 C-289.98419524 551.89440405 -287.13280813 550.85029398 -284.203125 549.84765625 C-283.10949646 549.44709015 -282.01586792 549.04652405 -280.88909912 548.63381958 C-277.28269875 547.319266 -273.66337738 546.04493916 -270.04296875 544.76953125 C-267.51990307 543.85673555 -264.99789561 542.94150427 -262.47729492 542.02197266 C-258.57324894 540.59989167 -254.66826897 539.18068443 -250.75813293 537.77542114 C-238.50727162 533.3724442 -226.32661237 528.79102045 -214.15609741 524.17068481 C-208.68456312 522.09448771 -203.20920708 520.02841874 -197.734375 517.9609375 C-195.70588131 517.19420126 -193.67739791 516.4274378 -191.64892578 515.66064453 C-187.27266083 514.0069216 -182.89502072 512.35689434 -178.5164032 510.70941162 C-175.7107611 509.65348833 -172.90586273 508.59560122 -170.10116577 507.53717041 C-168.29444179 506.8561452 -166.48671608 506.17777937 -164.67895508 505.49951172 C-163.64923584 505.11037598 -162.6195166 504.72124023 -161.55859375 504.3203125 C-160.6862207 503.99200439 -159.81384766 503.66369629 -158.91503906 503.32543945 C-157.00987413 502.67587533 -157.00987413 502.67587533 -155.98046875 501.51953125 C-155.80056287 500.01411192 -155.68043974 498.50146426 -155.5859375 496.98828125 C-154.63006251 483.32147567 -153.34762459 470.11617691 -148.3515625 457.234375 C-146.80734181 453.71042636 -146.80734181 453.71042636 -146.98046875 450.51953125 C-159.40775116 451.12228798 -171.71556985 452.5649122 -184.06564522 454.0328083 C-187.74575602 454.46970861 -191.42647455 454.90111622 -195.10740662 455.33103943 C-205.5623665 456.55287696 -216.01640199 457.78244978 -226.46948242 459.02026367 C-232.89209497 459.78041749 -239.31559567 460.5326535 -245.73969841 461.28010368 C-248.1706862 461.5645419 -250.60132694 461.85196414 -253.0315876 462.14254951 C-286.58475052 466.15286184 -286.58475052 466.15286184 -293.10546875 462.89453125 C-298.57791281 458.37381659 -300.63443675 454.11826401 -301.29296875 447.26953125 C-300.80557893 441.42085338 -298.74269144 437.23656874 -294.54296875 433.14453125 C-289.85699077 430.17293546 -285.64319349 429.19025167 -280.14880371 428.57789612 C-279.47427328 428.50071647 -278.79974284 428.42353682 -278.10477209 428.3440184 C-275.85244706 428.08798088 -273.59913802 427.84200956 -271.34570312 427.59594727 C-269.72741097 427.41397049 -268.10919259 427.23133667 -266.49104309 427.0480957 C-263.01022732 426.65515824 -259.52896979 426.26649856 -256.0473175 425.88104439 C-250.54175949 425.27111655 -245.037574 424.64938874 -239.53356934 424.02561951 C-224.87247221 422.36589677 -210.20972406 420.72096502 -195.54598284 419.08477396 C-185.90896899 418.00943453 -176.27277582 416.92728356 -166.63799715 415.83208221 C-161.16694343 415.21073724 -155.69481208 414.60035124 -150.22162628 413.99809086 C-146.8171317 413.62095575 -143.41382825 413.23383152 -140.01077843 412.84389496 C-138.43304143 412.66515708 -136.85483119 412.49054083 -135.27614784 412.320364 C-133.12005382 412.08735333 -130.96614455 411.83959313 -128.81213379 411.58815002 C-127.60647011 411.45340051 -126.40080643 411.31865099 -125.15860748 411.17981815 C-119.25279003 409.95283146 -115.44549772 406.29503524 -111.04296875 402.39453125 C-84.97556956 379.92700449 -51.41025583 368.32290328 -16.96923828 370.65576172 C-7.23904677 371.48762357 1.69413391 373.60849505 11.01953125 376.51953125 C12.35123524 376.85931555 13.68428112 377.193961 15.01953125 377.51953125 C15.35060516 303.40477056 14.90844719 229.29504264 14.29695797 155.18283653 C14.22549855 146.44144877 14.16162711 137.70002538 14.10089111 128.95855713 C14.0255405 118.14557063 13.93944241 107.33273127 13.84006327 96.51993793 C13.78866287 90.90414712 13.74181543 85.28841565 13.70707893 79.67249489 C13.67458715 74.45805464 13.62836292 69.24391424 13.57164931 64.02968287 C13.55336781 62.13589367 13.53992142 60.24205005 13.53190064 58.34818959 C13.48464966 47.92368829 12.87188007 38.60482185 10.01953125 28.51953125 C-0.24764992 29.0826051 -10.437361 29.90771731 -20.65557861 31.08673096 C-22.05497987 31.24523217 -23.4544204 31.40338698 -24.8538959 31.56123137 C-28.64873628 31.99029898 -32.44298516 32.42440159 -36.23714066 32.85947824 C-40.3485932 33.33005871 -44.46057758 33.79595196 -48.57247925 34.2625885 C-58.46796958 35.38667586 -68.36254676 36.51868873 -78.25699818 37.65187895 C-81.98969118 38.07926511 -85.72244034 38.50615948 -89.45519091 38.93304248 C-105.93124226 40.81731298 -122.4070137 42.70401176 -138.8820076 44.59750748 C-142.9005027 45.05932896 -146.91899942 45.52113638 -150.9375 45.98291016 C-152.43544806 46.15504554 -152.43544806 46.15504554 -153.96365771 46.33065841 C-170.16474772 48.19197531 -186.36751634 50.03823857 -202.57103124 51.87831369 C-219.23856201 53.77133222 -235.90450888 55.6778199 -252.56899333 57.59747386 C-261.91317784 58.67353218 -271.2579519 59.74372343 -280.60453033 60.79880524 C-288.55661408 61.69650999 -296.50718118 62.60642596 -304.45605281 63.53215942 C-308.50722546 64.00358767 -312.55883377 64.46930641 -316.61244583 64.91932106 C-320.3299925 65.33216601 -324.04522462 65.76174225 -327.75936207 66.20417985 C-329.72474306 66.43404058 -331.69214115 66.64645283 -333.65957379 66.85803533 C-347.28938947 68.5190261 -358.9556352 73.28119478 -368.015625 83.90625 C-378.34399044 97.87476123 -379.28001907 112.57238999 -379.25894165 129.35025024 C-379.26394914 131.16554588 -379.26982627 132.98083929 -379.27649438 134.79612958 C-379.29225345 139.76743692 -379.29572281 144.73868767 -379.29714298 149.71001697 C-379.30084418 155.07732414 -379.31600326 160.44460053 -379.32975769 165.81188965 C-379.35201172 175.10547181 -379.36703618 184.399043 -379.37712479 193.69264603 C-379.39172164 207.12956765 -379.41726132 220.56645103 -379.44545607 234.00335018 C-379.49090575 255.80479494 -379.52752811 277.6062452 -379.55859375 299.40771484 C-379.58878675 320.58350594 -379.62314049 341.75928355 -379.66308594 362.93505859 C-379.66554749 364.24073542 -379.66800903 365.54641225 -379.67054518 366.89165504 C-379.68291992 373.44197204 -379.69537643 379.99228888 -379.70787358 386.54260564 C-379.81141407 440.86822868 -379.90062635 495.19386857 -379.98046875 549.51953125 C-381.98001621 549.56207481 -383.98088511 549.56033908 -385.98046875 549.51953125 C-387.63371477 547.86628523 -387.1077191 545.88372594 -387.11918566 543.67415786 C-387.11770203 542.97355624 -387.11621841 542.27295463 -387.11468983 541.55112267 C-387.11704206 540.80988997 -387.11939429 540.06865728 -387.1218178 539.30496299 C-387.12854247 536.78934374 -387.12804853 534.27377572 -387.12763977 531.75814819 C-387.1309363 529.94893776 -387.13466141 528.13972806 -387.13878125 526.33051932 C-387.14883441 521.33364272 -387.15252339 516.33677814 -387.15517056 511.33989286 C-387.15906412 505.95988164 -387.16864345 500.57988001 -387.17738342 495.19987488 C-387.19718036 482.19009166 -387.2072206 469.18030762 -387.21611121 456.17051309 C-387.22049103 450.04583049 -387.22585884 443.92114875 -387.23110008 437.79646683 C-387.24811972 417.43658058 -387.26261218 397.07669487 -387.26984882 376.7168026 C-387.27175878 371.42871475 -387.2736791 366.1406269 -387.27563477 360.85253906 C-387.27611851 359.53817811 -387.27660225 358.22381715 -387.27710065 356.86962707 C-387.28539435 335.59522555 -387.31071683 314.32088125 -387.34321544 293.04650275 C-387.37630241 271.20890789 -387.39429929 249.37134163 -387.39749306 227.53372157 C-387.39965723 215.27121849 -387.40839166 203.00879746 -387.43395424 190.74631882 C-387.45568401 180.29807217 -387.46370062 169.84992747 -387.45398746 159.40166079 C-387.44944866 154.07326474 -387.45130444 148.7450789 -387.4707489 143.41671181 C-387.48842426 138.53073068 -387.48734735 133.64511244 -387.47185161 128.75912721 C-387.4694821 126.9991397 -387.47376469 125.23912677 -387.48568026 123.479178 C-387.60634274 104.46677902 -383.91992467 88.05775404 -370.39453125 73.80859375 C-358.31371206 62.3533186 -344.93426573 59.87721024 -328.93554688 58.11621094 C-327.117334 57.90598533 -325.29925838 57.69456977 -323.48130989 57.48206997 C-318.53280115 56.90705621 -313.58253727 56.34870656 -308.63180208 55.79323554 C-303.34002742 55.19652028 -298.05005585 54.58421013 -292.75985718 53.97370911 C-283.70625719 52.93100476 -274.65160255 51.89792565 -265.59613037 50.87161255 C-252.65682691 49.40506962 -239.71929768 47.92335171 -226.78220057 46.43748534 C-206.74942321 44.13691863 -186.71549756 41.84655174 -166.68066406 39.56396484 C-134.89945187 35.94293699 -103.12166894 32.29230543 -71.34479141 28.63345909 C-62.43134731 27.60733874 -53.51749731 26.58483298 -44.60326195 25.56560993 C-39.18592924 24.94617348 -33.76881056 24.32487401 -28.35170364 23.70346642 C-25.88474509 23.42087448 -23.41770379 23.1390037 -20.95057297 22.85791969 C-17.64114593 22.48081344 -14.33201693 22.10119162 -11.02294922 21.72094727 C-9.58737293 21.5583951 -9.58737293 21.5583951 -8.1227951 21.39255905 C-4.03344688 20.92029117 -0.00071095 20.4318883 4.01953125 19.51953125 C-0.43014562 9.05677753 -12.25404267 1.3844905 -22.35546875 -2.91796875 C-32.61491922 -4.50995244 -43.0530397 -3.23351585 -53.29481506 -2.05130005 Z M-116.98046875 420.64453125 C-137.30590766 443.58233065 -148.58382262 473.65603131 -147.12402344 504.40576172 C-145.23487692 532.22248033 -132.75456938 556.90649478 -111.98046875 575.51953125 C-94.91927299 589.34498299 -73.80281403 597.13920218 -51.98046875 598.51953125 C-51.12453125 598.57367187 -50.26859375 598.6278125 -49.38671875 598.68359375 C-20.00166113 599.59155901 8.77104744 588.30260986 31.01953125 569.51953125 C31.963125 568.73964844 32.90671875 567.95976563 33.87890625 567.15625 C55.91830548 548.13637298 70.98419568 519.49603372 74.01953125 490.51953125 C75.49619561 461.05403512 69.06216457 433.88327836 49.01953125 411.51953125 C32.84100651 393.87748865 9.38120774 380.6678214 -14.97802734 379.35839844 C-56.10702536 378.81026674 -88.28878632 390.43335162 -116.98046875 420.64453125 Z M-142.40725708 421.15145874 C-143.65494873 421.29160904 -144.90264038 421.43175934 -146.18814087 421.57615662 C-147.5526831 421.73346641 -148.91721524 421.89086373 -150.28173828 422.04833984 C-151.73273168 422.21289866 -153.18376219 422.37713051 -154.63482666 422.5410614 C-158.56068532 422.98570288 -162.48594621 423.43542137 -166.41107416 423.88646269 C-169.69141905 424.2630365 -172.97202004 424.6373532 -176.2526139 425.01175082 C-183.99094633 425.89502165 -191.72876917 426.78266292 -199.46630859 427.67285156 C-207.44481621 428.59066915 -215.42422503 429.50032882 -223.40410531 430.40612733 C-230.26259865 431.18497216 -237.1204567 431.96924669 -243.97784126 432.75779402 C-248.07046156 433.2283349 -252.16329928 433.69672772 -256.25677872 434.15974045 C-260.1037793 434.59508152 -263.94994312 435.03718621 -267.79557037 435.48449135 C-269.20579429 435.64736759 -270.61629737 435.80784756 -272.02708817 435.9657383 C-273.95468346 436.18185139 -275.88120101 436.40751344 -277.80764771 436.63363647 C-279.424201 436.81891686 -279.424201 436.81891686 -281.07341194 437.00794029 C-285.32468699 437.75609006 -288.16815098 438.77134383 -291.35546875 441.70703125 C-293.27750857 444.49227253 -293.27750857 444.49227253 -292.98046875 448.08203125 C-291.90979886 451.762459 -290.95215862 453.17819984 -287.98046875 455.51953125 C-277.38936853 460.81508136 -253.27346897 453.70769545 -241.9765625 452.39453125 C-239.2810188 452.08369554 -236.58533821 451.77405431 -233.8896637 451.46435547 C-228.27076874 450.81816985 -222.65222998 450.1689635 -217.03393555 449.51757812 C-209.12559825 448.6006958 -201.21658122 447.68978317 -193.30744445 446.77982712 C-187.79893022 446.14582085 -182.29059116 445.51029477 -176.78227735 444.87454987 C-174.79667597 444.64540985 -172.81105679 444.41642411 -170.82543755 444.18743896 C-167.12365469 443.76013162 -163.42203118 443.33147167 -159.72045898 442.90234375 C-158.62997253 442.77659973 -157.53948608 442.65085571 -156.41595459 442.52130127 C-154.45024635 442.29285893 -152.4850579 442.05986977 -150.5205822 441.82106018 C-148.94308135 441.63379998 -147.3635234 441.46229198 -145.78174019 441.3155365 C-143.70818321 441.12968009 -143.70818321 441.12968009 -140.98046875 440.51953125 C-139.18611721 438.21163447 -138.03440371 436.4067621 -136.79296875 433.83203125 C-136.155768 432.59786035 -135.51645735 431.36477641 -134.875 430.1328125 C-134.56900879 429.53162598 -134.26301758 428.93043945 -133.94775391 428.31103516 C-132.47350528 425.58058679 -130.74673928 423.06907031 -128.98046875 420.51953125 C-133.51537914 420.46172312 -137.90217155 420.63862174 -142.40725708 421.15145874 Z M-163.62109375 514.31640625 C-164.42946686 514.61694916 -165.23783997 514.91749207 -166.07070923 515.22714233 C-168.79132032 516.23942625 -171.51093297 517.25436227 -174.23046875 518.26953125 C-175.64419769 518.79640533 -175.64419769 518.79640533 -177.08648682 519.33392334 C-188.84308797 523.71544409 -200.59078532 528.12047219 -212.33203125 532.54296875 C-213.44609344 532.96229675 -214.56015564 533.38162476 -215.70797729 533.81365967 C-221.34655916 535.93787671 -226.98103867 538.07210454 -232.60888672 540.22460938 C-241.89911918 543.77081297 -251.17420647 547.30676641 -260.61349487 550.43978882 C-264.07474035 551.58904311 -267.52195717 552.77751081 -270.96929932 553.9677124 C-272.53013006 554.49219465 -274.09833921 554.99532804 -275.67376709 555.47418213 C-285.00630749 558.28660022 -285.00630749 558.28660022 -291.42504883 565.29321289 C-293.32517384 569.25324759 -294.71842153 573.31953843 -295.98046875 577.51953125 C-296.34180908 578.60419678 -296.70314941 579.6888623 -297.07543945 580.80639648 C-299.98091212 589.94714315 -301.04539244 602.54474293 -297.41796875 611.58203125 C-296.3187335 613.62414526 -296.3187335 613.62414526 -294.98046875 615.51953125 C-294.28630859 616.55980469 -294.28630859 616.55980469 -293.578125 617.62109375 C-286.77845702 626.49889987 -276.52475695 629.75561554 -265.98828125 632.171875 C-260.59781248 632.79492918 -256.59471634 631.61207967 -251.98828125 628.8515625 C-251.04895752 628.29557373 -250.10963379 627.73958496 -249.1418457 627.16674805 C-248.13984131 626.5612915 -247.13783691 625.95583496 -246.10546875 625.33203125 C-243.93504483 624.0427179 -241.76446778 622.75366229 -239.59375 621.46484375 C-238.4898291 620.80516602 -237.3859082 620.14548828 -236.24853516 619.46582031 C-231.28461081 616.50956715 -226.28827343 613.60982188 -221.29296875 610.70703125 C-212.34696346 605.49234493 -203.41235165 600.25834926 -194.48046875 595.01953125 C-175.3460861 583.79714978 -156.18718135 572.61774961 -136.98046875 561.51953125 C-137.48835937 560.62234375 -137.99625 559.72515625 -138.51953125 558.80078125 C-146.72555754 544.03553667 -153.05812701 528.43613853 -154.98046875 511.51953125 C-157.78062285 511.51953125 -160.98264606 513.33110634 -163.62109375 514.31640625 Z " fill="#000000" transform="translate(428.98046875,12.48046875)"/>
<path d="M0 0 C3.96205091 1.391131 6.3399573 1.85145736 10.45703125 0.73168945 C11.31039062 0.50739258 12.16375 0.2830957 13.04296875 0.05200195 C13.92726563 -0.1903418 14.8115625 -0.43268555 15.72265625 -0.68237305 C30.02398497 -4.54415617 45.50080051 -6.59715652 59.97265625 -2.30737305 C60.80152344 -2.06245117 61.63039063 -1.8175293 62.484375 -1.56518555 C71.65792012 1.60973206 77.89119704 7.04082192 82.41015625 15.63012695 C89.22658909 30.81132364 88.62686259 47.16865214 82.97265625 62.69262695 C78.73151629 72.88894271 73.06092651 83.3016658 64.68969727 90.71411133 C60.84525869 94.32867626 58.28189252 97.00326372 57.3125 102.29907227 C57.24457273 105.73873929 57.30210978 109.09417736 57.52359009 112.52331543 C57.75483014 116.19649264 57.82474657 119.87287746 57.90234375 123.55200195 C57.92015396 124.26725037 57.93796417 124.98249878 57.95631409 125.71942139 C58.11267299 134.18210897 56.58367909 141.69743611 53.97265625 149.69262695 C53.59882813 150.84891602 53.225 152.00520508 52.83984375 153.1965332 C48.54528837 165.2411968 42.51756785 176.16640925 33.97265625 185.69262695 C33.16054688 186.59883789 32.3484375 187.50504883 31.51171875 188.4387207 C19.17568886 201.48018339 2.91958548 211.00407919 -15.02734375 213.69262695 C-15.66929687 213.80219727 -16.31125 213.91176758 -16.97265625 214.0246582 C-36.19719132 216.76579913 -57.31653529 214.78700159 -73.29248047 203.01513672 C-77.75499188 199.61330386 -81.65017718 196.23881272 -85.02734375 191.69262695 C-85.61902344 191.82540039 -86.21070313 191.95817383 -86.8203125 192.0949707 C-88.00560547 192.35987305 -88.00560547 192.35987305 -89.21484375 192.63012695 C-89.99214844 192.80415039 -90.76945312 192.97817383 -91.5703125 193.1574707 C-92.78654297 193.42237305 -92.78654297 193.42237305 -94.02734375 193.69262695 C-94.80464844 193.8730957 -95.58195312 194.05356445 -96.3828125 194.23950195 C-108.14549336 196.25496869 -119.31044556 194.89597763 -129.21484375 188.00512695 C-138.59475418 180.29745465 -145.31477207 170.98389661 -147.02734375 158.69262695 C-147.05537545 157.35302521 -147.06509728 156.01298818 -147.0625 154.6730957 C-147.06965327 143.38881677 -149.19010876 134.1664502 -153.00415039 123.56860352 C-160.33493146 102.9461118 -162.67983836 78.79342554 -153.41235352 58.38354492 C-149.70039982 50.79095315 -145.25691475 44.47954213 -139.02734375 38.69262695 C-138.37636719 38.08418945 -137.72539062 37.47575195 -137.0546875 36.84887695 C-133.57895355 33.90220462 -130.01568557 31.63726661 -125.92578125 29.6496582 C-117.59054731 25.59885632 -111.9864234 22.80943111 -107.47265625 14.32543945 C-100.78028413 2.13446969 -87.09647338 -4.45101843 -74.375 -8.3972168 C-49.5336338 -15.15105382 -23.3729585 -8.89865324 0 0 Z M-97.02734375 16.69262695 C-100.34342368 20.48422023 -103.36967537 24.03893989 -105.2421875 28.74731445 C-107.61378754 32.66019505 -110.53578302 33.62684339 -114.65234375 35.13012695 C-121.33128235 37.80917742 -126.69404815 40.76873371 -132.02734375 45.69262695 C-132.64867187 46.23532227 -133.27 46.77801758 -133.91015625 47.3371582 C-143.9327951 56.60050623 -148.69375982 68.83584905 -149.41015625 82.29418945 C-149.84609592 97.18320571 -147.89418672 110.61824323 -143.02734375 124.69262695 C-142.36734375 124.69262695 -141.70734375 124.69262695 -141.02734375 124.69262695 C-139.94406154 123.08720872 -138.93683858 121.43026698 -137.96484375 119.75512695 C-130.65882367 108.09244325 -121.32742666 100.86624259 -108.1875 96.81762695 C-98.81538952 94.73814481 -90.34808584 95.9527551 -81.02734375 97.69262695 C-80.68309466 90.46339611 -81.54436464 83.9056077 -82.96020508 76.84716797 C-83.83491536 72.36863053 -84.17093229 68.25754603 -84.02734375 63.69262695 C-78.20667148 63.39731915 -73.41458124 64.4629823 -67.83984375 66.06762695 C-60.60832498 68.05629462 -53.48247157 69.75801909 -46.02734375 70.69262695 C-45.14304687 70.80348633 -44.25875 70.9143457 -43.34765625 71.02856445 C-17.94030262 73.75341107 9.28883773 69.99280145 30.03515625 54.00512695 C31.35339032 52.90781241 32.66683355 51.80468241 33.97265625 50.69262695 C34.83890625 50.05325195 35.70515625 49.41387695 36.59765625 48.75512695 C40.09055313 45.72182176 42.9792234 42.20910586 45.97265625 38.69262695 C46.97265625 37.69262695 46.97265625 37.69262695 49.47265625 37.56762695 C51.97265625 37.69262695 51.97265625 37.69262695 52.97265625 38.69262695 C53.47243283 42.11371664 53.19375318 43.38602031 51.14453125 46.2277832 C50.3453125 47.06180664 49.54609375 47.89583008 48.72265625 48.75512695 C47.93375 49.59172852 47.14484375 50.42833008 46.33203125 51.2902832 C44.22406294 53.43664167 42.10723068 55.57273997 39.97265625 57.69262695 C41.63220984 62.10669734 43.71220601 66.2467238 45.84765625 70.44262695 C48.71974913 76.12968248 51.46200839 81.83444862 53.97265625 87.69262695 C66.68992818 77.75269027 74.65247498 61.93579058 77.5625 46.2355957 C78.77860612 35.73075525 77.43590766 25.86162496 71.97265625 16.69262695 C67.08447575 10.56300378 60.62283311 7.08431682 52.97265625 5.69262695 C38.29614985 4.36631423 23.72971509 5.44532372 9.9453125 10.88793945 C3.32818329 12.67917285 -2.33261831 9.92953159 -8.33984375 7.38012695 C-37.34147322 -4.43344742 -73.69534591 -7.76964068 -97.02734375 16.69262695 Z M23.28515625 68.25512695 C17.77014853 71.41610973 12.3981662 73.80983251 6.28515625 75.56762695 C5.63393799 75.75784424 4.98271973 75.94806152 4.31176758 76.14404297 C-6.4912266 79.10075026 -17.16292802 80.07997714 -28.33984375 80.06762695 C-29.64058838 80.06819092 -30.94133301 80.06875488 -32.28149414 80.06933594 C-43.39237893 79.94486138 -53.93285784 78.46836685 -64.77685547 76.15014648 C-67.84741741 75.5259077 -70.92048915 75.09419319 -74.02734375 74.69262695 C-73.86492187 75.95848633 -73.7025 77.2243457 -73.53515625 78.52856445 C-73.14421457 82.00889891 -72.96614005 85.41750806 -72.95703125 88.91918945 C-72.9415625 90.24950195 -72.9415625 90.24950195 -72.92578125 91.60668945 C-72.91008915 93.4217426 -72.91810696 95.23714763 -72.94921875 97.05200195 C-72.84346677 102.23384899 -72.29581834 105.00152188 -68.53515625 108.71606445 C-67.90496582 109.24893066 -67.27477539 109.78179687 -66.62548828 110.33081055 C-65.02734375 111.69262695 -65.02734375 111.69262695 -64.02734375 113.69262695 C-63.98735175 115.69222707 -63.98387576 117.69309938 -64.02734375 119.69262695 C-66.2734375 120.4777832 -66.2734375 120.4777832 -69.02734375 120.69262695 C-71.0625 118.8137207 -71.0625 118.8137207 -73.08984375 116.13012695 C-78.7626019 109.47446517 -84.74301624 105.44921971 -93.51953125 104.19262695 C-105.20677301 103.78344562 -113.96045573 106.98324576 -122.8046875 114.55200195 C-132.49387674 123.8835937 -138.02204513 136.28909867 -138.40234375 149.75512695 C-138.07659641 160.27405158 -134.44365443 170.17255553 -126.98828125 177.77075195 C-120.43424604 183.28262608 -112.73378418 186.3908289 -104.08203125 185.97387695 C-92.24870262 184.35410573 -82.76368651 178.55837281 -75.0703125 169.54418945 C-70.19456795 162.7386569 -66.92076172 154.83432423 -65.02734375 146.69262695 C-61.56234375 146.19762695 -61.56234375 146.19762695 -58.02734375 145.69262695 C-56.9926273 157.07450791 -62.8051873 167.95811331 -69.60546875 176.7277832 C-72.25706205 179.88157221 -75.10161805 182.79201478 -78.02734375 185.69262695 C-66.3142923 198.26740154 -52.86535545 204.97696722 -35.59765625 205.80981445 C-13.55515951 206.38483611 5.58682869 199.34811113 21.97265625 184.69262695 C38.74451317 168.42308855 48.79582497 144.88254379 49.21411133 121.49047852 C49.28757634 102.27203271 45.00788437 82.78875387 33.97265625 66.69262695 C30.04989014 63.23888722 27.11887739 65.89923135 23.28515625 68.25512695 Z " fill="#000000" transform="translate(294.02734375,100.307373046875)"/>
<path d="M0 0 C3.72620486 3.35830109 6.0495049 7.05742546 7 12 C7.29035334 18.63345709 5.91763163 23.0740012 1.86328125 28.30859375 C-2.76777776 32.51246912 -7.9982782 33.56549098 -14.03295898 34.22314453 C-14.85581202 34.32215435 -15.67866505 34.42116417 -16.52645302 34.52317429 C-19.36932632 34.86226733 -22.2138475 35.18483324 -25.05859375 35.5078125 C-27.17894034 35.75694911 -29.29916972 36.00708481 -31.41929626 36.25808716 C-36.3690011 36.84168508 -41.31955404 37.41759287 -46.27069092 37.9888916 C-55.20025387 39.01985161 -64.12721462 40.07262534 -73.05421758 41.12548399 C-91.82729581 43.33899079 -110.60299188 45.52947259 -129.38035011 47.70635605 C-140.88288121 49.04001469 -152.384661 50.37980962 -163.88552767 51.72774875 C-172.09742262 52.68968847 -180.31011865 53.6445838 -188.52343267 54.59432995 C-193.38295214 55.15644572 -198.24208353 55.72150051 -203.10035896 56.29427719 C-207.63986431 56.82933081 -212.1803099 57.35556239 -216.72159004 57.87532997 C-218.3713791 58.06564595 -220.02082079 58.25900563 -221.66984177 58.45586586 C-250.91494167 61.94074651 -250.91494167 61.94074651 -259 57 C-263.5487534 52.24448508 -265.73287129 48.71580855 -266.375 42.1875 C-266.21319971 36.8278653 -264.18734172 32.42696624 -260.609375 28.45703125 C-254.76362203 23.21123714 -247.91807679 22.56955345 -240.44876099 21.73446655 C-239.49372771 21.62250179 -238.53869444 21.51053703 -237.55472076 21.39517939 C-234.35893794 21.02212486 -231.16217388 20.65829247 -227.96533203 20.29443359 C-225.67197501 20.02867303 -223.37868222 19.76235773 -221.08544922 19.49552917 C-214.85887173 18.77275773 -208.63138743 18.05809919 -202.40368128 17.34512663 C-195.88598949 16.5978268 -189.36906022 15.84393204 -182.85202026 15.0909729 C-171.90563218 13.82707101 -160.95860631 12.56879162 -150.01123047 11.31347656 C-138.75670169 10.02293925 -127.50279435 8.72714035 -116.24951172 7.42578125 C-102.67884046 5.85644133 -89.10764977 4.29168818 -75.53597641 2.73103714 C-70.35656041 2.13536897 -65.1773497 1.53795906 -59.99829483 0.93915939 C-53.89701913 0.23399614 -47.79523794 -0.46662101 -41.69303894 -1.16374779 C-39.45475783 -1.42017763 -37.21665263 -1.67814841 -34.97874069 -1.93778038 C-31.92136183 -2.29221792 -28.86339105 -2.64102861 -25.8052063 -2.98843384 C-24.92211985 -3.0921252 -24.0390334 -3.19581657 -23.12918675 -3.30265009 C-7.31716369 -5.07657609 -7.31716369 -5.07657609 0 0 Z M-43.11083984 8.33911133 C-45.32790455 8.59099615 -47.54503918 8.84226619 -49.76223755 9.0929718 C-55.75016632 9.7720907 -61.7369849 10.46055393 -67.72357512 11.1513617 C-72.72868461 11.72811825 -77.73429678 12.30044488 -82.73990595 12.87284583 C-95.21883668 14.29999031 -107.69669179 15.73633646 -120.1740851 17.17684307 C-130.9988457 18.42625354 -141.82493774 19.66367384 -152.65171425 20.89548222 C-163.79164496 22.16302829 -174.93060552 23.43881572 -186.06864703 24.72287768 C-192.31287822 25.44265945 -198.55743466 26.15923814 -204.80295944 26.86771584 C-210.66956071 27.53357007 -216.53486423 28.20987372 -222.39933395 28.89423943 C-224.55034611 29.14348499 -226.70178948 29.38904114 -228.85367584 29.63062286 C-231.79233468 29.96112628 -234.7291382 30.30496528 -237.66586304 30.6521759 C-238.51595991 30.74460203 -239.36605677 30.83702817 -240.24191415 30.93225509 C-245.32967254 31.5515182 -249.44612792 32.59961664 -254 35 C-256.4915904 38.7373856 -256.45793285 40.57331583 -256 45 C-254.20437595 47.75329021 -252.94745078 49.52627461 -250 51 C-243.78833584 51.44819073 -237.59868956 50.75583973 -231.43640137 50.02639771 C-230.05619285 49.86925586 -230.05619285 49.86925586 -228.64810133 49.70893943 C-225.58708675 49.35916035 -222.52696701 49.00210535 -219.46679688 48.64501953 C-217.2634004 48.39168401 -215.05995358 48.13878602 -212.85646057 47.8862915 C-206.88701228 47.20088016 -200.91832911 46.50900974 -194.94979286 45.81570673 C-188.69634062 45.09014996 -182.44230265 44.36967422 -176.18835449 43.64840698 C-165.01461988 42.35884258 -153.84148344 41.06416814 -142.66857976 39.76743041 C-132.55124017 38.59334295 -122.43331659 37.42440511 -112.31494141 36.25927734 C-99.29090039 34.75955929 -86.26742829 33.25497709 -73.24440002 31.74648666 C-68.2783287 31.17136849 -63.31204068 30.59817653 -58.3455658 30.02655411 C-52.49442379 29.35288829 -46.64384123 28.6745544 -40.79365349 27.99265289 C-38.64969067 27.7435119 -36.50554111 27.49597177 -34.3611927 27.25017166 C-31.42813167 26.91369405 -28.49581078 26.57135524 -25.56359863 26.22756958 C-24.72048992 26.13223061 -23.8773812 26.03689163 -23.00872374 25.9386636 C-13.01301863 25.12762967 -13.01301863 25.12762967 -4.4375 20.75 C-2.67970791 17.38726731 -2.31252868 15.74289942 -3 12 C-4.83833877 8.28465836 -4.83833877 8.28465836 -8 6 C-19.34243232 4.39309575 -31.83316516 7.03027639 -43.11083984 8.33911133 Z " fill="#000000" transform="translate(393,334)"/>
<path d="M0 0 C13.79463296 10.77036157 23.53289807 26.4178862 26.27539062 43.76855469 C27.73651874 61.77248833 25.68804599 77.62854454 17.27539062 93.76855469 C16.79585937 94.72117187 16.31632813 95.67378906 15.82226562 96.65527344 C4.97575558 116.79503117 -14.48414437 131.59038469 -36.02148438 138.73730469 C-58.22807946 144.92141978 -81.34708581 144.51214738 -101.84570312 133.01855469 C-119.65028138 121.76878295 -129.09263381 106.43538457 -134.33398438 86.44433594 C-137.58280568 64.18990998 -132.00931804 41.89858796 -118.72460938 23.76855469 C-115.86060847 20.29563107 -112.83522598 17.02056295 -109.72460938 13.76855469 C-109.11101562 13.08019531 -108.49742187 12.39183594 -107.86523438 11.68261719 C-81.32612884 -17.01137298 -31.80914234 -22.71309654 0 0 Z M-106.72460938 23.76855469 C-120.06879069 40.1151768 -127.65742507 59.44169059 -125.72460938 80.76855469 C-122.93027598 97.05219988 -115.62772954 110.90438047 -102.47460938 120.95605469 C-97.15120734 124.65992241 -91.80089889 127.50920197 -85.72460938 129.76855469 C-84.87125 130.08824219 -84.01789063 130.40792969 -83.13867188 130.73730469 C-64.12492409 136.62121518 -43.73164956 132.86993864 -26.43554688 123.96923828 C-5.78289894 112.8552272 8.24394261 95.98616436 15.24023438 73.69433594 C19.50913252 57.70072216 18.0690496 41.79333934 10.58789062 26.95605469 C1.80917331 12.11164073 -11.72893034 1.91641291 -28.28710938 -2.54394531 C-57.0947408 -9.61674382 -87.14384141 2.20133201 -106.72460938 23.76855469 Z " fill="#000000" transform="translate(440.724609375,420.2314453125)"/>
<path d="M0 0 C2.375 0.9375 2.375 0.9375 3.875 2.6875 C4.375 4.9375 4.375 4.9375 3.5625 7.25 C-3.68537654 16.15453404 -14.29998674 21.48481505 -25.625 22.9375 C-37.29295506 23.79811513 -48.47421509 21.87475155 -58.625 15.9375 C-59.285 15.2775 -59.945 14.6175 -60.625 13.9375 C-60.29528521 10.64035207 -60.0023161 9.3148161 -57.625 6.9375 C-52.73241204 7.1821294 -48.53148738 9.09142643 -44.08984375 11 C-34.02557796 14.82792994 -24.36130981 12.95741579 -14.625 8.9375 C-11.71129421 7.17175741 -9.18940327 5.16870934 -6.625 2.9375 C-2.96920697 -0.0706954 -2.96920697 -0.0706954 0 0 Z " fill="#000000" transform="translate(319.625,248.0625)"/>
<path d="M0 0 C7.58541172 0 13.0962891 2.21933358 19 7 C22.26738605 10.82815025 24.60872541 14.91343039 25 20 C25.12375 21.5159375 25.12375 21.5159375 25.25 23.0625 C24.76434548 30.71155877 23.4199283 39.26125238 18 45 C15.375 45.5 15.375 45.5 13 45 C12.34 44.34 11.68 43.68 11 43 C11.26353186 39.04702212 11.69115008 35.83571156 13.0625 32.125 C14.67480635 26.75064549 14.89497672 21.33688365 12.875 16.0625 C10.4877059 13.43647649 8.26488999 12.38129961 5 11 C4.35804688 10.72027344 3.71609375 10.44054687 3.0546875 10.15234375 C1.37554099 9.42154112 -0.31158782 8.70913312 -2 8 C-2.125 5.125 -2.125 5.125 -2 2 C-1.34 1.34 -0.68 0.68 0 0 Z " fill="#000000" transform="translate(187,219)"/>
</svg>
