<?xml version="1.0" encoding="UTF-8"?>
<svg version="1.1" xmlns="http://www.w3.org/2000/svg" width="512" height="512">
<path d="M0 0 C2.01581573 -0.37604749 2.01581573 -0.37604749 4.55090332 -0.37752342 C5.5150692 -0.38534666 6.47923508 -0.39316991 7.4726181 -0.40123022 C8.53932991 -0.39453805 9.60604172 -0.38784589 10.70507812 -0.38095093 C11.83243629 -0.3856309 12.95979446 -0.39031087 14.121315 -0.39513266 C17.92474394 -0.40716394 21.72781795 -0.39759357 25.53125 -0.38818359 C28.24748484 -0.39059436 30.96370428 -0.39747637 33.67993164 -0.40411377 C40.3071729 -0.41748137 46.93431246 -0.41455996 53.56155777 -0.40587585 C58.94575081 -0.39911157 64.32991526 -0.39817712 69.71411133 -0.4014473 C70.4792626 -0.401907 71.24441388 -0.40236669 72.03275156 -0.40284032 C73.58694904 -0.40379946 75.14114651 -0.4047721 76.69534397 -0.4057581 C91.28263853 -0.41432086 105.86987661 -0.404464 120.4571619 -0.388357 C132.9844904 -0.374953 145.51173551 -0.37728085 158.0390625 -0.39111328 C172.572745 -0.40715349 187.10637794 -0.4134968 201.64006805 -0.40427649 C203.18867492 -0.4033208 204.73728179 -0.40237769 206.28588867 -0.4014473 C207.42892322 -0.40075306 207.42892322 -0.40075306 208.59504938 -0.40004479 C213.97524355 -0.39745021 219.35540639 -0.40183595 224.7355957 -0.40888596 C231.28873257 -0.41728387 237.84176157 -0.41505701 244.39488602 -0.39904372 C247.74099048 -0.39113771 251.08676511 -0.38971261 254.43289185 -0.39799118 C258.05375113 -0.40612665 261.67409584 -0.39598197 265.29492188 -0.38095093 C266.89498959 -0.39098918 266.89498959 -0.39098918 268.5273819 -0.40123022 C269.97363071 -0.38949535 269.97363071 -0.38949535 271.44909668 -0.37752342 C272.28567558 -0.37703637 273.12225449 -0.37654931 273.98418427 -0.37604749 C274.98201305 -0.18990398 274.98201305 -0.18990398 276 0 C278.3342721 3.50140816 278.25045708 4.87532238 278.25168228 9.01425171 C278.25689778 10.27936396 278.26211327 11.5444762 278.26748681 12.84792519 C278.26316228 14.25978272 278.25864895 15.67163969 278.25396729 17.08349609 C278.25627029 18.57712646 278.25944573 20.0707557 278.26342177 21.56438255 C278.27180051 25.679213 278.2676306 29.79395114 278.26144934 33.90878201 C278.25693839 38.34237239 278.26390184 42.7759465 278.26940918 47.20953369 C278.27831938 55.89905746 278.27637394 64.58854674 278.2705839 73.27807188 C278.2660738 80.33795169 278.26545167 87.3978218 278.26763153 94.45770264 C278.267938 95.46111077 278.26824446 96.4645189 278.26856022 97.49833333 C278.26919964 99.53650554 278.26984807 101.57467775 278.2705054 103.61284995 C278.27621346 122.74113993 278.26964334 141.86941076 278.25890467 160.99769759 C278.24996872 177.42360486 278.25152063 193.84948387 278.26074219 210.27539062 C278.27143642 229.33353707 278.27566409 248.39166672 278.26951766 267.44981575 C278.26888054 269.48064295 278.2682518 271.51147016 278.26763153 273.54229736 C278.26732298 274.54159818 278.26701443 275.540899 278.26669653 276.57048166 C278.26496704 283.62485237 278.26789014 290.67921247 278.27259064 297.73358154 C278.27819008 306.32623458 278.27670282 314.91885106 278.26602915 323.51149988 C278.26075977 327.89864013 278.25873713 332.28571935 278.26532745 336.67285919 C278.27126295 340.68465621 278.26805176 344.6963353 278.25737235 348.70812154 C278.25512808 350.16365989 278.25629743 351.61920809 278.26112393 353.07474017 C278.26715905 355.04506948 278.25980504 357.01542648 278.25168228 358.98574829 C278.25135758 360.08265299 278.25103287 361.17955769 278.25069833 362.30970192 C278 365 278 365 276 368 C273.98418427 368.37604749 273.98418427 368.37604749 271.44909668 368.37752342 C270.4849308 368.38534666 269.52076492 368.39316991 268.5273819 368.40123022 C267.46067009 368.39453805 266.39395828 368.38784589 265.29492188 368.38095093 C264.16756371 368.3856309 263.04020554 368.39031087 261.878685 368.39513266 C258.07525606 368.40716394 254.27218205 368.39759357 250.46875 368.38818359 C247.75251516 368.39059436 245.03629572 368.39747637 242.32006836 368.40411377 C235.6928271 368.41748137 229.06568754 368.41455996 222.43844223 368.40587585 C217.05424919 368.39911157 211.67008474 368.39817712 206.28588867 368.4014473 C205.5207374 368.401907 204.75558612 368.40236669 203.96724844 368.40284032 C202.41305096 368.40379946 200.85885349 368.4047721 199.30465603 368.4057581 C184.71736147 368.41432086 170.13012339 368.404464 155.5428381 368.388357 C143.0155096 368.374953 130.48826449 368.37728085 117.9609375 368.39111328 C103.427255 368.40715349 88.89362206 368.4134968 74.35993195 368.40427649 C72.81132508 368.4033208 71.26271821 368.40237769 69.71411133 368.4014473 C68.57107678 368.40075306 68.57107678 368.40075306 67.40495062 368.40004479 C62.02475645 368.39745021 56.64459361 368.40183595 51.2644043 368.40888596 C44.71126743 368.41728387 38.15823843 368.41505701 31.60511398 368.39904372 C28.25900952 368.39113771 24.91323489 368.38971261 21.56710815 368.39799118 C17.94624887 368.40612665 14.32590416 368.39598197 10.70507812 368.38095093 C9.63836632 368.38764309 8.57165451 368.39433526 7.4726181 368.40123022 C6.50845222 368.39340697 5.54428635 368.38558373 4.55090332 368.37752342 C3.71432442 368.37703637 2.87774551 368.37654931 2.01581573 368.37604749 C1.35059654 368.25195182 0.68537735 368.12785615 0 368 C-2.3342721 364.49859184 -2.25045708 363.12467762 -2.25168228 358.98574829 C-2.25689778 357.72063604 -2.26211327 356.4555238 -2.26748681 355.15207481 C-2.26316228 353.74021728 -2.25864895 352.32836031 -2.25396729 350.91650391 C-2.25627029 349.42287354 -2.25944573 347.9292443 -2.26342177 346.43561745 C-2.27180051 342.320787 -2.2676306 338.20604886 -2.26144934 334.09121799 C-2.25693839 329.65762761 -2.26390184 325.2240535 -2.26940918 320.79046631 C-2.27831938 312.10094254 -2.27637394 303.41145326 -2.2705839 294.72192812 C-2.2660738 287.66204831 -2.26545167 280.6021782 -2.26763153 273.54229736 C-2.267938 272.53888923 -2.26824446 271.5354811 -2.26856022 270.50166667 C-2.26919964 268.46349446 -2.26984807 266.42532225 -2.2705054 264.38715005 C-2.27621346 245.25886007 -2.26964334 226.13058924 -2.25890467 207.00230241 C-2.24996872 190.57639514 -2.25152063 174.15051613 -2.26074219 157.72460938 C-2.27143642 138.66646293 -2.27566409 119.60833328 -2.26951766 100.55018425 C-2.26888054 98.51935705 -2.2682518 96.48852984 -2.26763153 94.45770264 C-2.26732298 93.45840182 -2.26701443 92.459101 -2.26669653 91.42951834 C-2.26496704 84.37514763 -2.26789014 77.32078753 -2.27259064 70.26641846 C-2.27819008 61.67376542 -2.27670282 53.08114894 -2.26602915 44.48850012 C-2.26075977 40.10135987 -2.25873713 35.71428065 -2.26532745 31.32714081 C-2.27126295 27.31534379 -2.26805176 23.3036647 -2.25737235 19.29187846 C-2.25512808 17.83634011 -2.25629743 16.38079191 -2.26112393 14.92525983 C-2.26715905 12.95493052 -2.25980504 10.98457352 -2.25168228 9.01425171 C-2.25135758 7.91734701 -2.25103287 6.82044231 -2.25069833 5.69029808 C-2 3 -2 3 0 0 Z M6 8 C6 124.16 6 240.32 6 360 C93.12 360 180.24 360 270 360 C270 243.84 270 127.68 270 8 C182.88 8 95.76 8 6 8 Z " fill="#323232" transform="translate(118,72)"/>
<path d="M0 0 C7.30585762 6.66936245 12.4376829 15.88960039 13.11328125 25.82421875 C13.45327875 38.23412749 11.142243 48.60170907 2.875 58.3203125 C-6.90598489 67.63993018 -17.20379261 70.72258875 -30.48828125 70.59765625 C-40.77271546 69.81334387 -50.39711583 64.61637045 -57.375 57.0703125 C-64.57893822 47.88529126 -67.44894403 37.81600599 -67.00390625 26.14453125 C-66.05514348 18.60333437 -63.19244332 12.67702366 -59.125 6.3203125 C-58.25875 4.9590625 -58.25875 4.9590625 -57.375 3.5703125 C-41.3067702 -12.4979173 -17.89429539 -14.1443879 0 0 Z M-52.84765625 9.390625 C-58.53199737 17.40736161 -61.23950604 25.47048881 -60.125 35.3203125 C-58.84360044 41.69016827 -57.28831368 45.1161704 -53.125 50.3203125 C-48.505 49.0003125 -43.885 47.6803125 -39.125 46.3203125 C-39.125 42.19270722 -39.36488604 41.50778658 -41.5625 38.3203125 C-46.12198375 31.66944162 -45.81281842 24.45287588 -44.5 16.6953125 C-43.28833751 11.85713572 -40.98619944 8.46812636 -37.125 5.3203125 C-31.53892807 2.74212546 -26.03145187 2.97527891 -20.125 4.3203125 C-14.93727067 6.96133834 -12.33411711 9.75773529 -10.46875 15.25390625 C-8.62149232 22.07174544 -8.03581025 29.52967736 -11.53515625 35.87890625 C-12.59292242 37.40178946 -13.69432019 38.89580968 -14.84765625 40.34765625 C-16.48735128 42.48822331 -16.48735128 42.48822331 -16.125 46.3203125 C-10.845 47.6403125 -5.565 48.9603125 -0.125 50.3203125 C4.87723663 42.94859536 7.77608676 36.48136128 6.875 27.3203125 C4.53814517 16.96379679 1.29867929 9.21686329 -7.5 3.0078125 C-22.64317941 -6.22399289 -41.04845115 -4.78982558 -52.84765625 9.390625 Z M-36.125 12.3203125 C-39.66223871 17.62617056 -39.52095145 24.10450318 -39.125 30.3203125 C-37.85453878 33.19924756 -36.33887635 35.48395018 -34.51171875 38.03515625 C-32.58596272 41.2085852 -32.48378458 43.76869673 -32.5234375 47.41015625 C-33.38970308 50.16083072 -34.65558782 50.88190069 -37.125 52.3203125 C-39.921875 53.26953125 -39.921875 53.26953125 -42.875 54.0078125 C-43.85984375 54.25917969 -44.8446875 54.51054687 -45.859375 54.76953125 C-46.60703125 54.95128906 -47.3546875 55.13304687 -48.125 55.3203125 C-42.79775588 61.13517622 -35.36949427 63.85002619 -27.54296875 64.41796875 C-19.01403536 64.07350456 -11.99489711 61.20850852 -5.125 56.3203125 C-9.03357591 53.71459523 -12.85491253 53.16548257 -17.41015625 52.19921875 C-20.125 51.3203125 -20.125 51.3203125 -22.125 48.3203125 C-22.7369915 42.09839891 -22.05289266 39.3704602 -18.125 34.3203125 C-14.47227004 29.24659213 -14.86394646 25.47281559 -15.47265625 19.43359375 C-16.3923358 15.0444644 -17.78749465 13.25080501 -21.125 10.3203125 C-26.26287488 7.75137506 -31.80005522 8.88579753 -36.125 12.3203125 Z " fill="#323232" transform="translate(225.125,164.6796875)"/>
<path d="M0 0 C72.6 0 145.2 0 220 0 C220 2.64 220 5.28 220 8 C147.4 8 74.8 8 0 8 C0 5.36 0 2.72 0 0 Z " fill="#323232" transform="translate(146,272)"/>
<path d="M0 0 C58.74 0 117.48 0 178 0 C178 2.64 178 5.28 178 8 C119.26 8 60.52 8 0 8 C0 5.36 0 2.72 0 0 Z " fill="#323232" transform="translate(178,303)"/>
<path d="M0 0 C2.475 0.495 2.475 0.495 5 1 C5.495 2.485 5.495 2.485 6 4 C5.30318115 5.03314331 5.30318115 5.03314331 4.59228516 6.0871582 C2.32169151 10.24086148 2.54054546 13.94243631 2.5234375 18.60546875 C2.50785797 19.52588455 2.49227844 20.44630035 2.47622681 21.39460754 C2.42881266 24.32556351 2.4009719 27.2562823 2.375 30.1875 C2.33851302 33.12926295 2.29792514 36.07089136 2.25234985 39.01252747 C2.22511674 40.84096905 2.20376826 42.66950943 2.18881226 44.49809265 C2.17341904 45.73496574 2.17341904 45.73496574 2.15771484 46.99682617 C2.15121918 47.72342941 2.14472351 48.45003265 2.13803101 49.19865417 C2 51 2 51 1 53 C-5.6752034 53.02526945 -12.35039457 53.04283268 -19.02563477 53.05493164 C-21.29842591 53.05997325 -23.5712138 53.06680637 -25.84399414 53.07543945 C-29.10303551 53.08751261 -32.36203417 53.09322987 -35.62109375 53.09765625 C-36.64400009 53.10281754 -37.66690643 53.10797882 -38.72080994 53.11329651 C-39.66170975 53.11337204 -40.60260956 53.11344757 -41.57202148 53.11352539 C-42.40475082 53.115746 -43.23748016 53.11796661 -44.09544373 53.12025452 C-46 53 -46 53 -47 52 C-47.09813987 50.56259647 -47.1279828 49.12043673 -47.12939453 47.6796875 C-47.13254669 46.76203613 -47.13569885 45.84438477 -47.13894653 44.89892578 C-47.1369223 43.90103027 -47.13489807 42.90313477 -47.1328125 41.875 C-47.13376923 40.85776855 -47.13472595 39.84053711 -47.13571167 38.79248047 C-47.13639361 36.63704364 -47.13453835 34.48160478 -47.13037109 32.32617188 C-47.12502305 29.01427629 -47.13031563 25.70251633 -47.13671875 22.390625 C-47.13605797 20.30208303 -47.13477681 18.21354115 -47.1328125 16.125 C-47.13483673 15.12710449 -47.13686096 14.12920898 -47.13894653 13.10107422 C-47.13579437 12.18342285 -47.13264221 11.26577148 -47.12939453 10.3203125 C-47.12859894 9.50836426 -47.12780334 8.69641602 -47.12698364 7.85986328 C-47 6 -47 6 -46 5 C-44.66526445 4.89884449 -43.32536529 4.86434258 -41.98681641 4.8581543 C-41.13568268 4.85111984 -40.28454895 4.84408539 -39.40762329 4.83683777 C-38.48162323 4.83267349 -37.55562317 4.82850922 -36.6015625 4.82421875 C-34.65884331 4.80102195 -32.71613494 4.77690467 -30.7734375 4.75195312 C-27.69654096 4.71679843 -24.62004189 4.6874784 -21.54296875 4.67407227 C-18.58283851 4.65863513 -15.62388387 4.61845175 -12.6640625 4.57421875 C-11.7421109 4.57612717 -10.8201593 4.57803558 -9.87026978 4.58000183 C-4.86834071 4.64032368 -4.86834071 4.64032368 -0.89599609 1.96411133 C-0.45247803 0.99187622 -0.45247803 0.99187622 0 0 Z M-41 11 C-41 22.88 -41 34.76 -41 47 C-29.12 47 -17.24 47 -5 47 C-5 37.76 -5 28.52 -5 19 C-9.37260303 23.37260303 -12.9405217 27.74688771 -16.62109375 32.671875 C-19.48173357 35.47145026 -21.01840408 36.03701351 -25 36 C-26.9765625 34.70703125 -26.9765625 34.70703125 -28.625 32.8125 C-29.20636719 32.16410156 -29.78773438 31.51570313 -30.38671875 30.84765625 C-31.18529297 29.93306641 -31.18529297 29.93306641 -32 29 C-32.804375 28.2575 -33.60875 27.515 -34.4375 26.75 C-36 25 -36 25 -36 22 C-33.9375 21.5625 -33.9375 21.5625 -31 22 C-28.42739828 24.12080183 -26.20745501 26.50627561 -24 29 C-20.82851882 27.94283961 -20.29624618 27.45707049 -18.3359375 24.9453125 C-17.61277344 24.02298828 -17.61277344 24.02298828 -16.875 23.08203125 C-16.38 22.43621094 -15.885 21.79039062 -15.375 21.125 C-14.87226563 20.48691406 -14.36953125 19.84882813 -13.8515625 19.19140625 C-11.69654305 16.41652906 -10.12348108 14.37044325 -9 11 C-19.56 11 -30.12 11 -41 11 Z " fill="#323232" transform="translate(365,366)"/>
<path d="M0 0 C62.37 0 124.74 0 189 0 C189 2.31 189 4.62 189 7 C126.63 7 64.26 7 0 7 C0 4.69 0 2.38 0 0 Z " fill="#333333" transform="translate(177,252)"/>
<path d="M0 0 C58.74 0 117.48 0 178 0 C178 2.31 178 4.62 178 7 C119.26 7 60.52 7 0 7 C0 4.69 0 2.38 0 0 Z " fill="#323232" transform="translate(178,326)"/>
<path d="M0 0 C45.87 0 91.74 0 139 0 C139 2.31 139 4.62 139 7 C93.13 7 47.26 7 0 7 C0 4.69 0 2.38 0 0 Z " fill="#333333" transform="translate(178,346)"/>
<path d="M0 0 C37.95 0 75.9 0 115 0 C115 2.64 115 5.28 115 8 C77.05 8 39.1 8 0 8 C0 5.36 0 2.72 0 0 Z " fill="#323232" transform="translate(251,215)"/>
<path d="M0 0 C37.95 0 75.9 0 115 0 C115 2.64 115 5.28 115 8 C77.05 8 39.1 8 0 8 C0 5.36 0 2.72 0 0 Z " fill="#333333" transform="translate(251,192)"/>
<path d="M0 0 C37.95 0 75.9 0 115 0 C115 2.31 115 4.62 115 7 C77.05 7 39.1 7 0 7 C0 4.69 0 2.38 0 0 Z " fill="#333333" transform="translate(251,169)"/>
<path d="M0 0 C1.31355469 -0.03738281 2.62710938 -0.07476562 3.98046875 -0.11328125 C8.34916673 0.37212964 10.44016158 1.55424445 13.8125 4.3125 C15.53867094 7.76484188 15.31360436 11.53794766 14.8125 15.3125 C12.8125 18.375 12.8125 18.375 10.8125 20.3125 C11.27269531 21.00730469 11.73289063 21.70210937 12.20703125 22.41796875 C13.91322547 25.49409993 14.71100869 28.20603768 15.5 31.625 C15.75136719 32.69363281 16.00273437 33.76226562 16.26171875 34.86328125 C16.44347656 35.67152344 16.62523437 36.47976562 16.8125 37.3125 C14.5025 37.3125 12.1925 37.3125 9.8125 37.3125 C9.53986328 36.42498047 9.53986328 36.42498047 9.26171875 35.51953125 C7.32788533 29.01056432 7.32788533 29.01056432 3.8125 23.3125 C1.8325 22.9825 -0.1475 22.6525 -2.1875 22.3125 C-2.1875 27.2625 -2.1875 32.2125 -2.1875 37.3125 C-4.1675 37.3125 -6.1475 37.3125 -8.1875 37.3125 C-8.2121501 32.20386104 -8.23033607 27.09525641 -8.24243164 21.98657227 C-8.24747204 20.24730832 -8.2543043 18.50804864 -8.26293945 16.76879883 C-8.27501792 14.27424063 -8.28073108 11.77973827 -8.28515625 9.28515625 C-8.29031754 8.50286148 -8.29547882 7.72056671 -8.30079651 6.91456604 C-8.30099226 5.04682886 -8.24949694 3.17920796 -8.1875 1.3125 C-6.22629033 -0.64870967 -2.66605532 0.037906 0 0 Z M-2.1875 6.3125 C-2.1875 9.9425 -2.1875 13.5725 -2.1875 17.3125 C3.32447092 17.12219739 3.32447092 17.12219739 7.9375 14.5625 C9.02958222 12.29892283 9.02958222 12.29892283 8.4375 9.6875 C6.90499998 6.97062607 6.90499998 6.97062607 3.3125 5.9375 C-0.02437188 4.98198539 -0.02437188 4.98198539 -2.1875 6.3125 Z " fill="#323232" transform="translate(159.1875,99.6875)"/>
<path d="M0 0 C3.64435422 3.24822876 5.18029674 5.48431236 5.875 10.3125 C5.91625 11.529375 5.9575 12.74625 6 14 C5 15 5 15 1.18359375 15.09765625 C-0.39846682 15.09098089 -1.98051159 15.07901875 -3.5625 15.0625 C-4.36880859 15.05798828 -5.17511719 15.05347656 -6.00585938 15.04882812 C-8.00393756 15.03700518 -10.00197783 15.01906914 -12 15 C-10.24545615 18.18234105 -10.24545615 18.18234105 -8 21 C-6.14712498 21.07226502 -4.29166122 21.0838122 -2.4375 21.0625 C-1.42558594 21.05347656 -0.41367187 21.04445312 0.62890625 21.03515625 C1.41136719 21.02355469 2.19382812 21.01195312 3 21 C3.33 22.65 3.66 24.3 4 26 C-1.40219027 28.41676933 -6.33557023 28.46575395 -12 27 C-15.72499167 24.20625625 -17.81912191 21.50880725 -19 17 C-19.47696886 11.75334256 -18.86233294 8.44155111 -16 4 C-10.80210013 -0.9313409 -6.98791328 -1.83892455 0 0 Z M-9 5 C-10.8624438 7.40858714 -10.8624438 7.40858714 -12 10 C-8.37 10 -4.74 10 -1 10 C-2.57836298 6.31622777 -2.57836298 6.31622777 -4 5 C-6.41482413 4.49940084 -6.41482413 4.49940084 -9 5 Z " fill="#323232" transform="translate(357,110)"/>
<path d="M0 0 C3.44546023 3.14585499 4.81252226 5.19652397 5.875 9.75 C6 13 6 13 5 15 C-0.61 15 -6.22 15 -12 15 C-11.67 16.65 -11.34 18.3 -11 20 C-7.85069107 21.04976964 -5.61185544 21.10131595 -2.3125 21.0625 C-1.31863281 21.05347656 -0.32476562 21.04445312 0.69921875 21.03515625 C1.45847656 21.02355469 2.21773438 21.01195312 3 21 C3.33 22.65 3.66 24.3 4 26 C-1.44699762 28.43681472 -6.2819545 28.31734604 -12 27 C-15.10305772 25.189883 -16.51908913 23.82441864 -18.3125 20.75 C-19.58992311 15.64030755 -19.61939175 11.61041854 -17.75 6.75 C-15.49785113 3.21090891 -13.73513708 0.60964276 -9.6875 -0.8125 C-6.14931749 -1.05934994 -3.44694286 -0.92328827 0 0 Z M-9 5 C-10.8624438 7.40858714 -10.8624438 7.40858714 -12 10 C-8.37 10 -4.74 10 -1 10 C-2.57836298 6.31622777 -2.57836298 6.31622777 -4 5 C-6.41482413 4.49940084 -6.41482413 4.49940084 -9 5 Z " fill="#323232" transform="translate(279,110)"/>
<path d="M0 0 C2.58297781 2.18991597 4.48415844 3.96831688 6 7 C6 9.64 6 12.28 6 15 C0.39 15 -5.22 15 -11 15 C-9.66436384 19.94463635 -9.66436384 19.94463635 -7 21 C-5.12620395 21.07033769 -3.24998898 21.0843022 -1.375 21.0625 C-0.37210938 21.05347656 0.63078125 21.04445312 1.6640625 21.03515625 C2.82035156 21.01775391 2.82035156 21.01775391 4 21 C4.33 22.65 4.66 24.3 5 26 C-0.44129759 28.43426471 -5.2874655 28.32561318 -11 27 C-14.62189827 24.8117698 -16.3971072 22.86088092 -18 19 C-18.69512525 14.17453754 -18.63001958 9.48517899 -16.4375 5.0625 C-11.93936648 -0.58900109 -6.89760469 -2.04373472 0 0 Z M-11 8 C-11 8.66 -11 9.32 -11 10 C-7.37 10 -3.74 10 0 10 C-1.1375562 7.40858714 -1.1375562 7.40858714 -3 5 C-6.79476397 4.24104721 -8.71438754 4.87231979 -11 8 Z " fill="#323232" transform="translate(195,110)"/>
<path d="M0 0 C3.11905047 2.57660691 4.7181368 4.1544104 6 8 C6 10.31 6 12.62 6 15 C0.06 15 -5.88 15 -12 15 C-9.67748574 19.88495525 -9.67748574 19.88495525 -7 21 C-5.12620395 21.07033769 -3.24998898 21.0843022 -1.375 21.0625 C-0.37210938 21.05347656 0.63078125 21.04445312 1.6640625 21.03515625 C2.82035156 21.01775391 2.82035156 21.01775391 4 21 C4 22.65 4 24.3 4 26 C-0.14327024 28.0088583 -3.41538356 28.40215934 -8 28 C-12.63696928 26.27250164 -15.66107692 24.40797042 -18 20 C-18.76966057 14.40818032 -18.71807512 9.63721127 -16.4375 4.4375 C-11.52709594 -0.47290406 -6.69300024 -1.98311118 0 0 Z M-9.8125 6.375 C-11.1966722 7.93368783 -11.1966722 7.93368783 -11 10 C-7.7 10 -4.4 10 -1 10 C-1.66 8.35 -2.32 6.7 -3 5 C-6.67271044 4.67164344 -6.67271044 4.67164344 -9.8125 6.375 Z " fill="#323232" transform="translate(236,110)"/>
<path d="M0 0 C3.03565344 3.03565344 4.87466473 5.69841309 5.11352539 10.0847168 C5.10828857 10.86500244 5.10305176 11.64528809 5.09765625 12.44921875 C5.09443359 13.29677734 5.09121094 14.14433594 5.08789062 15.01757812 C5.07951172 15.89865234 5.07113281 16.77972656 5.0625 17.6875 C5.05798828 18.58017578 5.05347656 19.47285156 5.04882812 20.39257812 C5.03704983 22.59511987 5.02060164 24.79752599 5 27 C2.69 27 0.38 27 -2 27 C-2.03738281 25.73542969 -2.07476562 24.47085938 -2.11328125 23.16796875 C-2.17893833 21.5077827 -2.24538576 19.84762778 -2.3125 18.1875 C-2.33505859 17.35412109 -2.35761719 16.52074219 -2.38085938 15.66210938 C-2.4340332 14.45844727 -2.4340332 14.45844727 -2.48828125 13.23046875 C-2.51446533 12.49207764 -2.54064941 11.75368652 -2.56762695 10.99291992 C-3.11054582 8.49046552 -3.984184 7.54114467 -6 6 C-8.13803054 6.07606836 -8.13803054 6.07606836 -10 7 C-11.11823815 9.23647631 -11.19396061 10.64891529 -11.31640625 13.1328125 C-11.35830078 13.93847656 -11.40019531 14.74414062 -11.44335938 15.57421875 C-11.50233398 16.83685547 -11.50233398 16.83685547 -11.5625 18.125 C-11.62727539 19.39923828 -11.62727539 19.39923828 -11.69335938 20.69921875 C-11.79954236 22.79928223 -11.90028497 24.89961948 -12 27 C-14.31 27 -16.62 27 -19 27 C-19 18.09 -19 9.18 -19 0 C-16.33333333 0 -13.66666667 0 -11 0 C-10.443125 -0.185625 -9.88625 -0.37125 -9.3125 -0.5625 C-5.90922085 -1.20636362 -3.35384185 -0.83846046 0 0 Z " fill="#323232" transform="translate(307,110)"/>
<path d="M0 0 C0 1.98 0 3.96 0 6 C-2.31 6 -4.62 6 -7 6 C-7.33 7.98 -7.66 9.96 -8 12 C-6.02 12 -4.04 12 -2 12 C-2 13.65 -2 15.3 -2 17 C-3.98 17 -5.96 17 -8 17 C-8 24.26 -8 31.52 -8 39 C-10.31 39 -12.62 39 -15 39 C-15 31.74 -15 24.48 -15 17 C-15.99 17 -16.98 17 -18 17 C-18 15.35 -18 13.7 -18 12 C-17.01 12 -16.02 12 -15 12 C-14.938125 10.948125 -14.87625 9.89625 -14.8125 8.8125 C-12.95849417 0.11293417 -7.8393311 -0.76856187 0 0 Z " fill="#323232" transform="translate(220,98)"/>
<path d="M0 0 C0.33 1.65 0.66 3.3 1 5 C-1.9115195 5.61759505 -4.71974425 6.07319433 -7.6875 6.375 C-8.780625 6.58125 -9.87375 6.7875 -11 7 C-13.48038907 10.7205836 -13.46337203 12.59796571 -13 17 C-11.71107713 19.62283334 -11.71107713 19.62283334 -9 21 C-5.96917943 21.31821008 -3.03467666 21.23343667 0 21 C0.33 22.65 0.66 24.3 1 26 C-3.73926097 28.59894956 -7.89369463 28.1048188 -13 27 C-16.84996271 25.49349285 -17.78139291 24.39198513 -19.8125 20.75 C-21.44971039 15.57986192 -21.68824751 11.9500346 -19.875 6.8125 C-17.19411816 2.79117724 -14.13450425 0.71150142 -9.5625 -0.8125 C-6.26242839 -1.05396865 -3.24889572 -0.57333454 0 0 Z " fill="#323232" transform="translate(336,110)"/>
<path d="M0 0 C0 1.98 0 3.96 0 6 C-0.969375 6.28875 -1.93875 6.5775 -2.9375 6.875 C-6.10664203 7.64214682 -6.10664203 7.64214682 -7 10 C-7.23274209 12.87910588 -7.41972757 15.74146495 -7.5625 18.625 C-7.62727539 19.82769531 -7.62727539 19.82769531 -7.69335938 21.0546875 C-7.79951457 23.0362511 -7.90026855 25.01810271 -8 27 C-10.31 27 -12.62 27 -15 27 C-15 18.09 -15 9.18 -15 0 C-12.33333333 0 -9.66666667 0 -7 0 C-6.360625 -0.185625 -5.72125 -0.37125 -5.0625 -0.5625 C-3 -1 -3 -1 0 0 Z " fill="#323232" transform="translate(260,110)"/>
<path d="M0 0 C3.4375 0.8125 3.4375 0.8125 5.4375 3.8125 C5.11824747 7.64353042 4.59296298 9.57930553 2.4375 12.8125 C3.4275 12.8125 4.4175 12.8125 5.4375 12.8125 C5.4375 14.4625 5.4375 16.1125 5.4375 17.8125 C1.4775 17.8125 -2.4825 17.8125 -6.5625 17.8125 C-5.48652815 12.43264075 -4.47935634 11.32762748 -0.5625 7.8125 C-0.8925 6.8225 -1.2225 5.8325 -1.5625 4.8125 C-2.8825 5.1425 -4.2025 5.4725 -5.5625 5.8125 C-5.8925 4.4925 -6.2225 3.1725 -6.5625 1.8125 C-3.5625 -0.1875 -3.5625 -0.1875 0 0 Z " fill="#323232" transform="translate(161.5625,315.1875)"/>
<path d="M0 0 C2.72083309 2.72083309 2.52826707 4.64458007 2.875 8.4375 C2.99617187 9.59121094 3.11734375 10.74492187 3.2421875 11.93359375 C3 15 3 15 1.2421875 16.9296875 C-2.03662933 18.494837 -4.52977987 17.73408503 -8 17 C-8.33 16.01 -8.66 15.02 -9 14 C-8.67 13.34 -8.34 12.68 -8 12 C-5.03 12.495 -5.03 12.495 -2 13 C-2.33 12.34 -2.66 11.68 -3 11 C-5.02463255 10.34786708 -5.02463255 10.34786708 -7 10 C-6.125 6.125 -6.125 6.125 -5 5 C-5.99 5 -6.98 5 -8 5 C-8 3.68 -8 2.36 -8 1 C-5.23749964 -0.38125018 -3.05268901 -0.19079306 0 0 Z " fill="#313131" transform="translate(164,337)"/>
<path d="M0 0 C0 5.61 0 11.22 0 17 C-1.65 17 -3.3 17 -5 17 C-5 13.37 -5 9.74 -5 6 C-5.66 6 -6.32 6 -7 6 C-7.33 4.68 -7.66 3.36 -8 2 C-5 0 -5 0 0 0 Z " fill="#323232" transform="translate(165,294)"/>
</svg>
